<?xml version="1.0" encoding="iso-8859-1"?>
<!-- Generator: Adobe Illustrator 19.0.0, SVG Export Plug-In . SVG Version: 6.00 Build 0)  -->
<svg version="1.1" id="Layer_1" xmlns="http://www.w3.org/2000/svg" xmlns:xlink="http://www.w3.org/1999/xlink" x="0px" y="0px"
	 viewBox="0 0 512 512" style="enable-background:new 0 0 512 512;" xml:space="preserve">
<path style="fill:#00B3E3;" d="M230.287,29.032c21.533,0,41.152,8.182,55.92,21.608c7.857-3.258,16.466-5.063,25.501-5.063
	c34.223,0,62.419,25.805,66.185,59.021c0.286,2.493,0.846,7.596-6.338,7.596c-6.428,0-181.004,0-217.702,0
	c-4.318,0-6.593-5.516-6.328-8.22C151.654,61.9,187.131,29.032,230.287,29.032z"/>
<path style="fill:#0071CE;" d="M182.252,98.25c0.584-5.793-3.701-10.531-9.523-10.531H53.581c-5.822,0-10.107,4.739-9.523,10.531
	l4.725,46.898c0.584,5.793,5.825,10.531,11.646,10.531h105.452c5.822,0,11.062-4.739,11.646-10.531L182.252,98.25z"/>
<polygon style="opacity:0.1;enable-background:new    ;" points="44.361,101.252 45.96,117.129 180.35,117.129 181.95,101.252 "/>
<path style="opacity:0.2;enable-background:new    ;" d="M46.671,124.185l2.112,20.963c0.584,5.793,5.825,10.531,11.646,10.531
	h105.452c5.822,0,11.062-4.739,11.646-10.531l2.113-20.963H46.671z"/>
<rect x="67.774" y="212.574" style="fill:#A4A9AD;" width="90.764" height="258.469"/>
<rect x="67.774" y="212.574" style="opacity:0.2;enable-background:new    ;" width="90.764" height="48.69"/>
<path style="fill:#333E48;" d="M504.061,478.694c0,2.351-1.922,4.275-4.275,4.275H12.214c-2.352,0-4.275-1.924-4.275-4.275v-15.302
	c0-2.353,1.923-4.277,4.275-4.277h487.573c2.353,0,4.275,1.924,4.275,4.277V478.694z"/>
<path style="fill:#A4A9AD;" d="M195.531,143.201c0.735-5.774-3.426-10.5-9.248-10.5H40.027c-5.822,0-9.984,4.726-9.247,10.5
	l10.411,81.765c0.735,5.774,6.1,10.5,11.922,10.5h120.084c5.822,0,11.186-4.726,11.923-10.5L195.531,143.201z"/>
<rect x="78.803" y="132.701" style="fill:#D1D3D3;" width="68.701" height="43.879"/>
<polygon style="fill:#0071CE;" points="33.386,163.669 38.586,204.497 187.726,204.497 192.925,163.669 "/>
<rect x="105.212" y="163.672" style="opacity:0.1;enable-background:new    ;" width="15.877" height="40.827"/>
<rect x="56.48" y="163.672" style="opacity:0.1;enable-background:new    ;" width="15.877" height="40.827"/>
<rect x="153.955" y="163.672" style="opacity:0.1;enable-background:new    ;" width="15.877" height="40.827"/>
<g>
	<rect x="67.774" y="297.951" style="fill:#D1D3D3;" width="90.764" height="70.891"/>
	<path style="fill:#D1D3D3;" d="M130.041,99.627c0,9.326-7.561,16.886-16.886,16.886c-9.326,0-16.886-7.561-16.886-16.886V87.719
		c0-9.326,7.56-16.886,16.886-16.886s16.886,7.561,16.886,16.886V99.627z"/>
</g>
<path style="fill:#A4A9AD;" d="M499.786,459.114h-302.92v23.855h302.92c2.353,0,4.275-1.924,4.275-4.275v-15.302
	C504.061,461.038,502.138,459.114,499.786,459.114z"/>
<path style="fill:#D1D3D3;" d="M428.984,342.643H283.429l-31.842-31.843l0.002-0.006c-3.753-3.553-8.821-5.735-14.401-5.735
	c-11.566,0-20.943,9.375-20.943,20.942v58.528c0,23.132,18.754,41.884,41.886,41.884h170.853c23.132,0,41.886-18.753,41.886-41.884
	C470.87,361.395,452.117,342.643,428.984,342.643z"/>
<path style="fill:#0071CE;" d="M458.888,355.21h-42.784c-8.106,0-14.676,6.572-14.676,14.678c0,8.106,6.57,14.676,14.676,14.676
	h54.764c0-0.011,0.001-0.024,0.001-0.035C470.87,373.111,466.296,362.766,458.888,355.21z"/>
<g>
	<circle style="fill:#333E48;" cx="412.265" cy="442.76" r="16.35"/>
	<circle style="fill:#333E48;" cx="302.099" cy="442.76" r="16.35"/>
</g>
<path style="fill:#0071CE;" d="M283.429,342.643l-31.842-31.843l0.002-0.006c-3.753-3.553-8.821-5.735-14.401-5.735
	c-11.566,0-20.943,9.375-20.943,20.942v58.528c0,14.496,7.367,27.273,18.56,34.791c7.86-25.922,33.15-76.677,103.793-76.677H283.429
	z"/>
<path style="fill:#00B3E3;" d="M261.879,321.092c-18.532,6.655-34.236,17.736-45.634,28.498v23.588
	c8.919-11.534,29.986-31.913,58.251-39.469L261.879,321.092z"/>
<circle style="fill:#FFB819;" cx="401.426" cy="209.399" r="50.389"/>
<path style="fill:#1E252B;" d="M499.786,451.175h-64.734c0.972-2.623,1.504-5.455,1.504-8.412c0-3.095-0.589-6.052-1.648-8.776
	c24.69-2.939,43.901-23.991,43.901-49.459c0-27.474-22.351-49.825-49.824-49.825H286.716l-29.302-29.303
	c-0.119-0.128-0.241-0.252-0.369-0.374c-5.387-5.1-12.438-7.909-19.858-7.909c-15.926,0-28.882,12.956-28.882,28.88v58.528
	c0,27.473,22.351,49.822,49.825,49.822h21.18c-0.972,2.623-1.504,5.455-1.504,8.412c0,2.956,0.532,5.79,1.504,8.412H166.474V243.404
	h6.723c9.855,0,18.551-7.658,19.797-17.436l10.412-81.765c0.638-5.014-0.851-9.994-4.084-13.665
	c-2.96-3.361-7.197-5.388-11.768-5.71l0.473-4.698h183.529c5.981,0,9.389-2.411,11.193-4.435c3.904-4.377,3.271-9.916,3.033-11.993
	c-4.271-37.664-36.115-66.065-74.073-66.065c-8.197,0-16.212,1.316-23.888,3.916c-16.223-13.23-36.465-20.461-57.532-20.461
	c-19.878,0-38.768,6.288-54.626,18.188c-13.739,10.308-24.412,24.536-30.516,40.5h-8.475c-3.319-9.806-12.603-16.886-23.515-16.886
	s-20.196,7.08-23.515,16.886H53.581c-5.015,0-9.772,2.081-13.052,5.708c-3.28,3.627-4.873,8.569-4.369,13.558l2.597,25.781
	c-4.573,0.323-8.81,2.35-11.77,5.712c-3.233,3.671-4.721,8.652-4.08,13.664l10.41,81.765c1.245,9.777,9.941,17.436,19.797,17.436
	h6.72v207.77h-47.62C5.48,451.175,0,456.656,0,463.391v15.302c0,6.734,5.48,12.214,12.214,12.214h487.573
	c6.734,0,12.214-5.48,12.214-12.214v-15.302C512,456.656,506.52,451.175,499.786,451.175z M416.104,363.148h39.224
	c3.153,3.878,5.464,8.464,6.665,13.477h-45.889c-3.715,0-6.737-3.022-6.737-6.737C409.367,366.171,412.389,363.148,416.104,363.148z
	 M224.184,384.528V326c0-7.17,5.834-13.003,13.004-13.003c3.26,0,6.364,1.205,8.765,3.397l0.019,0.019l31.842,31.843
	c0.386,0.386,0.81,0.726,1.26,1.021c-7.789,4.44-14.963,9.887-21.493,16.334c-13.025,12.857-21.172,27.399-26.226,39.748
	C226.867,399.602,224.184,392.375,224.184,384.528z M258.131,418.474c-4.873,0-9.507-1.039-13.701-2.898
	c8.596-23.44,32.542-64.995,94.169-64.995h65.787c-6.52,3.974-10.897,11.129-10.897,19.307c0,12.47,10.144,22.614,22.614,22.614
	h45.872c-3.597,14.882-17.02,25.972-32.993,25.972L258.131,418.474L258.131,418.474z M420.679,442.764
	c0,4.638-3.773,8.412-8.411,8.412c-4.638,0-8.412-3.773-8.412-8.412c0-4.638,3.773-8.412,8.412-8.412
	C416.906,434.351,420.679,438.125,420.679,442.764z M389.482,451.175h-64.6c0.971-2.623,1.503-5.455,1.503-8.412
	c0-2.956-0.532-5.79-1.503-8.412h64.6c-0.971,2.623-1.503,5.455-1.503,8.412C387.979,445.72,388.511,448.552,389.482,451.175z
	 M310.507,442.764c0,4.638-3.772,8.412-8.411,8.412c-4.638,0-8.412-3.773-8.412-8.412c0-4.638,3.773-8.412,8.412-8.412
	C306.734,434.352,310.507,438.125,310.507,442.764z M230.287,36.971c18.754,0,36.717,6.941,50.58,19.544
	c2.276,2.067,5.54,2.636,8.381,1.459c7.132-2.957,14.688-4.457,22.46-4.457c29.455,0,54.232,21.721,58.144,50.739H189.626
	l0.525-5.208c0.503-4.989-1.089-9.931-4.369-13.558s-8.037-5.708-13.052-5.708h-10.355
	C174.687,53.791,200.766,36.971,230.287,36.971z M104.208,87.719c0-4.934,4.014-8.947,8.947-8.947c4.934,0,8.947,4.014,8.947,8.947
	v11.908c0,4.934-4.014,8.947-8.947,8.947c-4.934,0-8.947-4.014-8.947-8.947V87.719z M52.306,96.138
	c0.284-0.314,0.725-0.479,1.275-0.479h34.75v3.969c0,13.688,11.136,24.824,24.824,24.824s24.824-11.136,24.824-24.824v-3.969h34.75
	c0.55,0,0.993,0.165,1.275,0.479c0.284,0.313,0.404,0.768,0.349,1.317l-2.752,27.308H54.708l-2.752-27.308
	C51.901,96.907,52.022,96.451,52.306,96.138z M53.113,227.527c-1.813,0-3.817-1.766-4.047-3.564l-10.411-81.766
	c-0.044-0.352-0.038-0.84,0.248-1.165c0.286-0.325,0.77-0.393,1.125-0.393h146.255c0.356,0,0.839,0.068,1.126,0.393
	c0.286,0.325,0.292,0.814,0.248,1.166l-10.411,81.764c-0.23,1.799-2.234,3.565-4.048,3.565L53.113,227.527L53.113,227.527z
	 M150.597,243.404v207.771H75.71V243.404H150.597z M188.928,475.03H15.877v-7.978h173.051V475.03z M496.123,475.03H204.805v-7.978
	h291.318V475.03z M371.171,393.567h-79.914c-4.385,0-7.939,3.553-7.939,7.939c0,4.385,3.553,7.939,7.939,7.939h79.914
	c4.385,0,7.939-3.553,7.939-7.939C379.11,397.121,375.556,393.567,371.171,393.567z M343.101,209.399
	c0,32.162,26.167,58.327,58.327,58.327c32.162,0,58.327-26.167,58.327-58.327c0-32.162-26.167-58.327-58.327-58.327
	C369.267,151.071,343.101,177.237,343.101,209.399z M401.429,166.948c23.407,0,42.45,19.043,42.45,42.45s-19.043,42.45-42.45,42.45
	c-23.407,0-42.45-19.043-42.45-42.45S378.021,166.948,401.429,166.948z"/>
<g>
</g>
<g>
</g>
<g>
</g>
<g>
</g>
<g>
</g>
<g>
</g>
<g>
</g>
<g>
</g>
<g>
</g>
<g>
</g>
<g>
</g>
<g>
</g>
<g>
</g>
<g>
</g>
<g>
</g>
</svg>
