<svg id="Layer_3" enable-background="new 0 0 64 64" height="512" viewBox="0 0 64 64" width="512" xmlns="http://www.w3.org/2000/svg"><path d="m20 10 8-8h8l8 8z" fill="#98775a"/><path d="m28 2-8 8h21l-8-8z" fill="#cb9e78"/><path d="m44 22h10l6 6h-16z" fill="#8b8a8b"/><path d="m20 22h-10l-6 6h16z" fill="#8b8a8b"/><path d="m10 22-6 6h13v-6z" fill="#bab8b9"/><path d="m44 22v6h13l-6-6z" fill="#bab8b9"/><path d="m20 14h24v20h-24z" fill="#98775a"/><path d="m20 14h21v20h-21z" fill="#cb9e78"/><path d="m4 28h16v24h-16z" fill="#98775a"/><path d="m4 28h13v24h-13z" fill="#cb9e78"/><path d="m44 28h16v24h-16z" fill="#98775a"/><path d="m44 28h13v24h-13z" fill="#cb9e78"/><circle cx="32" cy="24" fill="#ba9b50" r="6"/><ellipse cx="30.5" cy="24" fill="#f8cf6a" rx="4.5" ry="5.803"/><path d="m4 52h16v6h-16z" fill="#4d3b2d"/><path d="m4 52h13v6h-13z" fill="#664f3c"/><path d="m44 52h16v6h-16z" fill="#4d3b2d"/><path d="m44 52h13v6h-13z" fill="#664f3c"/><path d="m50 32h6v6h-6z" fill="#64899b"/><path d="m50 32h3v6h-3z" fill="#85b6cf"/><path d="m50 42h6v6h-6z" fill="#64899b"/><path d="m50 42h3v6h-3z" fill="#85b6cf"/><path d="m8 42h6v6h-6z" fill="#64899b"/><path d="m8 42h3v6h-3z" fill="#85b6cf"/><path d="m8 32h6v6h-6z" fill="#64899b"/><path d="m8 32h3v6h-3z" fill="#85b6cf"/><path d="m24 38h16v20h-16z" fill="#cb9e78"/><path d="m28 58v-8c0-2.209 1.791-4 4-4 2.209 0 4 1.791 4 4v8z" fill="#98775a"/><path d="m28 58v-8c0-2.209 1.791-4 4-4 2.209 0 4 1.791 4 4v8z" fill="#664f3c"/><path d="m30.5 46.297c-1.465.594-2.5 2.025-2.5 3.703v8h5v-8c0-1.678-1.035-3.109-2.5-3.703z" fill="#98775a"/><path d="m53 16v-6h9l-3 3 3 3z" fill="#f8cf6a"/><path d="m11 16v-6h-9l3 3-3 3z" fill="#f8cf6a"/><g fill="#8b8a8b"><path d="m20 38h4v20h-4z"/><path d="m40 38h4v20h-4z"/><path d="m18 34h28v4h-28z"/></g><path d="m18 34h25v4h-25z" fill="#bab8b9"/><path d="m18 10h28v4h-28z" fill="#8b8a8b"/><path d="m18 10h25v4h-25z" fill="#bab8b9"/><path d="m2 58h60v4h-60z" fill="#8b8a8b"/><path d="m2 58h57v4h-57z" fill="#bab8b9"/><path d="m10 10h2v12h-2z" fill="#664f3c"/><path d="m52 10h2v12h-2z" fill="#664f3c"/><path d="m33.293 26.707-2-2c-.188-.187-.293-.442-.293-.707v-3h2v2.586l1.707 1.707z" fill="#664f3c"/></svg>