<?xml version="1.0" encoding="iso-8859-1"?>
<!-- Generator: Adobe Illustrator 19.0.0, SVG Export Plug-In . SVG Version: 6.00 Build 0)  -->
<svg version="1.1" id="Layer_1" xmlns="http://www.w3.org/2000/svg" xmlns:xlink="http://www.w3.org/1999/xlink" x="0px" y="0px"
	 viewBox="0 0 512 512" style="enable-background:new 0 0 512 512;" xml:space="preserve">
<path style="fill:#00B3E3;" d="M229.464,21.768c22.222,0,42.469,8.444,57.71,22.299c8.108-3.362,16.993-5.225,26.317-5.225
	c35.318,0,64.417,26.63,68.303,60.909c0.295,2.572,0.873,7.839-6.541,7.839c-6.634,0-186.797,0-224.669,0
	c-4.456,0-6.804-5.692-6.53-8.483C148.315,55.688,184.927,21.768,229.464,21.768z"/>
<path style="fill:#0071CE;" d="M179.892,93.201c0.603-5.978-3.82-10.868-9.828-10.868H47.103c-6.008,0-10.431,4.89-9.828,10.868
	l4.876,48.399c0.603,5.978,6.011,10.868,12.019,10.868h108.826c6.008,0,11.416-4.89,12.019-10.868L179.892,93.201z"/>
<polygon style="opacity:0.1;enable-background:new    ;" points="37.588,96.299 39.238,112.684 177.929,112.684 179.58,96.299 "/>
<path style="opacity:0.2;enable-background:new    ;" d="M39.972,119.966l2.179,21.634c0.603,5.978,6.011,10.868,12.019,10.868
	h108.826c6.008,0,11.416-4.89,12.019-10.868l2.18-21.634H39.972z"/>
<rect x="61.75" y="211.184" style="fill:#A4A9AD;" width="93.669" height="266.741"/>
<rect x="61.75" y="211.184" style="opacity:0.2;enable-background:new    ;" width="93.669" height="50.248"/>
<path style="fill:#333E48;" d="M512,485.82c0,2.426-1.984,4.412-4.412,4.412H4.412c-2.427,0-4.412-1.986-4.412-4.412v-15.792
	c0-2.428,1.985-4.414,4.412-4.414h503.176c2.428,0,4.412,1.986,4.412,4.414V485.82z"/>
<path style="fill:#A4A9AD;" d="M193.596,139.59c0.758-5.959-3.536-10.836-9.544-10.836H33.116c-6.008,0-10.303,4.877-9.543,10.836
	l10.744,84.382c0.758,5.959,6.295,10.836,12.303,10.836h123.927c6.008,0,11.544-4.877,12.304-10.836L193.596,139.59z"/>
<rect x="73.134" y="128.755" style="fill:#D1D3D3;" width="70.9" height="45.283"/>
<polygon style="fill:#0071CE;" points="26.262,160.714 31.628,202.848 185.541,202.848 190.906,160.714 "/>
<g style="opacity:0.1;">
	<rect x="100.387" y="160.717" width="16.385" height="42.134"/>
</g>
<g style="opacity:0.1;">
	<rect x="50.093" y="160.717" width="16.385" height="42.134"/>
</g>
<g style="opacity:0.1;">
	<rect x="150.689" y="160.717" width="16.385" height="42.134"/>
</g>
<g>
	<rect x="61.75" y="299.292" style="fill:#D1D3D3;" width="93.669" height="73.16"/>
	<path style="fill:#D1D3D3;" d="M126.01,94.622c0,9.625-7.803,17.426-17.426,17.426c-9.625,0-17.426-7.803-17.426-17.426V82.334
		c0-9.625,7.802-17.426,17.426-17.426s17.426,7.803,17.426,17.426V94.622z"/>
</g>
<path style="fill:#A4A9AD;" d="M507.588,465.613H194.974v24.618h312.614c2.428,0,4.412-1.986,4.412-4.412v-15.792
	C512,467.599,510.015,465.613,507.588,465.613z"/>
<path style="fill:#D1D3D3;" d="M434.52,345.415H284.307l-32.861-32.862l0.002-0.007c-3.873-3.667-9.104-5.918-14.861-5.918
	c-11.936,0-21.613,9.675-21.613,21.612v60.401c0,23.872,19.354,43.224,43.226,43.224h176.32c23.872,0,43.226-19.353,43.226-43.224
	C477.746,364.768,458.393,345.415,434.52,345.415z"/>
<path style="fill:#A4A9AD;" d="M374.857,414.354h-82.471c-4.526,0-8.193-3.667-8.193-8.193s3.667-8.193,8.193-8.193h82.471
	c4.526,0,8.193,3.667,8.193,8.193S379.382,414.354,374.857,414.354z"/>
<path style="fill:#0071CE;" d="M465.381,358.384h-44.153c-8.365,0-15.145,6.782-15.145,15.148c0,8.365,6.78,15.145,15.145,15.145
	h56.517c0-0.011,0.001-0.025,0.001-0.036C477.746,376.858,473.026,366.182,465.381,358.384z"/>
<g>
	<circle style="fill:#333E48;" cx="417.266" cy="448.737" r="16.873"/>
	<circle style="fill:#333E48;" cx="303.574" cy="448.737" r="16.873"/>
</g>
<path style="fill:#0071CE;" d="M284.307,345.415l-32.861-32.862l0.002-0.007c-3.873-3.667-9.104-5.918-14.861-5.918
	c-11.936,0-21.613,9.675-21.613,21.612v60.401c0,14.96,7.603,28.145,19.154,35.904c8.112-26.752,34.211-79.131,107.115-79.131
	H284.307z"/>
<path style="fill:#00B3E3;" d="M262.067,323.174c-19.125,6.868-35.332,18.303-47.094,29.41v24.343
	c9.204-11.903,30.945-32.934,60.115-40.733L262.067,323.174z"/>
<circle style="fill:#FFB819;" cx="406.08" cy="207.907" r="52.001"/>
<g>
</g>
<g>
</g>
<g>
</g>
<g>
</g>
<g>
</g>
<g>
</g>
<g>
</g>
<g>
</g>
<g>
</g>
<g>
</g>
<g>
</g>
<g>
</g>
<g>
</g>
<g>
</g>
<g>
</g>
</svg>
