<?xml version="1.0" encoding="iso-8859-1"?>
<!-- Generator: Adobe Illustrator 19.0.0, SVG Export Plug-In . SVG Version: 6.00 Build 0)  -->
<svg version="1.1" id="Capa_1" xmlns="http://www.w3.org/2000/svg" xmlns:xlink="http://www.w3.org/1999/xlink" x="0px" y="0px"
	 viewBox="0 0 512 512" style="enable-background:new 0 0 512 512;" xml:space="preserve">
<path style="fill:#647999;" d="M502.185,511.914H9.812c-2.869,0-5.195-2.326-5.195-5.195v-32.603c0-2.869,2.326-5.195,5.195-5.195
	h492.374c2.869,0,5.195,2.326,5.195,5.195v32.603C507.38,509.588,505.054,511.914,502.185,511.914z"/>
<path style="fill:#4F6784;" d="M502.185,511.914h-37.797v-42.992h37.797c2.869,0,5.195,2.326,5.195,5.195v32.603
	C507.38,509.588,505.054,511.914,502.185,511.914z"/>
<path style="fill:#F6E5CB;" d="M477.973,102.56V72.248c0-2.278-1.484-4.291-3.662-4.963L257.532,0.318
	c-0.999-0.309-2.067-0.309-3.067,0L37.686,67.285c-2.177,0.673-3.662,2.685-3.662,4.963v30.312c0,2.869-2.326,5.195-5.195,5.195
	H5.195c-2.869,0-5.195,2.326-5.195,5.195v47.793c0,2.869,2.326,5.195,5.195,5.195h501.608c2.869,0,5.195-2.326,5.195-5.195v-47.793
	c0-2.869-2.326-5.195-5.195-5.195h-23.636C480.298,107.755,477.973,105.429,477.973,102.56z"/>
<path style="fill:#ECD4B2;" d="M512,112.95v47.793c0,2.869-2.326,5.195-5.195,5.195h-57.362v-49.767
	c0-2.869-2.326-5.195-5.195-5.195h-21.756c-2.869,0-5.195-2.326-5.195-5.195V77.655c0-2.278-1.484-4.291-3.662-4.963l-196.723-60.77
	l37.552-11.599c0.999-0.309,2.067-0.309,3.066,0l216.781,66.967c2.177,0.673,3.662,2.685,3.662,4.963v30.308
	c0,2.869,2.326,5.195,5.195,5.195h23.637C509.675,107.755,512,110.081,512,112.95z"/>
<path style="fill:#F6E5CB;" d="M128.129,193.679v-27.743h-22.351H57.619H33.063v27.743c0,2.869,2.326,5.195,5.195,5.195h19.36
	v237.11h-19.36c-2.869,0-5.195,2.326-5.195,5.195v27.743h24.556h48.158h22.351V441.18c0-2.869-2.326-5.195-5.195-5.195h-17.157
	v-237.11h17.157C125.802,198.875,128.129,196.548,128.129,193.679z"/>
<path style="fill:#ECD4B2;" d="M81.701,468.921h46.431v-27.741c0-2.869-2.326-5.195-5.195-5.195h-17.164V198.873h17.164
	c2.869,0,5.195-2.326,5.195-5.195v-27.741H81.701V468.921z"/>
<path style="fill:#F6E5CB;" d="M478.934,193.679v-27.743h-22.351h-48.158h-24.556v27.743c0,2.869,2.326,5.195,5.195,5.195h19.36
	v237.11h-19.36c-2.869,0-5.195,2.326-5.195,5.195v27.743h24.556h48.158h22.351V441.18c0-2.869-2.326-5.195-5.195-5.195h-17.157
	v-237.11h17.157C476.608,198.875,478.934,196.548,478.934,193.679z"/>
<g>
	<path style="fill:#ECD4B2;" d="M105.774,198.873v237.113h17.164c2.869,0,5.195,2.326,5.195,5.195v27.741H81.701V165.937h46.431
		v27.741c0,2.869-2.326,5.195-5.195,5.195H105.774z"/>
	<path style="fill:#ECD4B2;" d="M456.576,198.873v237.113h17.164c2.869,0,5.195,2.326,5.195,5.195v27.741h-46.431V165.937h46.431
		v27.741c0,2.869-2.326,5.195-5.195,5.195H456.576z"/>
</g>
<path style="fill:#647999;" d="M269.334,71.25c4.141,0,7.497-3.356,7.497-7.497v-1.585c0-8.574-5.602-15.855-13.335-18.403v-2.453
	c0-4.142-3.357-7.497-7.497-7.497s-7.497,3.356-7.497,7.497v2.453c-7.732,2.547-13.335,9.828-13.335,18.403v8.049
	c0,12.288,9.997,22.284,22.284,22.284c2.418,0,4.387,1.968,4.387,4.387v6.727c0,2.418-1.968,4.387-4.387,4.387h-2.903
	c-2.418,0-4.387-1.968-4.387-4.387c0-4.142-3.357-7.497-7.497-7.497c-4.141,0-7.497,3.356-7.497,7.497
	c0,8.575,5.603,15.855,13.335,18.403v2.454c0,4.142,3.357,7.497,7.497,7.497c4.141,0,7.497-3.356,7.497-7.497v-2.454
	c7.732-2.547,13.335-9.828,13.335-18.403v-6.727c0-10.686-8.694-19.381-19.381-19.381c-4.02,0-7.29-3.27-7.29-7.29v-8.049
	c0-2.418,1.967-4.387,4.387-4.387h2.903c2.418,0,4.387,1.968,4.387,4.387v1.585C261.837,67.894,265.193,71.25,269.334,71.25z"/>
<g>
</g>
<g>
</g>
<g>
</g>
<g>
</g>
<g>
</g>
<g>
</g>
<g>
</g>
<g>
</g>
<g>
</g>
<g>
</g>
<g>
</g>
<g>
</g>
<g>
</g>
<g>
</g>
<g>
</g>
</svg>
