<?xml version="1.0" encoding="iso-8859-1"?>
<!-- Generator: Adobe Illustrator 19.0.0, SVG Export Plug-In . SVG Version: 6.00 Build 0)  -->
<svg version="1.1" id="Layer_1" xmlns="http://www.w3.org/2000/svg" xmlns:xlink="http://www.w3.org/1999/xlink" x="0px" y="0px"
	 viewBox="0 0 512 512" style="enable-background:new 0 0 512 512;" xml:space="preserve">
<polygon style="fill:#C05438;" points="264.945,57.001 247.201,57.001 241.028,159.002 271.118,159.002 "/>
<polygon style="fill:#FE6D41;" points="271.118,159.002 278.551,281.896 233.595,281.896 241.028,159.002 256.073,143.957 "/>
<path style="fill:#FFBC89;" d="M255.999,244.226l181.449,212.116h30.667C468.116,339.194,373.149,244.226,255.999,244.226z"/>
<path style="fill:#FFD3B0;" d="M255.999,244.226c-117.149,0-212.116,94.967-212.116,212.116h383.343
	C427.226,339.194,350.565,244.226,255.999,244.226z"/>
<path style="fill:#3DD977;" d="M256.073,96.247c12.001-25.053,7.683-55.927-13.011-76.621
	C222.368-1.066,191.495-5.384,166.441,6.616L256.073,96.247z"/>
<g>
	<path style="fill:#BEE294;" d="M256.073,96.247c-25.053-12.001-55.927-7.683-76.621,13.011
		c-20.693,20.693-25.011,51.567-13.011,76.621L256.073,96.247z"/>
	<path style="fill:#BEE294;" d="M256.073,96.247c-9.23-26.201-34.113-44.979-63.379-44.979s-54.15,18.778-63.379,44.979H256.073z"/>
	<path style="fill:#BEE294;" d="M256.073,96.247c-12.001-25.053-7.683-55.927,13.011-76.621
		c20.693-20.693,51.567-25.011,76.621-13.011L256.073,96.247z"/>
	<path style="fill:#BEE294;" d="M256.073,96.247c25.053-12.001,55.927-7.683,76.621,13.011
		c20.693,20.693,25.011,51.567,13.011,76.621L256.073,96.247z"/>
</g>
<path style="fill:#3DD977;" d="M256.073,96.247c9.23-26.201,34.113-44.979,63.379-44.979s54.15,18.778,63.379,44.979H256.073z"/>
<path style="fill:#14B1A5;" d="M510.028,362.854c-17.385,0-32.75-9.792-42.319-24.777l-81.872,102.737l81.873,66.953h42.319v-65.693
	l-17.889-7.667l17.889-7.667v-63.886H510.028z"/>
<path style="fill:#55E0D8;" d="M431.533,367.086c-17.374,0-32.727-9.793-42.319-24.777c-9.592,14.984-24.967,24.777-42.341,24.777
	c-17.397,0-32.75-9.793-42.33-24.777c-9.569,14.984-24.967,24.777-42.353,24.777c-17.374,0-32.75-9.793-42.33-24.777
	c-9.592,14.984-24.967,24.777-42.342,24.777s-32.75-9.793-42.33-24.777c-9.569,14.984-24.979,24.777-42.353,24.777
	s-32.75-9.793-42.33-24.777c-9.569,14.984-24.967,24.777-42.342,24.777l-0.003,106.58l23,7.667l-23,7.667L8.158,512h465.738V342.309
	C464.327,357.293,448.929,367.086,431.533,367.086z"/>
<g>
	<path style="fill:#FFFFFF;" d="M1.971,469.432h138.003c4.234,0,7.667,3.432,7.667,7.667s-3.433,7.667-7.667,7.667H1.971
		C1.971,484.766,1.971,469.432,1.971,469.432z"/>
	<path style="fill:#FFFFFF;" d="M211.532,484.766h-40.89c-4.234,0-7.667-3.432-7.667-7.667s3.433-7.667,7.667-7.667h40.89
		c4.234,0,7.667,3.432,7.667,7.667S215.767,484.766,211.532,484.766z"/>
	<path style="fill:#FFFFFF;" d="M139.974,442.075h-30.667c-4.234,0-7.667-3.432-7.667-7.667c0-4.235,3.433-7.667,7.667-7.667h30.667
		c4.234,0,7.667,3.432,7.667,7.667C147.641,438.643,144.209,442.075,139.974,442.075z"/>
	<path style="fill:#FFFFFF;" d="M377.136,442.075h-30.667c-4.235,0-7.667-3.432-7.667-7.667c0-4.235,3.432-7.667,7.667-7.667h30.667
		c4.235,0,7.667,3.432,7.667,7.667C384.803,438.643,381.371,442.075,377.136,442.075z"/>
	<path style="fill:#FFFFFF;" d="M407.803,426.741c-4.235,0-7.667,3.432-7.667,7.667c0,4.235,3.432,7.667,7.667,7.667h102.225
		v-15.334H407.803z"/>
	<path style="fill:#FFFFFF;" d="M109.307,411.408H41.838c-4.234,0-7.667-3.432-7.667-7.667c0-4.235,3.433-7.667,7.667-7.667h67.468
		c4.234,0,7.667,3.432,7.667,7.667C116.974,407.976,113.542,411.408,109.307,411.408z"/>
	<path style="fill:#FFFFFF;" d="M283.017,411.408H180.793c-4.234,0-7.667-3.432-7.667-7.667c0-4.235,3.433-7.667,7.667-7.667
		h102.225c4.235,0,7.667,3.432,7.667,7.667C290.684,407.976,287.253,411.408,283.017,411.408z"/>
	<path style="fill:#FFFFFF;" d="M354.575,411.408h-40.89c-4.235,0-7.667-3.432-7.667-7.667c0-4.235,3.432-7.667,7.667-7.667h40.89
		c4.235,0,7.667,3.432,7.667,7.667C362.242,407.976,358.81,411.408,354.575,411.408z"/>
</g>
<g>
</g>
<g>
</g>
<g>
</g>
<g>
</g>
<g>
</g>
<g>
</g>
<g>
</g>
<g>
</g>
<g>
</g>
<g>
</g>
<g>
</g>
<g>
</g>
<g>
</g>
<g>
</g>
<g>
</g>
</svg>
