<svg id="Capa_1" enable-background="new 0 0 512 512" height="512" viewBox="0 0 512 512" width="512" xmlns="http://www.w3.org/2000/svg"><g><g><g><path d="m408.931 195.265h-110.854v39.974h110.854c15.451 0 28.021 12.571 28.021 28.023v68.947c0 44.931-36.552 81.485-81.483 81.485h-57.392v39.974h57.392c66.971 0 121.457-54.486 121.457-121.459v-68.947c0-37.494-30.503-67.997-67.995-67.997z" fill="#dcf5ff"/><g><g><g><g><path d="m63.34 141.728h287.506v350.669h-287.506z" fill="#fcdd2e"/></g></g></g></g><path d="m310.13 141.728h40.716v350.669h-40.716z" fill="#f9c301"/></g><path d="m359.51 512h-304.834c-10.826 0-19.603-8.776-19.603-19.603 0-10.826 8.776-19.603 19.603-19.603h304.834c10.826 0 19.603 8.776 19.603 19.603-.001 10.827-8.777 19.603-19.603 19.603z" fill="#dcf5ff"/><path d="m359.51 472.795h-40.974c10.826 0 19.602 8.776 19.602 19.603v19.602h21.371c10.826 0 19.602-8.776 19.602-19.603.001-10.826-8.775-19.602-19.601-19.602z" fill="#c7eefb"/><path d="m391.052 136.717c.432-30.93-24.511-56.14-55.342-56.14-4.244 0-8.37.494-12.339 1.398-6.282-19.005-22.576-33.44-42.642-37.068-4.885-25.574-27.354-44.907-54.351-44.907-18.129 0-34.221 8.717-44.317 22.187-6.727-2.907-14.14-4.526-21.934-4.526-28.799 0-52.452 21.997-55.094 50.105-2.357-.306-4.755-.481-7.195-.481-33.242 0-59.639 29.305-54.766 63.49 3.677 25.795 24.682 45.173 50.67 47.057 7.805.566 15.265-.503 22.866-2.841 9.303 17.482 27.696 29.39 48.88 29.39 8.198 0 15.977-1.784 22.973-4.984 13.321-6.094 28.47 3.72 28.47 18.368 0 14.687 11.906 26.593 26.593 26.593 14.687 0 26.593-11.906 26.593-26.593v-30.918c0-14.754 12.011-26.688 26.765-26.593 14.62.094 26.422 11.973 26.422 26.593v51.46c0 14.687 11.906 26.593 26.593 26.593 14.687 0 26.593-11.906 26.593-26.593v-58.691c0-3.94 1.349-7.732 3.695-10.898 6.68-9.008 10.701-20.077 10.867-32.001z" fill="#fdf3c4"/><g fill="#fdf3c4"><path d="m190.927 395.042v-118.207c0-8.928 7.238-16.166 16.166-16.166 8.928 0 16.166 7.238 16.166 16.166v118.207c0 8.928-7.238 16.166-16.166 16.166-8.928.001-16.166-7.237-16.166-16.166z"/><path d="m277.797 395.042v-118.207c0-8.928 7.238-16.166 16.166-16.166 8.928 0 16.166 7.238 16.166 16.166v118.207c0 8.928-7.238 16.166-16.166 16.166-8.928.001-16.166-7.237-16.166-16.166z"/></g><g><path d="m104.056 395.042v-118.207c0-8.928 7.238-16.166 16.166-16.166 8.928 0 16.166 7.238 16.166 16.166v118.207c0 8.928-7.238 16.166-16.166 16.166-8.928.001-16.166-7.237-16.166-16.166z" fill="#fdf3c4"/></g><g fill="#fceeac"><path d="m335.71 80.577c-4.244 0-8.369.494-12.339 1.398-6.282-19.005-22.576-33.44-42.642-37.068-4.885-25.574-27.354-44.907-54.351-44.907-12.82 0-24.61 4.374-33.993 11.691-3.844 2.996-7.308 6.475-10.317 10.487-.002.003-.005.006-.007.009h.02c8.103 3.777 15.036 9.732 20.053 17.257 1.491 2.234 3.941 3.443 6.439 3.443 1.474 0 2.965-.421 4.282-1.3 3.061-2.042 4.191-5.888 2.93-9.186 12.53 8.109 22.006 20.427 24.731 34.692 20.066 3.628 36.36 18.063 42.642 37.068 3.97-.904 8.096-1.398 12.339-1.398 30.831 0 55.775 25.209 55.342 56.14-.167 11.925-4.188 22.993-10.865 32.002-2.346 3.166-3.695 6.958-3.695 10.898v58.691c0 .219-.003.437-.008.654 3.985 2.383 8.646 3.752 13.626 3.752 14.687 0 26.593-11.906 26.593-26.593v-58.691c0-3.94 1.349-7.732 3.695-10.898 6.677-9.01 10.698-20.078 10.865-32.002.435-30.93-24.509-56.139-55.34-56.139z"/><path d="m116.653 175.071c0-.001-.001-.002-.001-.003-4.153-10.072-4.808-21.342-1.841-31.732 1.172-4.105-1.206-8.384-5.312-9.556-4.101-1.171-8.383 1.207-9.556 5.312-3.616 12.667-3.154 26.307 1.242 38.773 5.177-.304 10.269-1.288 15.424-2.874.014.027.03.053.044.08z"/></g></g></g></svg>