<svg height="512pt" viewBox="0 -21 512 512" width="512pt" xmlns="http://www.w3.org/2000/svg"><path d="m313.804688 347.058594v-49.550782c0-4.558593-3.695313-8.257812-8.257813-8.257812h-297.289063c-4.5625 0-8.257812 3.699219-8.257812 8.257812v165.164063c0 4.558594 3.695312 8.257813 8.257812 8.257813h429.417969v-49.550782h-8.257812c-4.558594 0-8.257813-3.695312-8.257813-8.257812v-49.546875c0-4.5625-3.695312-8.257813-8.257812-8.257813h-90.839844c-4.558594 0-8.257812-3.699218-8.257812-8.257812zm0 0" fill="#f6d190"/><path d="m305.804688 470.929688h-182.191407c-4.417969 0-8-3.582032-8-8v-33.550782c0-4.417968 3.582031-8 8-8h182.195313c4.417968 0 8 3.582032 8 8v33.550782c-.003906 4.417968-3.582032 8-8.003906 8zm0 0" fill="#c38c66"/><path d="m148.644531 454.410156c-9.121093 0-16.515625-7.394531-16.515625-16.515625v-16.515625h-8.257812c-4.5625 0-8.257813 3.699219-8.257813 8.257813v33.035156c0 4.558594 3.695313 8.257813 8.257813 8.257813h181.675781c4.5625 0 8.257813-3.699219 8.257813-8.257813v-8.261719zm0 0" fill="#b57f5f"/><path d="m198.453125 404.863281h-190.453125c-4.417969 0-8-3.582031-8-8v-33.546875c0-4.417968 3.582031-8 8-8h190.453125c4.417969 0 8 3.582032 8 8v33.546875c0 4.417969-3.582031 8-8 8zm0 0" fill="#c38c66"/><path d="m33.03125 388.347656c-9.121094 0-16.515625-7.394531-16.515625-16.515625v-16.515625h-8.257813c-4.5625 0-8.257812 3.695313-8.257812 8.257813v33.03125c0 4.5625 3.695312 8.257812 8.257812 8.257812h189.933594c4.5625 0 8.257813-3.695312 8.257813-8.257812v-8.257813zm0 0" fill="#b57f5f"/><path d="m413.160156 404.863281h-182.191406c-4.417969 0-8-3.582031-8-8v-33.546875c0-4.417968 3.582031-8 8-8h182.191406c4.417969 0 8 3.582032 8 8v33.546875c0 4.417969-3.582031 8-8 8zm0 0" fill="#e2a975"/><path d="m256 388.347656c-9.121094 0-16.515625-7.394531-16.515625-16.515625v-16.515625h-8.257813c-4.5625 0-8.257812 3.695313-8.257812 8.257813v33.03125c0 4.5625 3.695312 8.257812 8.257812 8.257812h181.675782c4.5625 0 8.257812-3.695312 8.257812-8.257812v-8.257813zm0 0" fill="#d19a6e"/><path d="m305.804688 338.800781h-182.191407c-4.417969 0-8-3.582031-8-8v-33.550781c0-4.417969 3.582031-8 8-8h182.195313c4.417968 0 8 3.582031 8 8v33.550781c-.003906 4.417969-3.582032 8-8.003906 8zm0 0" fill="#d19a6e"/><path d="m148.644531 322.28125c-9.121093 0-16.515625-7.394531-16.515625-16.515625v-16.515625h-8.257812c-4.5625 0-8.257813 3.699219-8.257813 8.257812v33.035157c0 4.558593 3.695313 8.257812 8.257813 8.257812h181.675781c4.5625 0 8.257813-3.699219 8.257813-8.257812v-8.261719zm0 0" fill="#c38c66"/><path d="m504 470.929688h-165.675781c-4.417969 0-8-3.582032-8-8v-33.550782c0-4.417968 3.582031-8 8-8h165.675781c4.417969 0 8 3.582032 8 8v33.550782c0 4.417968-3.582031 8-8 8zm0 0" fill="#d19a6e"/><path d="m363.355469 454.410156c-9.121094 0-16.515625-7.394531-16.515625-16.515625v-16.515625h-8.257813c-4.5625 0-8.257812 3.699219-8.257812 8.257813v33.035156c0 4.558594 3.695312 8.257813 8.257812 8.257813h165.160157c4.5625 0 8.257812-3.699219 8.257812-8.257813v-8.261719zm0 0" fill="#c38c66"/><path d="m91.097656 470.929688h-83.097656c-4.417969 0-8-3.582032-8-8v-33.550782c0-4.417968 3.582031-8 8-8h83.097656c4.417969 0 8 3.582032 8 8v33.550782c0 4.417968-3.582031 8-8 8zm0 0" fill="#d19a6e"/><path d="m33.03125 454.410156c-9.121094 0-16.515625-7.394531-16.515625-16.515625v-16.515625h-8.257813c-4.5625 0-8.257812 3.699219-8.257812 8.257813v33.035156c0 4.558594 3.695312 8.257813 8.257812 8.257813h82.582032c4.558594 0 8.257812-3.699219 8.257812-8.257813v-8.261719zm0 0" fill="#c38c66"/><path d="m91.097656 338.800781h-83.097656c-4.417969 0-8-3.582031-8-8v-33.550781c0-4.417969 3.582031-8 8-8h83.097656c4.417969 0 8 3.582031 8 8v33.550781c0 4.417969-3.582031 8-8 8zm0 0" fill="#e2a975"/><path d="m33.03125 322.28125c-9.121094 0-16.515625-7.394531-16.515625-16.515625v-16.515625h-8.257813c-4.5625 0-8.257812 3.699219-8.257812 8.257812v33.035157c0 4.558593 3.695312 8.257812 8.257812 8.257812h82.582032c4.558594 0 8.257812-3.699219 8.257812-8.257812v-8.261719zm0 0" fill="#d19a6e"/><path d="m255.71875 313.441406 153.96875-70.746094c10.453125-4.800781 12.917969-18.550781 4.785156-26.683593l-83.230468-83.230469c-8.132813-8.132812-21.882813-5.667969-26.683594 4.785156l-70.746094 153.96875c-6.398438 13.929688 7.976562 28.304688 21.90625 21.90625zm0 0" fill="#dad8db"/><path d="m308.628906 246.886719c-2.113281 0-4.226562-.804688-5.839844-2.417969-3.226562-3.226562-3.226562-8.453125 0-11.675781l78.832032-78.832031c1.605468-1.605469 1.605468-4.234376-.007813-5.847657-8.039062-8.039062-8.039062-21.144531.007813-29.195312l41.960937-41.957031c3.226563-3.226563 8.449219-3.226563 11.675781 0 3.226563 3.222656 3.226563 8.449218 0 11.675781l-41.960937 41.960937c-1.613281 1.613282-1.613281 4.230469 0 5.84375 8.042969 8.050782 8.042969 21.148438.007813 29.1875l-78.835938 78.839844c-1.613281 1.613281-3.726562 2.417969-5.839844 2.417969zm0 0" fill="#c8c5c9"/><path d="m402.417969 110.527344-.730469-.730469c-6.246094-6.246094-6.246094-16.378906 0-22.625l82.484375-82.480469c6.246094-6.25 16.378906-6.25 22.625 0l.730469.730469c6.035156 6.464844 5.535156 16.898437 0 22.625l-82.480469 82.480469c-6.246094 6.25-16.378906 6.25-22.628906 0zm0 0" fill="#c8c5c9"/><path d="m507.160156 5.054688-105.105468 105.109374c6.449218 6.449219 16.90625 6.449219 23.355468 0l81.75-81.75c6.453125-6.449218 6.453125-16.910156 0-23.359374zm0 0" fill="#b6b1b7"/><path d="m442.929688 92.644531 64.230468-64.234375c6.453125-6.449218 6.453125-16.90625 0-23.355468-6.449218-6.449219-16.160156-7.023438-23.355468 0l-64.234376 64.234374zm0 0" fill="#d19a6e"/><path d="m442.929688 92.644531 64.230468-64.234375c6.453125-6.449218 6.453125-16.90625 0-23.355468l-75.910156 75.910156zm0 0" fill="#c38c66"/></svg>