<?xml version="1.0" encoding="iso-8859-1"?>
<!-- Generator: Adobe Illustrator 19.0.0, SVG Export Plug-In . SVG Version: 6.00 Build 0)  -->
<svg version="1.1" id="Layer_1" xmlns="http://www.w3.org/2000/svg" xmlns:xlink="http://www.w3.org/1999/xlink" x="0px" y="0px"
	 viewBox="0 0 512 512" style="enable-background:new 0 0 512 512;" xml:space="preserve">
<g>
	<path style="fill:#BF4436;" d="M74.188,153.989c-4.329,0-7.837-3.507-7.837-7.833v-42.817c0-4.326,3.508-7.833,7.837-7.833
		s7.837,3.507,7.837,7.833v42.817C82.024,150.482,78.517,153.989,74.188,153.989z"/>
	<path style="fill:#BF4436;" d="M94.052,153.989c-4.329,0-7.837-3.507-7.837-7.833v-22.975c0-4.326,3.508-7.833,7.837-7.833
		s7.837,3.507,7.837,7.833v22.975C101.889,150.482,98.38,153.989,94.052,153.989z"/>
</g>
<path style="fill:#E9F2FF;" d="M388.595,84.087H242.631c-13.211,0-24.019-10.808-24.019-24.019l0,0
	c0-13.211,10.808-24.019,24.019-24.019h145.964c13.211,0,24.019,10.808,24.019,24.019l0,0
	C412.615,73.279,401.805,84.087,388.595,84.087z"/>
<path style="fill:#B9D7FF;" d="M239.509,60.068L239.509,60.068c0-13.211,10.815-24.019,24.033-24.019h-20.898
	c-13.218,0-24.033,10.808-24.033,24.019l0,0c0,13.211,10.815,24.019,24.033,24.019h20.898
	C250.324,84.087,239.509,73.279,239.509,60.068z"/>
<path style="fill:#E9F2FF;" d="M157.872,84.087h-34.467c-13.211,0-24.019-10.808-24.019-24.019l0,0
	c0-13.211,10.808-24.019,24.019-24.019h34.467c13.211,0,24.019,10.808,24.019,24.019l0,0
	C181.891,73.279,171.082,84.087,157.872,84.087z"/>
<path style="fill:#B9D7FF;" d="M120.283,60.068L120.283,60.068c0-13.211,10.815-24.019,24.033-24.019h-20.898
	c-13.218,0-24.033,10.808-24.033,24.019l0,0c0,13.211,10.815,24.019,24.033,24.019h20.898
	C131.098,84.087,120.283,73.279,120.283,60.068z"/>
<path style="fill:#36C8E3;" d="M235.682,260.917H157.78v-74.725c0-1.73,1.403-3.134,3.134-3.134h71.634
	c1.73,0,3.134,1.403,3.134,3.134v74.725H235.682z"/>
<path style="fill:#2A8CBD;" d="M157.78,186.191v74.726h20.898v-77.858h-17.763C159.183,183.059,157.78,184.461,157.78,186.191z"/>
<path style="fill:#36C8E3;" d="M336.805,260.917h-77.902v-74.725c0-1.73,1.403-3.134,3.134-3.134h71.634
	c1.73,0,3.134,1.403,3.134,3.134v74.725H336.805z"/>
<path style="fill:#2A8CBD;" d="M258.818,186.191v74.726h20.898v-77.858h-17.763C260.221,183.059,258.818,184.461,258.818,186.191z"
	/>
<path style="fill:#36C8E3;" d="M437.929,260.917h-77.902v-74.725c0-1.73,1.403-3.134,3.134-3.134h71.634
	c1.73,0,3.134,1.403,3.134,3.134v74.725H437.929z"/>
<path style="fill:#2A8CBD;" d="M360.027,186.191v74.726h20.898v-77.858h-17.763C361.43,183.059,360.027,184.461,360.027,186.191z"/>
<path style="fill:#FFD359;" d="M132.237,303.968h-76.37V150.335c0-2.308,1.87-4.179,4.179-4.179h68.012
	c2.308,0,4.179,1.87,4.179,4.179V303.968z"/>
<path style="fill:#DB9840;" d="M55.868,150.334v153.634h20.698V146.157H60.047C57.738,146.157,55.868,148.027,55.868,150.334z"/>
<rect x="55.871" y="179.054" style="fill:#FF5948;" width="76.372" height="25.349"/>
<path style="fill:#DB9840;" d="M458.471,303.761H120.783c-3.462,0-6.267-2.807-6.267-6.267v-32.908c0-3.462,2.807-6.267,6.267-6.267
	h337.688c3.462,0,6.267,2.807,6.267,6.267v32.908C464.739,300.956,461.933,303.761,458.471,303.761z"/>
<path style="fill:#FF5948;" d="M476.473,258.329c2.308,0,4.18,1.87,4.18,4.177v35.089c0,56.101-45.505,101.57-101.627,101.57H90.185
	c-32.495,0-58.838-26.328-58.838-58.806v-53.583c0-2.307,1.871-4.177,4.18-4.177h219.199c2.308,0,4.18-1.87,4.18-4.177v-15.915
	c0-2.307,1.871-4.177,4.18-4.177L476.473,258.329L476.473,258.329z"/>
<g>
	<path style="fill:#D44A3C;" d="M279.628,278.421v-15.915c0-2.307,1.871-4.177,4.18-4.177h-20.723c-2.308,0-4.18,1.87-4.18,4.177
		v15.915c0,2.307-1.871,4.177-4.18,4.177h20.723C277.758,282.599,279.628,280.729,279.628,278.421z"/>
	<path style="fill:#D44A3C;" d="M52.07,340.36v-57.761H35.527c-2.308,0-4.18,1.87-4.18,4.177v53.583
		c0,32.478,26.343,58.806,58.838,58.806h20.723C78.413,399.165,52.07,372.836,52.07,340.36z"/>
</g>
<g>
	<path style="fill:#2A8CBD;" d="M504.163,406.902H7.837c-4.329,0-7.837-3.507-7.837-7.833s3.508-7.833,7.837-7.833h496.327
		c4.329,0,7.837,3.507,7.837,7.833S508.492,406.902,504.163,406.902z"/>
	<path style="fill:#2A8CBD;" d="M458.177,441.49H53.823c-4.329,0-7.837-3.507-7.837-7.833c0-4.326,3.508-7.833,7.837-7.833h404.355
		c4.329,0,7.837,3.507,7.837,7.833C466.014,437.984,462.506,441.49,458.177,441.49z"/>
	<path style="fill:#2A8CBD;" d="M427.799,475.951H84.201c-4.329,0-7.837-3.507-7.837-7.833s3.508-7.833,7.837-7.833h343.598
		c4.329,0,7.837,3.507,7.837,7.833S432.128,475.951,427.799,475.951z"/>
</g>
<g>
	<path style="fill:#FFD359;" d="M209.259,249.912c-4.329,0-7.837-3.507-7.837-7.833v-37.595c0-4.326,3.508-7.833,7.837-7.833
		c4.329,0,7.837,3.507,7.837,7.833v37.595C217.095,246.406,213.587,249.912,209.259,249.912z"/>
	<path style="fill:#FFD359;" d="M183.101,249.912c-4.329,0-7.837-3.507-7.837-7.833v-37.595c0-4.326,3.508-7.833,7.837-7.833
		c4.329,0,7.837,3.507,7.837,7.833v37.595C190.937,246.406,187.43,249.912,183.101,249.912z"/>
	<path style="fill:#FFD359;" d="M310.932,249.912c-4.329,0-7.837-3.507-7.837-7.833v-37.595c0-4.326,3.508-7.833,7.837-7.833
		c4.329,0,7.837,3.507,7.837,7.833v37.595C318.769,246.406,315.261,249.912,310.932,249.912z"/>
	<path style="fill:#FFD359;" d="M284.775,249.912c-4.329,0-7.837-3.507-7.837-7.833v-37.595c0-4.326,3.508-7.833,7.837-7.833
		c4.329,0,7.837,3.507,7.837,7.833v37.595C292.612,246.406,289.104,249.912,284.775,249.912z"/>
	<path style="fill:#FFD359;" d="M412.058,249.912c-4.329,0-7.837-3.507-7.837-7.833v-37.595c0-4.326,3.508-7.833,7.837-7.833
		c4.329,0,7.837,3.507,7.837,7.833v37.595C419.894,246.406,416.386,249.912,412.058,249.912z"/>
	<path style="fill:#FFD359;" d="M385.9,249.912c-4.329,0-7.837-3.507-7.837-7.833v-37.595c0-4.326,3.508-7.833,7.837-7.833
		s7.837,3.507,7.837,7.833v37.595C393.736,246.406,390.229,249.912,385.9,249.912z"/>
</g>
<g>
	<circle style="fill:#36C8E3;" cx="79.538" cy="228.53" r="7.837"/>
	<circle style="fill:#36C8E3;" cx="79.538" cy="257.045" r="7.837"/>
</g>
<g>
	<circle style="fill:#FFD359;" cx="162.659" cy="333.5" r="7.837"/>
	<circle style="fill:#FFD359;" cx="210.798" cy="333.5" r="7.837"/>
	<circle style="fill:#FFD359;" cx="258.936" cy="333.5" r="7.837"/>
	<circle style="fill:#FFD359;" cx="307.075" cy="333.5" r="7.837"/>
	<circle style="fill:#FFD359;" cx="355.213" cy="333.5" r="7.837"/>
</g>
<g>
</g>
<g>
</g>
<g>
</g>
<g>
</g>
<g>
</g>
<g>
</g>
<g>
</g>
<g>
</g>
<g>
</g>
<g>
</g>
<g>
</g>
<g>
</g>
<g>
</g>
<g>
</g>
<g>
</g>
</svg>
