<?xml version="1.0" encoding="iso-8859-1"?>
<!-- Generator: Adobe Illustrator 19.0.0, SVG Export Plug-In . SVG Version: 6.00 Build 0)  -->
<svg version="1.1" id="Layer_1" xmlns="http://www.w3.org/2000/svg" xmlns:xlink="http://www.w3.org/1999/xlink" x="0px" y="0px"
	 viewBox="0 0 512 512" style="enable-background:new 0 0 512 512;" xml:space="preserve">
<polygon style="fill:#9BC5FF;" points="512,130.844 512,290.133 455.111,312.889 455.111,108.089 "/>
<path style="fill:#CDE2FF;" d="M477.867,119.467v170.667h-34.133c-18.773,0-34.133-15.36-34.133-34.133l-22.756-136.533H477.867z"/>
<polygon style="fill:#9BC5FF;" points="409.6,119.467 409.6,256 352.711,278.756 352.711,119.467 "/>
<rect x="261.689" y="119.467" style="fill:#CDE2FF;" width="113.778" height="147.911"/>
<rect x="227.556" y="119.467" style="fill:#9BC5FF;" width="45.511" height="147.911"/>
<rect x="125.156" y="119.467" style="fill:#CDE2FF;" width="113.778" height="147.911"/>
<polygon style="fill:#69A8FF;" points="136.533,119.467 136.533,164.978 79.644,210.489 79.644,119.467 "/>
<g>
	<polygon style="fill:#9BC5FF;" points="102.4,119.467 102.4,210.489 0,164.978 0,130.844 	"/>
	<polygon style="fill:#9BC5FF;" points="136.533,164.978 136.533,290.133 68.267,290.133 102.4,164.978 	"/>
</g>
<polygon style="fill:#CDE2FF;" points="102.4,164.978 102.4,290.133 0,256 0,164.978 "/>
<g>
	<path style="fill:#C84F36;" d="M477.867,96.711h-34.133v34.133H512C512,112.071,496.64,96.711,477.867,96.711z"/>
	<polygon style="fill:#C84F36;" points="512,290.133 512,369.778 477.867,369.778 443.733,329.956 477.867,290.133 	"/>
</g>
<g>
	<path style="fill:#F34A28;" d="M443.733,290.133c-18.773,0-34.133-15.36-34.133-34.133H0v113.778h477.867v-79.644H443.733z"/>
	<path style="fill:#F34A28;" d="M443.733,96.711h-409.6C15.36,96.711,0,112.071,0,130.844h477.867
		C477.867,112.071,462.507,96.711,443.733,96.711z"/>
</g>
<path style="fill:#555970;" d="M409.609,324.267v91.022c25.131-0.009,45.502-20.38,45.502-45.511
	C455.111,344.647,434.74,324.276,409.609,324.267z"/>
<path style="fill:#5475AC;" d="M409.609,324.267c10.049,0.009,17.058,20.379,17.058,45.51c0,25.131-7.009,45.503-17.058,45.512
	c-25.149,0-45.52-20.371-45.52-45.511C364.089,344.637,384.46,324.267,409.609,324.267z"/>
<path style="fill:#FFFFFF;" d="M409.592,386.843c-9.406,0-17.059-7.656-17.059-17.067s7.653-17.067,17.059-17.067
	c9.415,0,17.075,7.656,17.075,17.067S419.007,386.843,409.592,386.843z"/>
<path style="fill:#555970;" d="M102.409,324.267v91.022c25.131-0.009,45.502-20.38,45.502-45.511
	C147.911,344.647,127.54,324.276,102.409,324.267z"/>
<path style="fill:#5475AC;" d="M102.409,324.267c10.049,0.009,17.058,20.38,17.058,45.511c0,25.131-7.009,45.502-17.058,45.511
	c-25.149,0-45.52-20.371-45.52-45.511C56.889,344.637,77.26,324.267,102.409,324.267z"/>
<path style="fill:#FFFFFF;" d="M102.392,386.843c-9.406,0-17.059-7.656-17.059-17.067s7.653-17.067,17.059-17.067
	c9.415,0,17.075,7.656,17.075,17.067S111.807,386.843,102.392,386.843z"/>
<path style="fill:#C84F36;" d="M45.511,298.667H34.133c-4.713,0-8.533-3.82-8.533-8.533c0-4.714,3.821-8.533,8.533-8.533h11.378
	c4.713,0,8.533,3.82,8.533,8.533C54.044,294.847,50.224,298.667,45.511,298.667z"/>
<g>
</g>
<g>
</g>
<g>
</g>
<g>
</g>
<g>
</g>
<g>
</g>
<g>
</g>
<g>
</g>
<g>
</g>
<g>
</g>
<g>
</g>
<g>
</g>
<g>
</g>
<g>
</g>
<g>
</g>
</svg>
