<svg id="Capa_1" enable-background="new 0 0 512 512" height="512" viewBox="0 0 512 512" width="512" xmlns="http://www.w3.org/2000/svg"><path d="m151.985 460.399h-91.41v30.651c0 11.57 9.38 20.95 20.95 20.95h49.51c11.57 0 20.95-9.38 20.95-20.95z" fill="#808b95"/><path d="m451.425 460.399h-91.41v30.651c0 11.57 9.38 20.95 20.95 20.95h49.51c11.57 0 20.95-9.38 20.95-20.95z" fill="#808b95"/><g fill="#5e6b75"><path d="m93.363 512c-4.143 0-7.5-3.358-7.5-7.5v-36.601c0-4.142 3.357-7.5 7.5-7.5s7.5 3.358 7.5 7.5v36.601c0 4.142-3.357 7.5-7.5 7.5z"/><path d="m119.197 512c-4.143 0-7.5-3.358-7.5-7.5v-36.601c0-4.142 3.357-7.5 7.5-7.5s7.5 3.358 7.5 7.5v36.601c0 4.142-3.357 7.5-7.5 7.5z"/><path d="m392.803 512c-4.143 0-7.5-3.358-7.5-7.5v-36.601c0-4.142 3.357-7.5 7.5-7.5s7.5 3.358 7.5 7.5v36.601c0 4.142-3.358 7.5-7.5 7.5z"/><path d="m418.637 512c-4.143 0-7.5-3.358-7.5-7.5v-36.601c0-4.142 3.357-7.5 7.5-7.5s7.5 3.358 7.5 7.5v36.601c0 4.142-3.358 7.5-7.5 7.5z"/></g><path d="m133.793 144.404 21.03 4.894c2.351.547 4.212 2.336 4.855 4.662 2.203 7.979 5.372 15.556 9.371 22.601 1.193 2.102 1.145 4.685-.132 6.737l-7.028 11.292c3.984-1.14 8.172-1.746 12.47-1.746h163.282c4.299 0 8.487.606 12.47 1.746l-7.028-11.292c-1.277-2.052-1.326-4.635-.133-6.737 3.999-7.045 7.168-14.622 9.371-22.601.642-2.327 2.504-4.115 4.855-4.662l21.03-4.894c2.99-.696 5.105-3.36 5.105-6.43v-21.325c0-3.07-2.116-5.734-5.105-6.43l-21.03-4.894c-2.351-.547-4.212-2.336-4.855-4.662-2.203-7.979-5.372-15.556-9.371-22.601-1.193-2.102-1.145-4.685.133-6.737l11.416-18.341c1.622-2.606 1.234-5.986-.937-8.157l-15.079-15.079c-2.17-2.17-5.551-2.559-8.156-.937l-18.341 11.416c-2.052 1.277-4.635 1.326-6.737.133-7.045-3.999-14.622-7.168-22.601-9.371-2.327-.642-4.115-2.504-4.662-4.855l-4.894-21.03c-.696-2.99-3.36-5.105-6.43-5.105h-21.325c-3.07 0-5.734 2.116-6.43 5.105l-4.894 21.03c-.547 2.351-2.336 4.212-4.662 4.855-7.979 2.203-15.556 5.372-22.601 9.371-2.102 1.193-4.685 1.145-6.737-.132l-18.341-11.416c-2.606-1.622-5.986-1.234-8.156.937l-15.079 15.079c-2.17 2.17-2.559 5.551-.937 8.157l11.416 18.341c1.277 2.052 1.326 4.635.132 6.737-3.999 7.045-7.168 14.622-9.371 22.601-.642 2.327-2.504 4.115-4.855 4.662l-21.03 4.894c-2.99.696-5.105 3.36-5.105 6.43v21.325c.001 3.069 2.117 5.733 5.106 6.429z" fill="#dae4ea"/><path d="m231.028 192.843h49.944c26.39-10.062 45.138-35.608 45.138-65.532 0-38.721-31.389-70.11-70.11-70.11s-70.11 31.389-70.11 70.11c0 29.925 18.748 55.47 45.138 65.532z" fill="#c6d0da"/><path d="m403.045 302.752-21.803-76.947c-5.526-19.502-23.331-32.963-43.6-32.963h-163.283c-20.27 0-38.074 13.461-43.6 32.963l-21.803 76.947z" fill="#e28086"/><path d="m381.241 225.806c-5.526-19.502-23.331-32.963-43.6-32.963h-2.419c2.628 3.9 4.685 8.253 6.019 12.963l10.203 36.008c5.819 20.534-9.607 40.938-30.95 40.938h-205.871l-5.667 20h294.09z" fill="#dd636e"/><path d="m456.892 460.399h-401.784c-5.116 0-9.263-4.147-9.263-9.263v-25.224c0-5.116 4.147-9.263 9.263-9.263h401.785c5.116 0 9.263 4.147 9.263 9.263v25.224c0 5.116-4.148 9.263-9.264 9.263z" fill="#dae4ea"/><path d="m456.893 416.648h-30.737v14.488c0 5.116-4.147 9.263-9.263 9.263h-371.049v10.737c0 5.116 4.147 9.263 9.263 9.263h401.785c5.116 0 9.263-4.147 9.263-9.263v-25.224c.001-5.116-4.146-9.264-9.262-9.264z" fill="#c6d0da"/><path d="m458.923 285.286c0 9.646-7.82 17.466-17.466 17.466h-38.412v-16.526c0-10.166 8.241-18.407 18.407-18.407h20.005c9.646.001 17.466 7.821 17.466 17.467z" fill="#e28086"/><path d="m70.543 302.752h38.412v-16.526c0-10.166-8.241-18.407-18.407-18.407h-20.005c-9.646 0-17.466 7.82-17.466 17.466 0 9.648 7.82 17.467 17.466 17.467z" fill="#e28086"/><path d="m196.469 416.648h119.06v43.751h-119.06z" fill="#808b95"/><path d="m275.53 416.648v13.675c0 5.565-4.511 10.076-10.076 10.076h-68.984v20h119.06v-43.751z" fill="#5e6b75"/><path d="m371.359 302.752-19.895-70.211c-1.544-5.451-6.521-9.213-12.186-9.213h-166.556c-5.665 0-10.642 3.762-12.186 9.213l-19.895 70.211z" fill="#d5d8f1"/><path d="m346.938 225.908 4.507 15.906c5.819 20.534-9.607 40.938-30.95 40.938h-174.187l-5.667 20h230.718l-19.895-70.211c-.769-2.716-2.392-5.012-4.526-6.633z" fill="#bec3ea"/><path d="m406.474 302.752h-300.948c-24.753 0-45.173 19.382-46.462 44.102l-3.639 69.794h401.149l-3.639-69.794c-1.288-24.719-21.707-44.102-46.461-44.102z" fill="#e28086"/><path d="m452.936 346.855c-1.289-24.72-21.708-44.102-46.462-44.102h-1.786c4.79 6.889 7.781 15.141 8.248 24.102l.601 11.524c1.652 31.679-23.589 58.269-55.311 58.269h-301.758l-1.043 20h401.149z" fill="#dd636e"/><path d="m94.741 344.628v19.752c0 11.367 9.215 20.582 20.582 20.582h8.44v-43.94h-25.416c-1.991-.001-3.606 1.614-3.606 3.606z" fill="#eaaa89"/><path d="m173.469 381.355v-36.728c0-1.992-1.615-3.606-3.606-3.606h-46.1v43.94h46.1c1.992 0 3.606-1.614 3.606-3.606z" fill="#f6f9f9"/><path d="m417.259 344.628v19.752c0 11.367-9.215 20.582-20.582 20.582h-8.44v-43.94h25.415c1.992-.001 3.607 1.614 3.607 3.606z" fill="#eaaa89"/><path d="m392.26 384.961h4.418c11.367 0 20.582-9.215 20.582-20.582v-19.752c0-1.992-1.615-3.606-3.606-3.606h-.047c.091 17.776-8.257 33.726-21.347 43.94z" fill="#e4936b"/><path d="m338.53 381.355v-36.728c0-1.992 1.615-3.606 3.606-3.606h46.101v43.94h-46.101c-1.992 0-3.606-1.614-3.606-3.606z" fill="#f6f9f9"/><path d="m277.453 389.38h-42.906c-19.925 0-36.077-16.152-36.077-36.077v-11.504c0-1.992 1.615-3.606 3.606-3.606h107.848c1.992 0 3.606 1.615 3.606 3.606v11.504c0 19.924-16.152 36.077-36.077 36.077z" fill="#808b95"/><path d="m273.191 338.193c-2.388 17.61-17.473 31.187-35.738 31.187h-35.203c5.912 11.854 18.15 20 32.296 20h42.906c19.925 0 36.077-16.152 36.077-36.077v-11.504c0-1.992-1.615-3.606-3.606-3.606z" fill="#5e6b75"/><circle cx="256" cy="127.312" fill="#dae4ea" r="29.876"/><path d="m272.432 370.323h-32.863c-4.143 0-7.5-3.358-7.5-7.5s3.357-7.5 7.5-7.5h32.863c4.143 0 7.5 3.358 7.5 7.5s-3.358 7.5-7.5 7.5z" fill="#dae4ea"/><path d="m272.432 355.323h-6.418c-6.594 8.547-16.93 14.057-28.561 14.057h-1.522c1.078.599 2.317.943 3.637.943h32.863c4.143 0 7.5-3.358 7.5-7.5s-3.357-7.5-7.499-7.5z" fill="#c6d0da"/></svg>