<?xml version="1.0" encoding="iso-8859-1"?>
<!-- Generator: Adobe Illustrator 21.0.0, SVG Export Plug-In . SVG Version: 6.00 Build 0)  -->
<svg xmlns="http://www.w3.org/2000/svg" xmlns:xlink="http://www.w3.org/1999/xlink" version="1.1" id="Capa_1" x="0px" y="0px" viewBox="0 0 497.19 497.19" style="enable-background:new 0 0 497.19 497.19;" xml:space="preserve" width="512" height="512">
<g>
	<g>
		<path style="fill:#C88B38;" d="M371.995,119.73v202.291c0,2.123-0.368,4.23-1.089,6.227L309.975,497.19h-122.74l-60.963-169.996    c-0.713-1.988-1.077-4.084-1.077-6.196V119.73H371.995z"/>
	</g>
	<path style="fill:#BC7B2E;" d="M217.954,320.999V119.73h-92.759v201.269c0,2.112,0.364,4.208,1.077,6.196l60.963,169.996h92.759   l-60.963-169.996C218.319,325.206,217.954,323.11,217.954,320.999z"/>
	<g id="XMLID_24_">
		<g>
			<path style="fill:#FAA834;" d="M332.015,7.13l39.98,112.6l-62.04,285.78h-122.72l-62.04-285.78l39.98-112.6     c1.52-4.27,5.56-7.13,10.09-7.13h146.66C326.455,0,330.495,2.86,332.015,7.13z"/>
		</g>
	</g>
	<path style="fill:#F49625;" d="M229.275,7.13c1.52-4.27,5.56-7.13,10.09-7.13h-64.1c-4.53,0-8.57,2.86-10.09,7.13l-39.98,112.6   l62.04,285.78h64.1l-62.04-285.78L229.275,7.13z"/>
	<g id="XMLID_25_">
		<g>
			<path style="fill:#C49A6C;" d="M312.979,28.25l32.61,91.829c0.304,0.857,0.363,1.782,0.17,2.671L290.64,376.661     c-0.488,2.246-2.475,3.849-4.774,3.849h-74.544c-2.299,0-4.286-1.602-4.774-3.849L151.43,122.75     c-0.193-0.889-0.134-1.814,0.17-2.671l32.61-91.829c0.692-1.948,2.536-3.25,4.603-3.25h119.562     C310.444,25,312.287,26.302,312.979,28.25z"/>
		</g>
	</g>
	<path style="fill:#BA8E61;" d="M242.466,376.661L187.346,122.75c-0.193-0.889-0.134-1.814,0.17-2.671l32.61-91.829   c0.692-1.948,2.536-3.25,4.603-3.25h-35.916c-2.068,0-3.911,1.302-4.603,3.25l-32.61,91.829c-0.304,0.857-0.364,1.782-0.17,2.671   l55.119,253.912c0.488,2.246,2.475,3.849,4.774,3.849h35.916C244.941,380.51,242.953,378.908,242.466,376.661z"/>
	<g id="XMLID_28_">
		<g>
			<rect x="187.235" y="405.51" style="fill:#AC7233;" width="122.74" height="91.68"/>
		</g>
	</g>
	<path style="fill:#A56628;" d="M216.137,405.51L216.137,405.51l-28.902,0v91.68h122.74v-28.902h-31.06   C244.244,468.288,216.137,440.181,216.137,405.51z"/>
	<g id="XMLID_26_">
		<g>
			<path style="fill:#FECC63;" d="M312.695,111.77v24.71c0,0.96-0.77,1.73-1.72,1.73h-46.57c-0.95,0-1.73,0.77-1.73,1.72v203.56     c0,0.95-0.77,1.73-1.72,1.73h-24.72c-0.95,0-1.72-0.78-1.72-1.73V139.93c0-0.95-0.78-1.72-1.73-1.72h-46.57     c-0.95,0-1.72-0.77-1.72-1.73v-24.71c0-0.96,0.77-1.73,1.72-1.73h46.57c0.95,0,1.73-0.77,1.73-1.73V59.98     c0-0.95,0.77-1.72,1.72-1.72h24.72c0.95,0,1.72,0.77,1.72,1.72v48.33c0,0.96,0.78,1.73,1.73,1.73h46.57     C311.925,110.04,312.695,110.81,312.695,111.77z"/>
		</g>
	</g>
</g>















</svg>
