<svg id="Capa_1" enable-background="new 0 0 512 512" height="512" viewBox="0 0 512 512" width="512" xmlns="http://www.w3.org/2000/svg"><g><path d="m30 392h31l6-30h-37v-31h43.001l2.999-15v-15h-46v-30h46v-30h-76v271h61l9.999-30h-40.999v-30h46v-30h-46z" fill="#607882"/><path d="m271 392v120h-60v-45c0-24.901-20.099-45-45-45s-45 20.099-45 45v45h-60v-120l15-30h165z" fill="#ffda2d"/><g><g><g><g><path d="m512 512h-48.428c-53.291 0-101.737-35.786-116.386-87.041l-28.389-70.683c-4.189-14.326-16.039-23.276-29.369-23.276h-48.428v-90h48.428c53.291 0 100.737 35.786 115.386 87.041l28.389 70.683c4.189 14.326 17.04 23.276 30.37 23.276 26.703 0 48.427 21.724 48.427 48.428z" fill="#59c36a"/></g></g></g></g><path d="m61 121v271h210v-271zm150 210h-90v-105c0-24.901 20.099-45 45-45s45 20.099 45 45z" fill="#ff8856"/><path d="m241 362 30 30v120h-60v-45c0-24.901-20.099-45-45-45v-60z" fill="#fdbf00"/><path d="m271 121v271h-105v-61h45v-105c0-24.901-20.099-45-45-45v-60z" fill="#ff5b5b"/><g><g><path d="m166 0-139.2 151h278.4z" fill="#ffda2d"/></g></g><path d="m305.2 151h-139.2v-151z" fill="#fdbf00"/></g></svg>