<?xml version="1.0" encoding="iso-8859-1"?>
<!-- Generator: Adobe Illustrator 19.0.0, SVG Export Plug-In . SVG Version: 6.00 Build 0)  -->
<svg version="1.1" id="Layer_1" xmlns="http://www.w3.org/2000/svg" xmlns:xlink="http://www.w3.org/1999/xlink" x="0px" y="0px"
	 viewBox="0 0 512 512" style="enable-background:new 0 0 512 512;" xml:space="preserve">
<polyline style="fill:#BAB0A8;" points="308.661,417.246 308.661,453.521 206.807,453.521 206.807,417.246 "/>
<path style="fill:#D6CCC5;" d="M206.807,475.146c0,5.595,4.537,10.13,10.13,10.13h81.592c5.594,0,10.13-4.535,10.13-10.13V453.52
	H206.806v21.626H206.807z"/>
<path style="fill:#C9C2BD;" d="M262.217,485.277c-5.593,0-10.13-4.535-10.13-10.13v-21.626h-45.279v21.626
	c0,5.595,4.537,10.13,10.13,10.13h21.403H262.217z"/>
<path style="fill:#ADA199;" d="M206.807,421.75v31.771h45.279V421.75c-3.509-0.087-6.595-1.846-8.511-4.505h-36.767v4.505H206.807z"
	/>
<path style="fill:#FE9900;" d="M161.279,326.263c0.668,0.796,1.346,1.582,2.033,2.361c0.018,0.021,0.037,0.04,0.054,0.06
	c0.68,0.771,1.37,1.532,2.07,2.285c0.02,0.023,0.041,0.044,0.061,0.068c0.698,0.75,1.406,1.494,2.122,2.227
	c0.022,0.023,0.042,0.043,0.063,0.065c0.721,0.737,1.45,1.464,2.187,2.184c0.016,0.015,0.031,0.029,0.047,0.045
	c0.746,0.727,1.502,1.444,2.266,2.153c0.004,0.003,0.008,0.008,0.012,0.012c0.105,0.101,27.854,26.887,32.765,63.219h4.25h9.765
	h4.87h45.676h14.634h9.471h14.634h2.251c4.911-36.332,32.659-63.118,32.764-63.219c0.003-0.004,0.009-0.009,0.012-0.012
	c0.765-0.708,1.521-1.426,2.268-2.153c0.015-0.016,0.029-0.03,0.045-0.045c0.738-0.72,1.468-1.448,2.187-2.184
	c0.022-0.022,0.042-0.043,0.064-0.065c0.716-0.734,1.423-1.477,2.122-2.227c0.022-0.023,0.04-0.045,0.063-0.068
	c0.698-0.753,1.388-1.514,2.069-2.285c0.019-0.019,0.037-0.04,0.055-0.06c0.687-0.779,1.367-1.565,2.034-2.361
	c0.009-0.011,0.017-0.019,0.024-0.029c6.795-8.096,12.591-17.058,17.195-26.699c0.017-0.033,0.031-0.068,0.047-0.1
	c0.432-0.909,0.854-1.822,1.267-2.741c0.064-0.144,0.124-0.289,0.188-0.43c0.36-0.813,0.714-1.628,1.055-2.448
	c0.092-0.216,0.177-0.435,0.267-0.653c0.306-0.749,0.609-1.501,0.905-2.258c0.106-0.272,0.205-0.546,0.31-0.819
	c0.269-0.706,0.534-1.416,0.79-2.13c0.113-0.312,0.221-0.625,0.33-0.939c0.239-0.681,0.474-1.362,0.701-2.047
	c0.114-0.342,0.225-0.687,0.335-1.028c0.21-0.661,0.421-1.324,0.622-1.989c0.112-0.37,0.22-0.739,0.33-1.109
	c0.19-0.646,0.375-1.29,0.553-1.939c0.109-0.392,0.213-0.785,0.319-1.179c0.167-0.632,0.331-1.265,0.488-1.902
	c0.103-0.411,0.204-0.822,0.301-1.234c0.15-0.626,0.291-1.254,0.431-1.882c0.094-0.426,0.188-0.849,0.277-1.275
	c0.132-0.622,0.255-1.247,0.378-1.871c0.083-0.437,0.168-0.874,0.25-1.313c0.113-0.62,0.221-1.242,0.324-1.864
	c0.075-0.447,0.152-0.894,0.223-1.342c0.097-0.622,0.186-1.246,0.275-1.871c0.065-0.451,0.13-0.902,0.191-1.356
	c0.082-0.628,0.153-1.261,0.227-1.894c0.051-0.452,0.108-0.902,0.154-1.356c0.068-0.641,0.122-1.286,0.181-1.929
	c0.04-0.449,0.084-0.895,0.117-1.345c0.053-0.668,0.093-1.34,0.136-2.012c0.026-0.427,0.058-0.852,0.081-1.279
	c0.038-0.742,0.063-1.486,0.088-2.231c0.012-0.361,0.031-0.72,0.042-1.082c0.027-1.107,0.044-2.219,0.044-3.334
	c0-8.692-0.882-17.178-2.56-25.374c-0.627-3.074-1.369-6.106-2.217-9.094c-0.566-1.992-1.179-3.963-1.838-5.912
	c-16.829-49.728-63.881-85.523-119.289-85.523c-55.41,0-102.461,35.795-119.288,85.523c-0.66,1.95-1.274,3.921-1.839,5.912
	c-0.848,2.987-1.59,6.02-2.218,9.094c-1.677,8.196-2.558,16.683-2.558,25.374c0,1.115,0.015,2.226,0.044,3.334
	c0.01,0.362,0.028,0.721,0.041,1.082c0.026,0.745,0.05,1.491,0.089,2.231c0.023,0.427,0.054,0.853,0.082,1.279
	c0.041,0.673,0.082,1.344,0.134,2.012c0.036,0.451,0.08,0.896,0.119,1.345c0.057,0.643,0.113,1.288,0.181,1.929
	c0.047,0.454,0.102,0.904,0.155,1.356c0.073,0.633,0.146,1.265,0.227,1.894c0.059,0.454,0.126,0.905,0.19,1.356
	c0.089,0.625,0.178,1.249,0.275,1.871c0.071,0.448,0.148,0.895,0.223,1.342c0.105,0.621,0.21,1.243,0.323,1.864
	c0.081,0.439,0.167,0.876,0.252,1.313c0.122,0.624,0.246,1.249,0.377,1.871c0.089,0.426,0.182,0.849,0.277,1.275
	c0.139,0.628,0.282,1.256,0.431,1.882c0.098,0.412,0.199,0.824,0.301,1.234c0.158,0.637,0.32,1.271,0.489,1.902
	c0.103,0.393,0.21,0.786,0.318,1.179c0.179,0.649,0.363,1.293,0.553,1.939c0.109,0.371,0.219,0.741,0.331,1.109
	c0.202,0.665,0.41,1.327,0.622,1.989c0.111,0.342,0.221,0.687,0.334,1.028c0.226,0.686,0.461,1.367,0.7,2.047
	c0.11,0.314,0.219,0.627,0.331,0.939c0.257,0.714,0.522,1.423,0.79,2.13c0.105,0.273,0.206,0.548,0.312,0.819
	c0.293,0.757,0.596,1.508,0.905,2.258c0.089,0.218,0.177,0.438,0.267,0.653c0.342,0.821,0.695,1.636,1.054,2.448
	c0.064,0.142,0.124,0.287,0.189,0.43c0.411,0.919,0.833,1.832,1.265,2.741c0.017,0.032,0.031,0.066,0.047,0.1
	c4.604,9.641,10.4,18.603,17.195,26.699C161.263,326.244,161.272,326.254,161.279,326.263z"/>
<path style="fill:#EF7A06;" d="M249.518,400.098c0-36.55-32.66-70.057-32.765-70.158c-0.004-0.004-0.008-0.009-0.012-0.012
	c-0.764-0.708-1.52-1.426-2.266-2.153c-0.015-0.016-0.031-0.03-0.046-0.045c-0.738-0.72-1.467-1.448-2.187-2.184
	c-0.02-0.022-0.041-0.043-0.063-0.066c-0.717-0.734-1.424-1.477-2.122-2.227c-0.022-0.023-0.041-0.045-0.061-0.068
	c-0.7-0.753-1.389-1.514-2.07-2.285c-0.017-0.019-0.036-0.04-0.054-0.06c-0.687-0.779-1.365-1.565-2.033-2.361
	c-0.009-0.011-0.016-0.019-0.025-0.029c-6.794-8.096-12.591-17.058-17.195-26.699c-0.016-0.033-0.03-0.068-0.047-0.1
	c-0.432-0.909-0.855-1.822-1.265-2.741c-0.065-0.144-0.125-0.289-0.189-0.43c-0.359-0.813-0.712-1.628-1.054-2.448
	c-0.092-0.216-0.179-0.435-0.267-0.653c-0.309-0.749-0.611-1.502-0.905-2.258c-0.107-0.272-0.207-0.546-0.312-0.819
	c-0.268-0.706-0.535-1.416-0.79-2.13c-0.112-0.311-0.221-0.625-0.331-0.939c-0.239-0.681-0.473-1.362-0.7-2.047
	c-0.114-0.342-0.224-0.687-0.334-1.028c-0.212-0.661-0.421-1.324-0.622-1.989c-0.112-0.37-0.222-0.739-0.331-1.109
	c-0.189-0.646-0.374-1.29-0.553-1.939c-0.108-0.392-0.215-0.786-0.318-1.179c-0.169-0.632-0.331-1.265-0.489-1.902
	c-0.102-0.411-0.204-0.822-0.301-1.234c-0.149-0.626-0.292-1.254-0.431-1.882c-0.094-0.426-0.188-0.849-0.277-1.275
	c-0.132-0.622-0.255-1.247-0.377-1.871c-0.085-0.437-0.171-0.874-0.252-1.313c-0.113-0.62-0.219-1.242-0.323-1.864
	c-0.075-0.447-0.152-0.894-0.223-1.342c-0.097-0.622-0.186-1.246-0.275-1.871c-0.064-0.451-0.13-0.902-0.19-1.356
	c-0.082-0.628-0.154-1.261-0.227-1.894c-0.052-0.452-0.108-0.902-0.155-1.356c-0.067-0.641-0.123-1.286-0.18-1.929
	c-0.039-0.449-0.084-0.895-0.119-1.345c-0.052-0.668-0.092-1.34-0.134-2.012c-0.027-0.427-0.059-0.852-0.082-1.279
	c-0.04-0.742-0.064-1.486-0.089-2.231c-0.013-0.361-0.031-0.72-0.041-1.082c-0.029-1.107-0.044-2.219-0.044-3.334
	c0-8.692,0.881-17.178,2.558-25.374c0.628-3.074,1.37-6.106,2.218-9.094c0.565-1.992,1.179-3.963,1.839-5.912
	c12.161-35.938,40.113-64.59,75.593-77.723c-0.289-0.001-0.575-0.017-0.863-0.017c-55.41,0-102.461,35.795-119.288,85.523
	c-0.66,1.95-1.274,3.921-1.839,5.912c-0.848,2.987-1.59,6.02-2.218,9.094c-1.677,8.196-2.558,16.683-2.558,25.374
	c0,1.115,0.015,2.226,0.044,3.334c0.01,0.362,0.028,0.721,0.041,1.082c0.026,0.745,0.05,1.491,0.089,2.231
	c0.023,0.427,0.054,0.853,0.082,1.279c0.041,0.673,0.082,1.344,0.134,2.012c0.036,0.451,0.08,0.896,0.119,1.345
	c0.057,0.644,0.113,1.288,0.181,1.929c0.047,0.454,0.102,0.904,0.155,1.356c0.073,0.633,0.146,1.265,0.227,1.894
	c0.059,0.454,0.126,0.905,0.19,1.356c0.089,0.625,0.178,1.249,0.275,1.871c0.071,0.448,0.148,0.895,0.223,1.342
	c0.105,0.621,0.21,1.243,0.323,1.864c0.081,0.439,0.167,0.876,0.252,1.313c0.122,0.624,0.246,1.249,0.377,1.871
	c0.089,0.426,0.182,0.849,0.277,1.275c0.139,0.628,0.282,1.256,0.431,1.882c0.098,0.412,0.199,0.824,0.301,1.234
	c0.158,0.637,0.32,1.271,0.489,1.903c0.103,0.393,0.21,0.786,0.318,1.179c0.179,0.649,0.363,1.293,0.553,1.939
	c0.109,0.371,0.219,0.741,0.331,1.109c0.202,0.665,0.41,1.327,0.622,1.989c0.111,0.342,0.221,0.687,0.334,1.028
	c0.226,0.686,0.461,1.367,0.7,2.047c0.11,0.314,0.219,0.627,0.331,0.939c0.257,0.714,0.522,1.423,0.79,2.13
	c0.105,0.273,0.206,0.548,0.312,0.819c0.293,0.757,0.596,1.508,0.905,2.258c0.089,0.218,0.177,0.438,0.267,0.653
	c0.342,0.821,0.695,1.636,1.054,2.448c0.064,0.142,0.124,0.287,0.189,0.43c0.411,0.919,0.833,1.832,1.265,2.741
	c0.017,0.032,0.031,0.066,0.047,0.1c4.604,9.641,10.4,18.603,17.195,26.7c0.009,0.01,0.017,0.019,0.025,0.029
	c0.668,0.795,1.346,1.582,2.033,2.361c0.018,0.02,0.037,0.04,0.054,0.06c0.68,0.771,1.37,1.532,2.07,2.285
	c0.02,0.023,0.041,0.044,0.061,0.068c0.698,0.75,1.406,1.494,2.122,2.227c0.022,0.023,0.042,0.043,0.063,0.065
	c0.721,0.737,1.45,1.464,2.187,2.184c0.016,0.015,0.031,0.029,0.047,0.045c0.746,0.727,1.502,1.444,2.266,2.153
	c0.004,0.003,0.008,0.008,0.012,0.012c0.105,0.101,27.854,26.887,32.765,63.219h4.25h9.765h4.87h26.601L249.518,400.098z"/>
<g>
	<path style="fill:#8C552C;" d="M280.273,411.125c-3.496,0-6.332-2.835-6.332-6.332v-130.76c0-11.923,9.699-21.622,21.622-21.622
		c11.925,0,21.623,9.699,21.623,21.622c0,9.3-5.92,17.537-14.731,20.499c-3.312,1.116-6.904-0.669-8.018-3.985
		c-1.113-3.315,0.672-6.904,3.985-8.018c3.65-1.226,6.101-4.639,6.101-8.495c0-4.94-4.019-8.958-8.961-8.958
		c-4.939,0-8.958,4.017-8.958,8.958v130.759C286.604,408.29,283.768,411.125,280.273,411.125z"/>
	<path style="fill:#8C552C;" d="M235.196,411.125c-3.497,0-6.332-2.835-6.332-6.332v-130.76c0-4.94-4.018-8.958-8.958-8.958
		c-4.94,0-8.958,4.017-8.958,8.958c0,3.925,2.508,7.357,6.242,8.541c3.334,1.057,5.178,4.617,4.12,7.951
		c-1.057,3.333-4.617,5.181-7.949,4.119c-9.018-2.86-15.075-11.143-15.075-20.61c0-11.923,9.7-21.622,21.622-21.622
		c11.923,0,21.623,9.699,21.623,21.622v130.76C241.528,408.29,238.693,411.125,235.196,411.125z"/>
	<path style="fill:#8C552C;" d="M261.32,295.694h-7.17c-3.497,0-6.332-2.834-6.332-6.332c0-3.497,2.835-6.332,6.332-6.332h7.17
		c3.497,0,6.33,2.835,6.33,6.332C267.65,292.86,264.817,295.694,261.32,295.694z"/>
</g>
<path style="fill:#485360;" d="M308.391,400.098h-39.214H265.8h-1.493h-3.377h-6.39h-3.376h-1.492h-3.377h-2.453h-14.634h-9.471
	h-3.377h-9.281c-5.983,0-10.832,4.849-10.832,10.833s4.849,10.833,10.832,10.833h9.281h3.377h9.471h14.634h2.453h3.377h1.492h3.376
	h6.39h3.377h1.493h2.628h0.748h21.483h17.731c5.982,0,10.832-4.849,10.832-10.833C319.222,404.948,314.373,400.098,308.391,400.098z
	"/>
<path style="fill:#3C4956;" d="M196.366,412.441c0.03,0.219,0.056,0.44,0.1,0.654c0.036,0.174,0.086,0.342,0.129,0.513
	c0.044,0.171,0.081,0.346,0.133,0.515c0.06,0.198,0.137,0.388,0.209,0.582c0.05,0.133,0.093,0.269,0.147,0.401
	c0.089,0.215,0.195,0.423,0.299,0.63c0.05,0.101,0.094,0.206,0.147,0.305c0.123,0.229,0.26,0.447,0.398,0.665
	c0.044,0.07,0.084,0.146,0.13,0.215c0.156,0.235,0.327,0.461,0.501,0.683c0.036,0.045,0.068,0.094,0.105,0.139
	c0.194,0.239,0.4,0.468,0.613,0.689c0.022,0.024,0.041,0.049,0.064,0.07c0.231,0.236,0.472,0.46,0.723,0.673
	c0.008,0.006,0.014,0.014,0.022,0.019c1.822,1.541,4.161,2.491,6.72,2.557c0.093,0.002,0.183,0.014,0.277,0.014h9.281h3.377h9.471
	h14.634h2.453h3.377h1.492h0.922v-0.014c-5.856-0.147-10.559-4.928-10.559-10.819c0-5.983,4.849-10.833,10.832-10.833h-1.195h-1.492
	h-3.377h-2.453h-14.634h-9.471h-3.377h-9.281c-5.983,0-10.832,4.849-10.832,10.833c0,0.371,0.019,0.737,0.055,1.098
	C196.318,412.17,196.346,412.304,196.366,412.441z"/>
<g>
	<path style="fill:#FE9900;" d="M58.746,269.986H8.084c-4.465,0-8.084-3.618-8.084-8.084c0-4.466,3.62-8.084,8.084-8.084h50.662
		c4.465,0,8.084,3.618,8.084,8.084S63.211,269.986,58.746,269.986z"/>
	<path style="fill:#FE9900;" d="M503.916,269.986h-50.661c-4.466,0-8.084-3.618-8.084-8.084c0-4.466,3.618-8.084,8.084-8.084h50.661
		c4.466,0,8.084,3.618,8.084,8.084S508.382,269.986,503.916,269.986z"/>
	<path style="fill:#FE9900;" d="M80.697,445.29c-2.068,0-4.138-0.789-5.716-2.367c-3.157-3.158-3.157-8.276,0-11.433l35.824-35.823
		c3.157-3.156,8.276-3.156,11.432,0c3.157,3.158,3.157,8.276,0,11.433l-35.824,35.823C84.835,444.501,82.766,445.29,80.697,445.29z"
		/>
	<path style="fill:#FE9900;" d="M395.48,130.507c-2.07,0-4.138-0.789-5.716-2.367c-3.158-3.158-3.158-8.276,0-11.434l35.823-35.824
		c3.157-3.156,8.276-3.156,11.431,0c3.158,3.158,3.158,8.276,0.001,11.433l-35.824,35.824
		C399.618,129.717,397.55,130.507,395.48,130.507z"/>
	<path style="fill:#FE9900;" d="M255.999,72.733c-4.464,0-8.083-3.618-8.083-8.084V13.986c0-4.465,3.618-8.084,8.083-8.084
		c4.466,0,8.084,3.619,8.084,8.084v50.663C264.084,69.114,260.465,72.733,255.999,72.733z"/>
	<path style="fill:#FE9900;" d="M431.303,445.29c-2.07,0-4.137-0.789-5.716-2.367L389.764,407.1c-3.157-3.158-3.157-8.276,0-11.433
		c3.158-3.156,8.276-3.156,11.434,0l35.821,35.823c3.158,3.158,3.158,8.276,0,11.433C435.442,444.501,433.373,445.29,431.303,445.29
		z"/>
	<path style="fill:#FE9900;" d="M116.522,130.507c-2.068,0-4.138-0.789-5.716-2.367L74.981,92.316
		c-3.157-3.157-3.157-8.276,0-11.432c3.157-3.158,8.275-3.157,11.432-0.001l35.825,35.823c3.157,3.157,3.157,8.276,0,11.433
		C120.66,129.717,118.591,130.507,116.522,130.507z"/>
</g>
<path style="fill:#3C4956;" d="M283.765,495.266c0-5.983-4.849-10.834-10.832-10.834h-8.267h-9.47h-3.377h-9.28
	c-5.983,0-10.833,4.851-10.833,10.834c0,5.982,4.849,10.833,10.833,10.833h9.28h3.377h9.47h8.267
	C278.916,506.099,283.765,501.248,283.765,495.266z"/>
<g>
</g>
<g>
</g>
<g>
</g>
<g>
</g>
<g>
</g>
<g>
</g>
<g>
</g>
<g>
</g>
<g>
</g>
<g>
</g>
<g>
</g>
<g>
</g>
<g>
</g>
<g>
</g>
<g>
</g>
</svg>
