<svg height="512pt" viewBox="-7 0 512 512" width="512pt" xmlns="http://www.w3.org/2000/svg"><path d="m360.351562 65.285156v-14.15625c0-12.351562-10.015624-22.367187-22.367187-22.367187s-22.367187 10.015625-22.367187 22.367187v-22.363281c0-12.355469-10.011719-22.367187-22.363282-22.367187-12.355468 0-22.367187 10.011718-22.367187 22.367187v-6.398437c0-12.355469-10.015625-22.367188-22.367188-22.367188-12.351562 0-22.363281 10.011719-22.363281 22.367188v8.070312c0-12.351562-10.015625-22.363281-22.367188-22.363281-12.351562 0-22.367187 10.011719-22.367187 22.363281v56.546875h-22.363281c-12.355469 0-22.367188 10.011719-22.367188 22.367187v32.757813c0 28.03125 10.3125 53.652344 27.355469 73.28125 6.640625 7.648437 10.132813 17.539063 10.132813 27.675781v15.539063c.457031-.0625.917968-.105469 1.394531-.105469h145.890625c.472656 0 .933594.042969 1.390625.105469v-15.539063c0-10.136718 3.496093-20.027344 10.136719-27.675781 17.039062-19.628906 27.355468-45.25 27.355468-73.28125zm0 0" fill="#ffcdbe"/><path d="m315.617188 28.789062v54.613282c0 12.351562-10.011719 22.367187-22.363282 22.367187-12.355468 0-22.367187-10.011719-22.367187-22.367187v-54.613282c0-12.351562 10.011719-22.367187 22.367187-22.367187 12.351563 0 22.363282 10.015625 22.363282 22.367187zm0 0" fill="#ffcdbe"/><path d="m360.351562 51.121094v44.398437c0 12.351563-10.015624 22.363281-22.367187 22.363281s-22.367187-10.011718-22.367187-22.363281v-44.398437c0-12.351563 10.015624-22.367188 22.367187-22.367188s22.367187 10.015625 22.367187 22.367188zm0 0" fill="#ffcdbe"/><path d="m469.503906 14.222656 22.710938 23.789063c3.070312 3.214843 4.785156 7.492187 4.785156 11.9375v99.066406c0 4.449219-1.714844 8.726563-4.785156 11.941406l-22.710938 23.789063c-3.265625 3.417968-7.78125 5.351562-12.507812 5.351562h-64.234375c-5.105469 0-9.242188-4.140625-9.242188-9.242187v-162.742188c0-5.101562 4.136719-9.242187 9.242188-9.242187h64.234375c4.722656 0 9.242187 1.933594 12.507812 5.351562zm0 0" fill="#4cacba"/><path d="m492.214844 38.011719-22.714844-23.789063c-3.261719-3.417968-7.78125-5.351562-12.503906-5.351562h-13.507813c8.671875 9.082031 13.511719 21.160156 13.511719 33.71875v70.519531c0 14.660156-5.648438 28.753906-15.769531 39.355469-10.753907 11.261718-25.644531 17.632812-41.21875 17.632812h-16.492188v10.757813c0 5.105469 4.136719 9.242187 9.242188 9.242187h64.234375c4.726562 0 9.242187-1.933594 12.507812-5.351562l22.714844-23.785156c3.070312-3.21875 4.785156-7.496094 4.785156-11.941407v-99.066406c-.003906-4.449219-1.71875-8.726563-4.789062-11.941406zm0 0" fill="#36818b"/><path d="m477.0625 176.828125-7.558594 7.917969c-1.476562 1.546875-3.21875 2.769531-5.109375 3.664062v-177.851562c1.890625.894531 3.632813 2.117187 5.109375 3.664062l22.710938 23.789063c3.070312 3.214843 4.785156 7.492187 4.785156 11.9375v99.070312c0 4.445313-1.710938 8.722657-4.78125 11.9375zm0 0" fill="#23535a"/><path d="m27.496094 14.222656-22.710938 23.789063c-3.070312 3.214843-4.785156 7.492187-4.785156 11.941406v99.066406c0 4.445313 1.714844 8.722657 4.785156 11.9375l22.714844 23.789063c3.261719 3.417968 7.78125 5.351562 12.503906 5.351562h64.238282c5.101562 0 9.242187-4.136718 9.242187-9.242187v-162.742188c0-5.101562-4.140625-9.242187-9.242187-9.242187h-64.238282c-4.722656 0-9.242187 1.933594-12.507812 5.351562zm0 0" fill="#4cacba"/><path d="m104.238281 8.871094h-30.757812v101.257812c0 33.117188-26.847657 59.96875-59.96875 59.96875l13.984375 14.648438c3.265625 3.417968 7.78125 5.351562 12.507812 5.351562h64.234375c5.105469 0 9.242188-4.136718 9.242188-9.242187v-162.742188c0-5.101562-4.136719-9.242187-9.242188-9.242187zm0 0" fill="#36818b"/><path d="m19.9375 176.828125 7.5625 7.917969c1.472656 1.546875 3.214844 2.769531 5.105469 3.664062v-177.851562c-1.890625.894531-3.632813 2.117187-5.105469 3.664062l-22.714844 23.789063c-3.070312 3.214843-4.785156 7.492187-4.785156 11.941406v99.066406c0 4.445313 1.714844 8.722657 4.785156 11.9375zm0 0" fill="#2c6a73"/><path d="m32.605469 166.972656c-6 2.015625-12.414063 3.125-19.09375 3.125 15.414062 16.144532 14.246093 14.96875 15.183593 15.78125.289063.25 1.140626.898438 1.238282.96875 1.015625.71875 2.179687 1.355469 2.671875 1.566406zm0 0" fill="#23535a"/><path d="m226.066406 86.984375c.054688-.636719.089844-1.28125.089844-1.929687v-54.617188c0-12.351562-10.015625-22.367188-22.367188-22.367188-12.351562 0-22.367187 10.015626-22.367187 22.367188v54.617188c0 .648437.035156 1.292968.089844 1.929687zm0 0" fill="#ffcdbe"/><path d="m248.519531 0c-12.351562 0-22.363281 10.011719-22.363281 22.367188v54.613281c0 3.597656.851562 6.992187 2.363281 10.003906h6.152344c8.453125 0 15.808594 4.6875 19.609375 11.609375 9.5625-2.542969 16.605469-11.253906 16.605469-21.613281v-54.613281c0-12.355469-10.015625-22.367188-22.367188-22.367188zm0 0" fill="#ffcdbe"/><g fill="#faa68e"><path d="m293.253906 6.421875c-.449218 0-.894531.015625-1.339844.042969 2.339844 3.535156 3.703126 7.769531 3.703126 12.320312v54.617188c0 11.902344-9.296876 21.628906-21.027344 22.324218 4.003906 6.046876 10.863281 10.042969 18.664062 10.042969 12.351563 0 22.363282-10.015625 22.363282-22.367187v-54.613282c0-12.351562-10.011719-22.367187-22.363282-22.367187zm0 0"/><path d="m337.984375 28.753906c-.449219 0-.894531.019532-1.335937.042969 2.335937 3.535156 3.703124 7.769531 3.703124 12.324219v44.398437c0 11.902344-9.300781 21.628907-21.03125 22.320313 4.003907 6.050781 10.867188 10.042968 18.664063 10.042968 12.351563 0 22.367187-10.011718 22.367187-22.363281v-44.398437c0-12.351563-10.015624-22.367188-22.367187-22.367188zm0 0"/><path d="m203.789062 8.074219c-.449218 0-.894531.015625-1.335937.042969 2.335937 3.53125 3.703125 7.765624 3.703125 12.320312 0 0-.011719 18.625-.03125 34.496094-.015625 12.1875-9.898438 22.050781-22.082031 22.050781h-2.617188v8.070313c0 .648437.035157 1.292968.085938 1.929687h44.554687c.054688-.636719.089844-1.28125.089844-1.929687v-54.617188c0-12.351562-10.015625-22.363281-22.367188-22.363281zm0 0"/><path d="m248.519531 0c-.449219 0-.890625.015625-1.335937.0429688 2.339844 3.5351562 3.703125 7.7695312 3.703125 12.3242192v54.613281c0 8.964843-5.28125 16.6875-12.898438 20.253906 7.035157 1.046875 13 5.363281 16.292969 11.359375 9.5625-2.542969 16.605469-11.253906 16.605469-21.613281v-54.613281c0-12.355469-10.015625-22.367188-22.367188-22.367188zm0 0"/></g><path d="m376.175781 66.25c-5.273437-.34375-10.550781-.664062-15.824219-.964844v30.234375c0 12.351563-10.015624 22.363281-22.367187 22.363281s-22.367187-10.011718-22.367187-22.363281v-12.117187c0 12.351562-10.011719 22.367187-22.363282 22.367187-12.355468 0-22.367187-10.015625-22.367187-22.367187v-6.421875c0 10.359375-7.046875 19.070312-16.605469 21.613281v-.003906c1.753906 3.191406 2.753906 6.859375 2.753906 10.757812 0 12.351563-10.011718 22.367188-22.363281 22.367188h-49.789063c5.855469 0 11.316407 1.679687 15.9375 4.570312 58.464844 1.417969 116.972657.230469 175.355469-3.566406l7.339844-.480469v-65.507812zm0 0" fill="#badfe4"/><path d="m376.175781 66.25c-5.273437-.34375-10.550781-.664062-15.824219-.964844v30.234375c0 12.351563-10.015624 22.363281-22.367187 22.363281-5.019531 0-9.65625-1.652343-13.386719-4.445312-22.875 1.351562-45.765625 2.296875-68.664062 2.851562-2.917969 8.953126-11.332032 15.425782-21.261719 15.425782h-49.789063c5.855469 0 11.316407 1.679687 15.941407 4.574218 58.460937 1.414063 116.96875.226563 175.351562-3.570312l7.34375-.476562v-65.511719zm0 0" fill="#95ced6"/><path d="m181.425781 63.257812c-20.210937.6875-40.414062 1.679688-60.601562 2.992188l-7.34375.480469v65.511719l7.34375.476562c5.289062.34375 10.578125.664062 15.867187.964844v-24.332032c0-12.355468 10.015625-22.367187 22.367188-22.367187h22.453125c-.054688-.636719-.085938-1.28125-.085938-1.929687zm0 0" fill="#badfe4"/><path d="m136.691406 113.683594c-5.289062-.300782-10.578125-.621094-15.867187-.964844l-7.34375-.480469v20l7.34375.480469c5.289062.34375 10.578125.664062 15.867187.964844zm0 0" fill="#95ced6"/><path d="m319.542969 135.570312c-2.726563 22.710938-12.25 43.328126-26.488281 59.75-6.65625 7.683594-10.195313 17.578126-10.195313 27.746094 0 8.566406-6.949219 15.511719-15.519531 15.5-30.085938-.039062-93.402344-.066406-93.402344-.066406.15625 1.511719.246094 3.035156.246094 4.5625v15.542969c.457031-.0625.917968-.105469 1.390625-.105469h145.890625c.476562 0 .9375.042969 1.394531.105469v-15.542969c0-10.367188 3.832031-20.320312 10.578125-28.1875 16.777344-19.558594 26.914062-44.980469 26.914062-72.769531v-8.429688c-13.597656.773438-27.203124 1.402344-40.808593 1.894531zm0 0" fill="#faa68e"/><path d="m321.464844 377.90625h-145.890625c-.472657 0-.933594-.042969-1.390625-.105469l.003906 131.261719c0 1.621094 1.316406 2.9375 2.9375 2.9375h142.789062c1.625 0 2.941407-1.316406 2.941407-2.9375v-131.261719c-.453125.0625-.917969.105469-1.390625.105469zm0 0" fill="#ffcdbe"/><path d="m321.464844 377.90625h-38.609375v55.738281c0 32.226563-26.128907 58.355469-58.359375 58.355469h-50.308594v17.0625c0 1.621094 1.316406 2.9375 2.9375 2.9375h142.789062c1.625 0 2.941407-1.316406 2.941407-2.9375v-131.261719c-.453125.0625-.917969.105469-1.390625.105469zm0 0" fill="#faa68e"/><path d="m321.464844 377.90625h-145.890625c-5.597657 0-10.132813-4.539062-10.132813-10.132812v-99.140626c0-5.597656 4.535156-10.132812 10.132813-10.132812h145.890625c5.597656 0 10.132812 4.535156 10.132812 10.132812v99.140626c0 5.59375-4.535156 10.132812-10.132812 10.132812zm0 0" fill="#81b8fd"/><path d="m321.464844 258.5h-29.867188v23.867188c0 41.71875-33.820312 75.539062-75.539062 75.539062h-50.617188v9.867188c0 5.59375 4.535156 10.132812 10.132813 10.132812h145.890625c5.597656 0 10.132812-4.539062 10.132812-10.132812v-99.140626c0-5.597656-4.535156-10.132812-10.132812-10.132812zm0 0" fill="#4394fb"/><path d="m165.441406 290.648438h166.15625v55.109374h-166.15625zm0 0" fill="#b9e746"/><path d="m257.121094 345.757812h74.476562v-55.109374h-40.460937c-2.519531 23.101562-15.457031 43.0625-34.015625 55.109374zm0 0" fill="#a0c83d"/><path d="m137.941406 101.984375h96.730469c8.195313 0 14.863281 6.667969 14.863281 14.867187 0 8.195313-6.667968 14.863282-14.863281 14.863282h-49.789063c-4.140624 0-7.5 3.355468-7.5 7.5 0 4.144531 3.359376 7.5 7.5 7.5 12.457032 0 22.589844 10.132812 22.589844 22.589844 0 12.453124-10.132812 22.585937-22.589844 22.585937-4.140624 0-7.5 3.355469-7.5 7.5s3.359376 7.5 7.5 7.5c20.726563 0 37.589844-16.863281 37.589844-37.585937 0-8.472657-2.816406-16.296876-7.5625-22.589844h19.761719c16.46875 0 29.863281-13.398438 29.863281-29.863282 0-16.46875-13.394531-29.867187-29.863281-29.867187h-75.613281c-9.773438 0-18.074219 6.265625-21.117188 15zm0 0" fill="#faa68e"/></svg>