<svg id="Capa_1" enable-background="new 0 0 512 512" height="512" viewBox="0 0 512 512" width="512" xmlns="http://www.w3.org/2000/svg"><path d="m319.534 34.3c-4.973-.681-9.786-.428-14.328.553-7.534-9.636-19.259-15.838-32.439-15.838-12.752 0-24.147 5.799-31.698 14.903-6.675-4.667-14.792-7.414-23.556-7.414-8.611 0-16.602 2.645-23.21 7.166-4.651 3.182-10.093 5.011-15.729 5.011h-26.496c-15.691 0-28.412 12.72-28.412 28.412v2.92 21.945 42.604h26v-17.571c0-13.825 11.208-25.033 25.033-25.033h.216c5.453 0 10.623 2.19 14.621 5.899 7.342 6.811 17.171 10.977 27.976 10.977 4.238 0 8.325-.642 12.172-1.831 6.009 15.29 20.893 26.12 38.316 26.12 14.372 0 27.016-7.37 34.379-18.531 3.667 1.07 7.54 1.655 11.552 1.655 23.361 0 42.178-19.46 41.123-43.054-.88-19.701-15.982-36.219-35.52-38.893z" fill="#c5d3dd"/><path d="m355.055 73.193c-.881-19.701-15.983-36.219-35.521-38.893-4.973-.681-9.786-.428-14.328.553-7.534-9.636-19.259-15.838-32.439-15.838-9.247 0-17.771 3.061-24.643 8.208 32.417 2.376 60.437 26.275 66.633 59.733 1.855 10.016 1.573 19.932-.516 29.283 23.218-.172 41.864-19.557 40.814-43.046z" fill="#b6c4cf"/><path d="m175.999 482.33h-77.495l13.68-239.248 11.144-20-8.856-20 3.655-63.927c.212-3.701 3.275-6.594 6.982-6.594h24.286c3.707 0 6.77 2.893 6.982 6.594l3.655 63.927-8.856 20 11.144 20z" fill="#fff4f1"/><path d="m114.471 203.082-2.287 40h50.135l-2.288-40z" fill="#fd4755"/><path d="m397.65 263.904v-15.065c0-6.307-6.043-10.857-12.105-9.112l-83.994 24.177v-15.065c0-6.307-6.043-10.857-12.105-9.112l-72.732 20.935c-6.669 1.919-11.261 8.021-11.261 14.96v2.882c0 8.598-6.97 15.568-15.568 15.568h-117.325v190.897h132.893 96.098 96.099 96.099v-236.13c0-6.307-6.043-10.857-12.105-9.112z" fill="#c5d3dd"/><path d="m481.644 239.727-18.672 5.374c.49 1.14.777 2.395.777 3.737v236.13h30v-236.13c0-6.307-6.044-10.856-12.105-9.111z" fill="#b6c4cf"/><path d="m244.72 482.33h-113.076v-129.965c0-4.637 3.759-8.396 8.396-8.396h96.283c4.637 0 8.396 3.759 8.396 8.396v129.965z" fill="#26a6fe"/><path d="m244.72 443.673h249.029v41.296h-249.029z" fill="#7a8c98"/><path d="m463.749 443.673h30v41.296h-30z" fill="#596c76"/><path d="m72.56 443.673h59.084v41.296h-59.084z" fill="#7a8c98"/><path d="m94.756 482.33h-77.495l12.529-51.817-6.467-72.381 5.62-115.138 10.928-19.018-9.072-19.018 2.109-43.215 10.842-17.249-9.158-17.249 2.178-44.635c.275-5.627 4.917-10.048 10.551-10.048h17.375c5.634 0 10.276 4.421 10.55 10.048l2.179 44.635-9.158 17.249 10.842 17.249 2.109 43.215-9.07 19.063 10.926 18.973 5.62 115.138-6.479 72.141z" fill="#fff4f1"/><path d="m23.322 358.132-6.061 124.198h77.495l-6.062-124.198z" fill="#fd4755"/><path d="m83.074 242.994-1.856-38.036h-50.42l-1.856 38.036z" fill="#fd4755"/><path d="m79.109 161.743-1.684-34.498h-42.834l-1.683 34.498z" fill="#fd4755"/><path d="m504.5 492.985h-497c-4.143 0-7.5-3.358-7.5-7.5s3.357-7.5 7.5-7.5h497c4.143 0 7.5 3.358 7.5 7.5s-3.357 7.5-7.5 7.5z" fill="#9facba"/><path d="m301.552 371.469c-4.143 0-7.5-3.358-7.5-7.5v-80.065c0-4.142 3.357-7.5 7.5-7.5s7.5 3.358 7.5 7.5v80.065c0 4.142-3.358 7.5-7.5 7.5z" fill="#b6c4cf"/><path d="m397.667 359.127c-4.143 0-7.5-3.358-7.5-7.5v-47.723c0-4.142 3.357-7.5 7.5-7.5s7.5 3.358 7.5 7.5v47.723c0 4.142-3.357 7.5-7.5 7.5z" fill="#b6c4cf"/><g fill="#0593fc"><path d="m131.644 395.486h113.076v15h-113.076z"/><path d="m131.644 450.541h113.076v15h-113.076z"/><path d="m131.644 423.013h113.076v15h-113.076z"/><path d="m131.644 367.959h113.076v15h-113.076z"/></g></svg>