<svg id="Capa_1" enable-background="new 0 0 512 512" height="512" viewBox="0 0 512 512" width="512" xmlns="http://www.w3.org/2000/svg"><g><g><path d="m201.1 97.146h-63.425l-21.881 9-21.881-9h-49.301c-2.829 0-5.123 2.293-5.123 5.123v123.662l9 27.581h143.611l9-27.581z" fill="#e8834d"/><path d="m48.489 253.511h143.611l9-9v-18.58h-161.611v18.58z" fill="#d66e41"/><path d="m93.914 97.146h43.761v31.564h-43.761z" fill="#ffe9c8"/><path d="m93.914 128.709v11.221c0 3.579 3.501 6.072 6.816 4.853l15.062-5.539 15.068 5.54c3.315 1.219 6.816-1.274 6.816-4.853v-11.222l-20.152-7.409c-1.119-.411-2.344-.411-3.463 0z" fill="#ffdca7"/><g fill="#e6e2e6"><path d="m368.695 270.186-25.867-15.641c-3.618-2.188-8.299-.985-10.455 2.689-2.156 3.673-.969 8.425 2.649 10.613l6.206 3.752-39.677 59.818c-2.352 3.547-1.428 8.358 2.067 10.746 1.307.893 2.788 1.321 4.252 1.321 2.452 0 4.861-1.199 6.333-3.419l40.15-60.531 6.537 3.953c1.223.74 2.568 1.092 3.896 1.092 2.599 0 5.132-1.349 6.559-3.781 2.155-3.672.969-8.423-2.65-10.612z"/><path d="m490.198 159.358c-4.212 0-7.627 3.466-7.627 7.742v202.499c0 4.276 3.414 7.742 7.627 7.742s7.627-3.466 7.627-7.742v-202.499c-.001-4.276-3.415-7.742-7.627-7.742z"/><path d="m305.63 152.425c-4.133-.831-8.144 1.902-8.959 6.096l-21.836 112.337c-.815 4.195 1.874 8.266 6.006 9.094.499.1.995.148 1.485.148 3.569 0 6.758-2.556 7.475-6.245l21.836-112.337c.814-4.194-1.875-8.265-6.007-9.093z"/></g><path d="m201.1 244.511h-63.425l-21.88 9-21.881-9h-54.425v128.785l9 18.581h143.611l9-18.068z" fill="#c4603d"/><path d="m39.489 373.296h152.611v18.581h-152.611z" fill="#b7583b"/><path d="m217.768 396.599 9-45.581v-333.435c0-9.711-7.761-17.583-17.334-17.583s-17.334 7.872-17.334 17.583v355.713l9 23.303z" fill="#b2b2b2"/><path d="m192.1 371.428v25.171h34.668v-45.581h-7.855c-12.489 0-23.36 8.395-26.813 20.41z" fill="#a0a0a0"/><path d="m505.736 158.1h-222.47l-2.372-16.833c2.936-5.142 8.419-8.6 14.698-8.6h199.436c6.279 0 11.762 3.459 14.698 8.6z" fill="#ff4755"/><path d="m495.027 149.883h-199.436c-6.279 0-11.748-3.467-14.684-8.608-1.447 2.534-2.289 5.469-2.289 8.608 0 9.509 7.599 17.217 16.973 17.217h199.436c9.374 0 16.973-7.708 16.973-17.217 0-3.14-.842-6.074-2.289-8.608-2.936 5.141-8.405 8.608-14.684 8.608z" fill="#fc2b3a"/><path d="m433.437 206.866c-11.866 0-21.484 9.757-21.484 21.793v100.217c0 5.373-4.294 9.728-9.59 9.728h-87.694c-5.296 0-9.59-4.355-9.59-9.728v-41.299c0-12.036-9.619-21.793-21.484-21.793-11.866 0-21.484 9.757-21.484 21.793v63.441l9 27.581h174.812l9-27.581v-122.359c-.001-12.036-9.62-21.793-21.486-21.793z" fill="#7b7179"/><path d="m262.11 351.018h192.812v27.581h-192.812z" fill="#726a71"/><path d="m198.926 399.619h-191.299c-4.212 0-7.627-3.466-7.627-7.742s3.414-7.742 7.627-7.742h191.299c4.212 0 7.627 3.466 7.627 7.742s-3.415 7.742-7.627 7.742z" fill="#7b7179"/><path d="m500.819 453.667h-310.617c-7.14 0-8.906-14.087-8.906-14.087l10.315-47.702c2.813-13.009 14.173-22.278 27.302-22.278h281.906c6.175 0 11.181 5.077 11.181 11.341v51.805c0-.001 0 20.921-11.181 20.921z" fill="#ff4755"/><path d="m500.819 444.086h-310.617c-3.693 0-6.885-1.799-8.906-4.507l-2.014 9.316c-1.53 7.075 3.781 13.771 10.921 13.771h310.617c6.175 0 11.181-5.078 11.181-11.341v-18.581c-.001 6.265-5.007 11.342-11.182 11.342z" fill="#fc2b3a"/><path d="m481.649 453.374c-4.285-22.803-24.045-40.041-47.773-40.041-23.503 0-43.111 16.91-47.646 39.391-.648 3.211-.014 50.275 47.646 50.275 47.784.001 48.339-46.615 47.773-49.625z" fill="#7b7179"/><path d="m433.876 493.419c-23.728 0-43.475-17.24-47.761-40.043-.566 3.01-.873 6.113-.873 9.29 0 27.246 21.774 49.333 48.635 49.333s48.634-22.087 48.634-49.333c0-3.177-.307-6.28-.873-9.29-4.286 22.803-24.034 40.043-47.762 40.043z" fill="#726a71"/><ellipse cx="433.876" cy="462.667" fill="#ffe55a" rx="16.892" ry="17.135"/><path d="m93.914 244.511h43.761v31.564h-43.761z" fill="#ffe9c8"/><path d="m93.914 276.075v11.221c0 3.579 3.501 6.072 6.816 4.853l15.062-5.539 15.068 5.54c3.315 1.219 6.816-1.274 6.816-4.853v-11.222l-20.152-7.409c-1.119-.411-2.344-.411-3.463 0z" fill="#ffdca7"/><path d="m309.883 453.374c-4.285-22.803-24.045-40.041-47.773-40.041-23.503 0-43.112 16.91-47.647 39.391-.648 3.212-.014 50.276 47.647 50.276 47.784 0 48.338-46.616 47.773-49.626z" fill="#7b7179"/><path d="m262.11 493.419c-23.728 0-43.475-17.24-47.761-40.043-.566 3.01-.873 6.113-.873 9.29 0 27.246 21.774 49.333 48.635 49.333s48.634-22.087 48.634-49.333c0-3.177-.307-6.28-.873-9.29-4.287 22.803-24.034 40.043-47.762 40.043z" fill="#726a71"/><ellipse cx="262.11" cy="462.667" fill="#ffe55a" rx="16.892" ry="17.135"/></g><g fill="#ffe9c8"><path d="m68.055 346.681h23.813c4.221 0 7.642-3.473 7.642-7.757s-3.421-7.757-7.642-7.757h-23.813c-4.221 0-7.641 3.473-7.641 7.757s3.421 7.757 7.641 7.757z"/><path d="m115.511 355.932h-47.456c-4.221 0-7.641 3.473-7.641 7.757s3.421 7.757 7.641 7.757h47.455c4.221 0 7.641-3.473 7.641-7.757.001-4.284-3.42-7.757-7.64-7.757z"/><path d="m68.055 199.026h23.813c4.221 0 7.642-3.473 7.642-7.757s-3.421-7.757-7.642-7.757h-23.813c-4.221 0-7.641 3.473-7.641 7.757s3.421 7.757 7.641 7.757z"/><path d="m68.055 223.792h47.455c4.221 0 7.641-3.473 7.641-7.757s-3.421-7.757-7.641-7.757h-47.455c-4.221 0-7.641 3.473-7.641 7.757s3.421 7.757 7.641 7.757z"/></g></g></svg>