<?xml version="1.0" encoding="iso-8859-1"?>
<!-- Generator: Adobe Illustrator 19.0.0, SVG Export Plug-In . SVG Version: 6.00 Build 0)  -->
<svg version="1.1" id="Layer_1" xmlns="http://www.w3.org/2000/svg" xmlns:xlink="http://www.w3.org/1999/xlink" x="0px" y="0px"
	 viewBox="0 0 512 512" style="enable-background:new 0 0 512 512;" xml:space="preserve">
<path style="fill:#BDBFBA;" d="M488.847,167.927h-65.043c-4.137,0-7.489-3.352-7.489-7.489V118.27c0-2.417,1.166-4.684,3.132-6.091
	l34.97-25.019c3.365-2.408,8.042-1.63,10.448,1.732c2.407,3.364,1.631,8.042-1.732,10.449l-31.84,22.779v30.827h57.554
	c4.137,0,7.489,3.352,7.489,7.489C496.337,164.575,492.984,167.927,488.847,167.927z"/>
<path style="fill:#525360;" d="M481.358,80.389c-4.137,0-7.489-3.352-7.489-7.489V40.031l-27.867-22.595
	c-3.213-2.604-3.706-7.32-1.101-10.534c2.605-3.213,7.321-3.706,10.535-1.1l30.64,24.843c1.754,1.422,2.772,3.559,2.772,5.817
	v36.437C488.847,77.037,485.495,80.389,481.358,80.389z"/>
<path style="fill:#BDBFBA;" d="M481.358,160.438c-4.137,0-7.489,3.352-7.489,7.489c0,17.471,0,172.267,0,175.511
	c0,30.001-26.331,54.407-58.694,54.407c-32.365,0-58.696-24.407-58.696-54.407v-67.797c0-4.137-3.352-7.489-7.489-7.489
	c-4.136,0-7.489,3.352-7.489,7.489v67.797c0,38.259,33.05,69.386,73.674,69.386c40.623,0,73.672-31.127,73.672-69.386
	c0-3.243,0-158.04,0-175.511C488.847,163.791,485.495,160.438,481.358,160.438z"/>
<path style="fill:#FF8C01;" d="M328.57,476.815V26.526c0-8.232-6.672-14.906-14.906-14.906H70.197
	c-8.234,0-14.906,6.674-14.906,14.906v450.289H328.57z"/>
<path style="fill:#E8650C;" d="M95.267,11.62h-25.07c-8.234,0-14.906,6.674-14.906,14.906v450.289h25.07V26.526
	C80.361,18.294,87.033,11.62,95.267,11.62z"/>
<path style="fill:#636570;" d="M368.321,507.87H15.54c-8.574,0-15.527-6.951-15.527-15.527c0-8.576,6.953-15.529,15.527-15.529
	h352.78c8.576,0,15.527,6.953,15.527,15.529C383.847,500.919,376.896,507.87,368.321,507.87z"/>
<path style="fill:#393A47;" d="M368.321,492.343H15.54c-5.743,0-10.746-3.126-13.432-7.763c-5.991,10.341,1.502,23.29,13.432,23.29
	h352.78c11.93,0,19.423-12.949,13.432-23.29C379.067,489.216,374.064,492.343,368.321,492.343z"/>
<path style="fill:#C8E5FC;" d="M272.052,51.369H111.809c-8.232,0-14.906,6.674-14.906,14.906v114.814h190.055V66.275
	C286.959,58.042,280.284,51.369,272.052,51.369z"/>
<path style="fill:#E0F1FC;" d="M272.052,51.369h-71.496c-13.448,41.94-16.803,86.488-10.131,129.72h96.532V66.275
	C286.959,58.042,280.284,51.369,272.052,51.369z"/>
<path style="fill:#FFDAA4;" d="M201.455,265.817c0,8.232-6.674,14.906-14.906,14.906h-74.74c-8.232,0-14.906-6.674-14.906-14.906
	v-15.32c0-8.232,6.674-14.906,14.906-14.906h74.74c8.232,0,14.906,6.674,14.906,14.906V265.817z"/>
<path style="fill:#FFC35A;" d="M186.549,258.157h-74.74c-6.98,0-12.823-4.804-14.444-11.284c-0.599,2.399-0.462,2.084-0.462,18.944
	c0,8.232,6.674,14.906,14.906,14.906h74.74c8.232,0,14.906-6.674,14.906-14.906v-15.32c0-1.252-0.172-2.461-0.462-3.624
	C199.372,253.352,193.529,258.157,186.549,258.157z"/>
<path style="fill:#E8650C;" d="M286.959,250.569h-51.552c-4.137,0-7.489-3.352-7.489-7.489c0-4.137,3.352-7.489,7.489-7.489h51.552
	c4.137,0,7.489,3.352,7.489,7.489C294.448,247.217,291.095,250.569,286.959,250.569z"/>
<path style="fill:#8FC8F2;" d="M136.773,51.369h-24.964c-8.232,0-14.906,6.674-14.906,14.906v114.814h24.964V66.275
	C121.867,58.042,128.541,51.369,136.773,51.369z"/>
<path style="fill:#636570;" d="M342.647,243.08h-14.078v45.132h14.078c8.232,0,14.906-6.674,14.906-14.906v-15.32
	C357.553,249.754,350.879,243.08,342.647,243.08z"/>
<path style="fill:#FCA84C;" d="M512,153.022c0,8.233-6.674,14.906-14.906,14.906h-31.468c-8.232,0-14.906-6.673-14.906-14.906
	V87.806c0-8.232,6.674-14.906,14.906-14.906h31.468c8.232,0,14.906,6.674,14.906,14.906V153.022z"/>
<path style="fill:#FF8C01;" d="M481.359,153.022V87.806c0-8.232,6.674-14.906,14.906-14.906h-30.64
	c-8.232,0-14.906,6.674-14.906,14.906v65.216c0,8.233,6.674,14.906,14.906,14.906h30.64
	C488.034,167.927,481.359,161.255,481.359,153.022z"/>
<path style="fill:#577DDD;" d="M210.953,113.066l-14.819-23.151c-1.961-3.066-6.451-3.064-8.41,0l-14.817,23.152
	c-4.518,7.061-5.019,16.463,0.015,24.339c8.735,13.658,29.062,14.002,38.014,0l0.328-0.511c0.03-0.048,0.061-0.097,0.09-0.146
	C215.728,129.363,215.573,120.289,210.953,113.066z"/>
<path style="fill:#4369B5;" d="M187.48,118.48c5.371-29.364,4.76-28.621,6.947-30.19c-2.352-1.359-5.283-0.591-6.701,1.626
	l-14.817,23.152c-12.861,20.099,10.245,43.861,31.012,31.295C192.678,141.384,185.319,130.287,187.48,118.48z"/>
<path style="fill:#636570;" d="M96.904,178.96v18.743c0,8.232,6.674,14.906,14.906,14.906h160.243
	c8.232,0,14.906-6.674,14.906-14.906V178.96H96.904z"/>
<path style="fill:#393A47;" d="M121.867,197.704v-18.743H96.904v18.743c0,8.232,6.674,14.906,14.906,14.906h24.964
	C128.541,212.61,121.867,205.936,121.867,197.704z"/>
<g>
</g>
<g>
</g>
<g>
</g>
<g>
</g>
<g>
</g>
<g>
</g>
<g>
</g>
<g>
</g>
<g>
</g>
<g>
</g>
<g>
</g>
<g>
</g>
<g>
</g>
<g>
</g>
<g>
</g>
</svg>
