<svg id="Capa_1" enable-background="new 0 0 512 512" height="512" viewBox="0 0 512 512" width="512" xmlns="http://www.w3.org/2000/svg"><g><path d="m324.829 119.799h-68.829v-52.21h68.829c2.276 0 4.121 1.845 4.121 4.121v43.969c-.001 2.275-1.845 4.12-4.121 4.12z" fill="#df646e"/><path d="m0 210.568h512l-48.456-51.732c-1.948-2.079-4.67-3.259-7.519-3.259h-400.05c-2.849 0-5.571 1.18-7.519 3.259z" fill="#8c818f"/><path d="m463.544 158.836c-1.948-2.079-4.67-3.259-7.519-3.259h-26.745c2.849 0 5.571 1.18 7.519 3.259l48.456 51.732h26.745z" fill="#766d78"/><path d="m0 210.568h512v32.147h-512z" fill="#e3e0e4"/><path d="m485.255 210.568h26.745v32.147h-26.745z" fill="#c5bec6"/><path d="m293.698 242.714-37.698-20.234-36.946 20.235h-219.054v197.449c0 5.69 4.612 10.302 10.302 10.302h124.679l24.654-10 23.326 10h39.92l33.946-11 32.239 11h39.923l25.043-10 22.989 10h124.676c5.69 0 10.302-4.612 10.302-10.302v-197.45z" fill="#d09180"/><path d="m485.255 242.714h-191.557l-37.698-20.234-36.946 20.235h-219.054v30.767h475.536c5.368 0 9.719 4.351 9.719 9.719v156.963c0 5.69-4.612 10.302-10.302 10.302h26.745c5.69 0 10.302-4.612 10.302-10.302v-197.45z" fill="#c77e67"/><path d="m337.071 273.62h31.906v149.047h-31.906z" fill="#e3e0e4"/><path d="m143.023 273.62h31.906v149.047h-31.906z" fill="#e3e0e4"/><path d="m328.949 450.443v-25.871c0-2.703 2.191-4.894 4.894-4.894h38.362c2.703 0 4.894 2.191 4.894 4.894v25.871z" fill="#eec06b"/><path d="m134.901 450.443v-25.871c0-2.703 2.191-4.894 4.894-4.894h38.362c2.703 0 4.894 2.191 4.894 4.894v25.871z" fill="#eec06b"/><path d="m256 222.48c-3.413 0-6.181-2.768-6.181-6.181v-148.583c0-3.413 2.768-6.181 6.181-6.181s6.181 2.768 6.181 6.181v148.582c0 3.414-2.768 6.182-6.181 6.182z" fill="#c5bec6"/><path d="m379.465 270.529c0 1.707-1.384 3.091-3.091 3.091h-52.837c-2.548 0-5.057-.63-7.303-1.835l-60.233-32.3-60.234 32.3c-2.245 1.205-4.755 1.835-7.303 1.835h-52.837c-1.707 0-3.091-1.384-3.091-3.091v-24.724c0-1.707 1.384-3.091 3.091-3.091h48.955l59.945-32.145c7.187-3.853 15.764-3.851 22.945-.002l59.949 32.147h48.955c1.707 0 3.091 1.384 3.091 3.091v24.724z" fill="#eec06b"/><path d="m222.763 362.779v87.686h66.475v-87.686c0-2.845-2.306-5.151-5.151-5.151h-56.173c-2.845 0-5.151 2.306-5.151 5.151z" fill="#bed9fd"/><path d="m249.819 357.628h12.362v92.837h-12.362z" fill="#9ec8fc"/><path d="m256 289.686c18.357 0 33.237 14.881 33.237 33.237v4.557c0 1.922-1.558 3.481-3.481 3.481h-59.513c-1.922 0-3.481-1.558-3.481-3.481v-4.557c.001-18.356 14.881-33.237 33.238-33.237z" fill="#bed9fd"/><path d="m256 283.505c-21.735 0-39.419 17.683-39.419 39.419v4.557c0 5.328 4.334 9.662 9.662 9.662h59.513c5.328 0 9.662-4.334 9.662-9.662v-4.557c.001-21.736-17.683-39.419-39.418-39.419zm-27.056 39.418c0-12.792 8.927-23.531 20.875-26.336v28.193h-20.875zm54.112 1.857h-20.875v-28.193c11.949 2.804 20.875 13.544 20.875 26.336z" fill="#8c818f"/><path d="m413.749 327.773v83.512c0 2.404 1.949 4.354 4.354 4.354h55.686c2.404 0 4.354-1.949 4.354-4.354v-83.512c0-2.404-1.949-4.354-4.354-4.354h-55.686c-2.405.001-4.354 1.95-4.354 4.354z" fill="#bed9fd"/><path d="m473.789 317.238h-55.686c-5.809 0-10.534 4.726-10.534 10.535v83.512c0 5.809 4.725 10.534 10.534 10.534h55.686c5.809 0 10.534-4.725 10.534-10.534v-83.512c0-5.808-4.725-10.535-10.534-10.535zm-1.828 46.11h-19.834v-33.748h19.834zm-32.196-33.748v33.747h-19.834v-33.747zm-19.834 46.11h19.834v33.747h-19.834zm32.196 33.748v-33.748h19.834v33.747h-19.834z" fill="#8c818f"/><path d="m33.858 327.773v83.512c0 2.404 1.949 4.354 4.354 4.354h55.686c2.404 0 4.354-1.949 4.354-4.354v-83.512c0-2.404-1.949-4.354-4.354-4.354h-55.687c-2.404.001-4.353 1.95-4.353 4.354z" fill="#bed9fd"/><path d="m93.897 317.238h-55.686c-5.809 0-10.534 4.726-10.534 10.535v83.512c0 5.809 4.725 10.534 10.534 10.534h55.686c5.809 0 10.534-4.725 10.534-10.534v-83.512c.001-5.808-4.725-10.535-10.534-10.535zm-1.828 46.11h-19.834v-33.748h19.834zm-32.196-33.748v33.747h-19.834v-33.747zm-19.834 46.11h19.834v33.747h-19.834zm32.196 33.748v-33.748h19.834v33.747h-19.834z" fill="#8c818f"/></g></svg>