<svg id="Capa_1" enable-background="new 0 0 512 512" height="512" viewBox="0 0 512 512" width="512" xmlns="http://www.w3.org/2000/svg"><path d="m357.587 187.445h-81.27l32.508-89.397h48.762z" fill="#d6bdef"/><path d="m457.672 120.954c-.927 0-1.863-.157-2.79-.488-4.29-1.54-6.524-6.27-4.984-10.56l25.089-69.96c1.54-4.302 6.242-6.528 10.565-4.988 4.29 1.54 6.524 6.27 4.984 10.56l-25.089 69.96c-1.211 3.375-4.388 5.476-7.775 5.476z" fill="#95d6a4"/><path d="m449.889 118.163c-4.419 0-8.081-3.504-8.242-7.96l-1.605-44.444c-.169-4.556 3.395-8.387 7.952-8.552 4.685-.218 8.387 3.395 8.548 7.956l1.605 44.444c.169 4.556-3.395 8.387-7.952 8.552-.104.004-.201.004-.306.004z" fill="#95d6a4"/><path d="m465.446 123.74c-1.952 0-3.903-.685-5.476-2.077-3.411-3.024-3.734-8.242-.71-11.657l29.484-33.294c3.048-3.415 8.25-3.718 11.661-.706 3.411 3.024 3.734 8.242.71 11.657l-29.484 33.294c-1.637 1.843-3.903 2.783-6.185 2.783z" fill="#b3e59f"/><path d="m460.399 108.209c-17.172-6.159-36.086 2.77-42.244 19.943l-19.409 53.395h70.445l11.151-31.093c6.158-17.173-2.77-36.087-19.943-42.245z" fill="#ffa95f"/><path d="m402.167 94.128-6.841-6.841c-3.098-3.097-4.838-7.298-4.838-11.678v-26.192c0-4.561-3.697-8.258-8.258-8.258h-8.258l-3.839 4.828v135.559h36.871v-75.739c.001-4.381-1.739-8.582-4.837-11.679z" fill="#dbeaff"/><path d="m373.972 74.191h-16.516v1.417c0 4.38-1.74 8.581-4.838 11.678l-6.841 6.841c-3.098 3.097-4.838 7.298-4.838 11.679v26.191l33.032 49.548v-107.354z" fill="#c3ddff"/><path d="m373.972 74.191h-16.516v-24.774c0-4.561 3.697-8.258 8.258-8.258h8.258c4.561 0 8.258 3.697 8.258 8.258z" fill="#b6b1b7"/><path d="m340.94 131.998h16.516c9.122 0 16.516 7.395 16.516 16.516v33.032h-33.032z" fill="#b6b1b7"/><path d="m382.23 41.159h-8.258v33.032h16.516v-24.774c0-4.56-3.697-8.258-8.258-8.258z" fill="#c8c5c9"/><path d="m467.585 137.103c-4.315-1.544-9.024.69-10.565 4.988-1.54 4.29.694 9.02 4.984 10.56l15.548 5.577h.001l2.788-7.775c.969-2.702 1.559-5.397 1.808-8.129z" fill="#ff8b5a"/><path d="m412.577 143.7 15.548 5.577c.927.331 1.863.488 2.79.488 3.387 0 6.565-2.101 7.774-5.476 1.54-4.29-.694-9.02-4.984-10.56l-15.548-5.577c-.001 0-.002-.001-.002-.001 0 .001-.001.001-.001.001l-5.639 15.512c.024.008.039.027.062.036z" fill="#ff8b5a"/><path d="m276.317 98.048h32.508v89.397h-32.508z" fill="#c3aff0"/><path d="m183.753 37.046c.375 4.732-2.742 35.293-4.375 39.75-5.024 13.711-23.242 37.44-16.984 65.295l14.565 55.447 66.065 33.032-40.752-192.336z" fill="#ffe07d"/><path d="m187.527 41.23-8.149-4.309-6.685 7.295.716 9.039c.375 4.732-.259 9.449-1.892 13.906-5.024 13.711-15.381 47.075-9.123 74.93l47.597 55.447z" fill="#ffd064"/><path d="m198.32 18.723c-1.644-8.232-10.353-13.432-18.85-10.098-5.679 2.228-8.942 8.282-8.46 14.362l1.683 21.229 29.579-5.981z" fill="#c38c66"/><path d="m149.424 78.884-23.379-6.421 29.333 116.817h46.355z" fill="#ffe07d"/><path d="m127.378 83.046-5.23 8.75 2.868 8.604c1.501 4.503 2.019 9.234 1.505 13.953-1.582 14.516-3.619 49.392 9.148 74.927h42.792l-42.546-103.999z" fill="#ffd064"/><path d="m140.899 60.893c-3.574-7.595-13.277-10.55-20.724-5.273-4.977 3.527-6.691 10.188-4.762 15.974l6.734 20.203 27.275-12.913z" fill="#c38c66"/><path d="m253.378 123.216h-35.129c-4.561 0-8.258 3.697-8.258 8.258v49.548h82.581v-16.516z" fill="#b3e59f"/><path d="m292.571 164.506h-49.548c-9.122 0-16.516-7.395-16.516-16.516v-16.516l10.871-5.011h45.333l9.86 5.011z" fill="#ccf49f"/><path d="m226.507 65.409h57.806c4.561 0 8.258 3.697 8.258 8.258v57.806h-66.064l-8.258-57.806c0-4.561 3.697-8.258 8.258-8.258z" fill="#dad8db"/><path d="m218.249 65.409c-4.561 0-8.258 3.697-8.258 8.258v57.806h16.516v-66.064z" fill="#c8c5c9"/><path d="m259.539 106.699h-16.516c-4.565 0-8.258-3.698-8.258-8.258s3.694-8.258 8.258-8.258h16.516c4.565 0 8.258 3.698 8.258 8.258s-3.693 8.258-8.258 8.258z" fill="#ccf49f"/><path d="m108.563 184.58-19.984-52.262c-5.984-15.627-21.23-26.119-37.952-26.119h-18.119v16.254h18.119c10.032 0 19.183 6.302 22.77 15.675l19.976 52.262c1.238 3.238 4.325 5.222 7.595 5.222.968 0 1.944-.175 2.905-.532 4.19-1.603 6.286-6.302 4.69-10.5z" fill="#dad8db"/><path d="m479.492 463.762h-337.325l42.961-104.33c-5.835-1.022-10.854-3.161-15.059-6.126l-47.554 115.488c-1.032 2.508-.746 5.365.762 7.619s4.04 3.603 6.754 3.603h349.46c4.492 0 8.127-3.635 8.127-8.127s-3.634-8.127-8.126-8.127z" fill="#dad8db"/><circle cx="130.032" cy="471.889" fill="#5d5360" r="32.508"/><circle cx="130.032" cy="471.889" fill="#c8c5c9" r="16.254"/><path d="m503.873 179.343h-404.723l-2.15 10.181 54 152.798c10.814 28.284 32.786 36.72 62.777 32.535l263.204-36.726s29.936-11.524 29.954-11.953c.274-6.681 5.066-12.563 5.066-19.654v-119.054c-.001-4.489-3.639-8.127-8.128-8.127z" fill="#ff8086"/><circle cx="479.492" cy="471.889" fill="#5d5360" r="32.508"/><circle cx="479.492" cy="471.889" fill="#c8c5c9" r="16.254"/><path d="m32.508 122.429h-24.381c-4.488 0-8.127-3.639-8.127-8.127 0-4.488 3.639-8.127 8.127-8.127h24.381c4.488 0 8.127 3.639 8.127 8.127 0 4.488-3.639 8.127-8.127 8.127z" fill="#5d5360"/><path d="m506.929 326.175-295.399 41.222c-2.244.313-4.523.472-6.775.472-20.051 0-38.34-12.599-45.51-31.351l-60.095-157.175h-5.594c-5.696 0-9.625 5.708-7.591 11.029l58.098 151.95c10.814 28.284 39.723 45.357 69.713 41.173l263.204-36.726c13.028-1.818 23.926-9.754 29.949-20.594z" fill="#e5646e"/><path d="m203.778 359.207c-.722.198-1.444.294-2.159.294-3.563 0-6.841-2.365-7.825-5.976l-38.294-139.524c-1.19-4.325 1.357-8.802 5.683-9.984 4.317-1.198 8.802 1.349 9.984 5.683l38.294 139.524c1.19 4.324-1.358 8.8-5.683 9.983z" fill="#ffe07d"/><path d="m256.389 352.929c-.452.079-.897.111-1.341.111-3.905 0-7.349-2.817-8.008-6.794l-22.103-133.064c-.738-4.429 2.254-8.611 6.683-9.349 4.429-.762 8.611 2.254 9.349 6.683l22.103 133.063c.738 4.429-2.255 8.612-6.683 9.35z" fill="#b3e59f"/><path d="m310.294 345.381c-.159.008-.317.016-.476.016-4.27 0-7.857-3.333-8.103-7.659l-7.246-125.421c-.262-4.484 3.159-8.325 7.643-8.579 4.421-.23 8.325 3.159 8.579 7.643l7.246 125.421c.261 4.484-3.159 8.326-7.643 8.579z" fill="#d6bdef"/><path d="m369.778 329.469c0 4.492-3.635 8.127-8.127 8.127s-8.127-3.635-8.127-8.127v-117.619c0-4.492 3.635-8.127 8.127-8.127s8.127 3.635 8.127 8.127z" fill="#a4ccff"/><path d="m421.587 322.667c0 4.492-3.635 8.127-8.127 8.127s-8.127-3.635-8.127-8.127v-110.817c0-4.492 3.635-8.127 8.127-8.127s8.127 3.635 8.127 8.127z" fill="#ffd064"/><path d="m471.365 313.699c0 4.492-3.635 8.127-8.127 8.127s-8.127-3.635-8.127-8.127v-101.873c0-4.492 3.635-8.127 8.127-8.127s8.127 3.635 8.127 8.127z" fill="#ffa95f"/></svg>