<svg id="Capa_1" enable-background="new 0 0 512 512" height="512" viewBox="0 0 512 512" width="512" xmlns="http://www.w3.org/2000/svg"><g><path d="m289.416 114.02c4.879 3.88 11.106 3.88 15.985 0 6.221-4.947 14.005-7.091 22.015-5.103 9.294 2.307 17.747 6.26 25.036 11.631v-86.547h-75.225c-3.097 0-5.607 2.51-5.607 5.607v68.635c6.493-.468 12.674 1.704 17.796 5.777z" fill="#9dc6fb"/><path d="m358.865 169.035 28.008 7.434c1.668.78 3.596.78 5.265 0l10.988-5.137v-131.724c0-3.096-2.51-5.607-5.607-5.607h-45.068v87.118s5.475 24.098 6.414 47.916z" fill="#80b4fb"/><path d="m122.487 168.449c1.668.78 3.597.78 5.265 0l38.796-18.142c1.668-.78 3.597-.78 5.265 0l38.798 18.142c1.22.57 2.578.723 3.872.46-1.402-44.626-9.208-168.909-52.685-168.909-41.489 0-50.494 113.175-52.449 162.305z" fill="#f1cb86"/><path d="m161.798 0c-4.571 0-8.747 1.374-12.563 3.884 12.675 26.138 18.751 68.461 21.664 103.034 1.874 22.248-15.79 41.291-38.117 41.173l-22.736-.121c-.299 5.194-.525 10.012-.697 14.335l45.357 30.324s58.482-23.458 59.776-23.721c-1.401-44.625-9.207-168.908-52.684-168.908z" fill="#ecbe6b"/><path d="m300.481 192.629 79.785-27.268c-1.357-34.417-22.673-59.254-52.85-66.746-8.01-1.988-15.794.156-22.015 5.103-4.879 3.88-11.106 3.88-15.985 0-6.221-4.947-14.005-7.091-22.015-5.103-31.205 7.746-52.935 34.04-52.919 70.294.476-.097 85.55 23.93 85.999 23.72z" fill="#e28086"/><path d="m327.416 98.615c-2.336-.58-4.652-.808-6.916-.718 12.394 13.341 19.46 32.014 18.549 54.167 0 0 6.17 24.6 7.004 24.99l34.214-11.693c-1.357-34.418-22.673-59.255-52.851-66.746z" fill="#dd636e"/><path d="m186.088 133.446c-1.239 0-2.496-.299-3.664-.929l-45.859-24.762c-3.755-2.027-5.155-6.715-3.128-10.47s6.712-5.153 10.47-3.128l45.859 24.762c3.755 2.027 5.155 6.715 3.128 10.47-1.398 2.588-4.059 4.057-6.806 4.057zm2.223-41.408c2.027-3.755.627-8.443-3.128-10.47l-35.773-19.314c-3.758-2.026-8.443-.627-10.47 3.128s-.627 8.443 3.128 10.47l35.773 19.315c1.168.63 2.425.929 3.664.929 2.748-.001 5.408-1.47 6.806-4.058zm-14.137 61.623c2.027-3.755.627-8.443-3.128-10.47l-30.53-16.485c-3.754-2.026-8.442-.627-10.47 3.128-2.027 3.755-.627 8.443 3.128 10.47l30.53 16.485c1.167.63 2.425.929 3.664.929 2.748-.001 5.409-1.47 6.806-4.057z" fill="#f6e7c6"/><g fill="#f4d8a5"><path d="m174.174 153.661c2.027-3.755.627-8.443-3.128-10.47l-11.294-6.098c-4.252 4.206-9.497 7.426-15.367 9.265l19.319 10.431c1.167.63 2.425.929 3.664.929 2.748-.001 5.409-1.47 6.806-4.057z"/><path d="m181.505 96.095c2.747 0 5.408-1.469 6.806-4.056 2.027-3.755.627-8.443-3.128-10.47l-18.223-9.839c.907 6.319 1.689 12.638 2.364 18.838l8.517 4.598c1.168.63 2.425.929 3.664.929z"/><path d="m189.766 118.92-18.755-10.127c.201 5.659-.857 11.077-2.921 15.985l14.335 7.74c1.168.63 2.425.929 3.664.929 2.747 0 5.408-1.469 6.806-4.056 2.026-3.756.625-8.444-3.129-10.471z"/></g><path d="m297.399 114.354c-.054 0-.109-.001-.163-.002-4.267-.088-7.653-3.618-7.564-7.884.388-18.744 7.909-36.375 21.177-49.644 3.018-3.016 7.909-3.016 10.928 0 3.017 3.018 3.017 7.909 0 10.928-10.436 10.435-16.35 24.298-16.656 39.036-.087 4.211-3.529 7.566-7.722 7.566z" fill="#e2f4b4"/><path d="m345.438 442.209v-292.487c-.899 0-1.797.195-2.631.585l-38.804 18.143c-1.668.78-3.596.78-5.264 0l-38.803-18.142c-1.668-.78-3.597-.78-5.265 0l-38.797 18.142c-1.668.78-3.597.78-5.265 0l-38.798-18.142c-1.668-.78-3.597-.78-5.265 0l-38.796 18.142c-1.668.78-3.597.78-5.265 0l-36.915-17.263c-2.102-.983-4.512.551-4.512 2.871v288.151c0 2.815-.414 5.614-1.229 8.308l-15.133 50.026c-1.725 5.705 2.545 11.457 8.504 11.457h292.067l-18.599-61.483c-.815-2.694-1.23-5.493-1.23-8.308z" fill="#e2bcaf"/><g fill="#d8a595"><path d="m447.303 500.543-15.134-50.027c-.815-2.694-1.229-5.493-1.229-8.307v-286.921c0-2.32-2.41-3.854-4.512-2.871l-34.291 16.033c-1.668.78-3.596.78-5.264 0l-38.804-18.143c-.834-.39-1.732-.585-2.631-.585v292.487c0 2.815.414 5.614 1.229 8.308l18.6 61.483h73.533c5.959 0 10.229-5.752 8.503-11.457z"/><path d="m196.745 449.936h-89.932c-4.268 0-7.726-3.459-7.726-7.726s3.459-7.726 7.726-7.726h89.932c4.268 0 7.726 3.459 7.726 7.726s-3.458 7.726-7.726 7.726z"/></g></g></svg>