<?xml version="1.0" encoding="iso-8859-1"?>
<!-- Generator: Adobe Illustrator 19.0.0, SVG Export Plug-In . SVG Version: 6.00 Build 0)  -->
<svg version="1.1" id="Capa_1" xmlns="http://www.w3.org/2000/svg" xmlns:xlink="http://www.w3.org/1999/xlink" x="0px" y="0px"
	 viewBox="0 0 470 470" style="enable-background:new 0 0 470 470;" xml:space="preserve">
<g>
	<rect x="45" y="142.696" style="fill:#FFCC75;" width="380" height="35"/>
	<path style="fill:#F2EBD9;" d="M117.5,412.304c-4.142,0-7.5-3.358-7.5-7.5s3.358-7.5,7.5-7.5H435v-15H35v15h52.5
		c4.142,0,7.5,3.358,7.5,7.5s-3.358,7.5-7.5,7.5H15v15h440v-15H117.5z"/>
	<rect x="65" y="222.695" style="fill:#F2EBD9;" width="15" height="144.609"/>
	<rect x="146.25" y="222.695" style="fill:#F2EBD9;" width="15" height="144.609"/>
	<rect x="227.5" y="222.695" style="fill:#F2EBD9;" width="15" height="144.609"/>
	<rect x="308.75" y="222.695" style="fill:#F2EBD9;" width="15" height="144.609"/>
	<rect x="390" y="222.695" style="fill:#F2EBD9;" width="15" height="144.609"/>
	<path style="fill:#F2EBD9;" d="M35,127.696h2.49c0.019,0,395,0,395,0c0.019,0,2.51,0,2.51,0v-16.308L235,72.834L35,111.387V127.696
		z"/>
	<path style="fill:#082947;" d="M20,105.122v30.073c0,4.142,3.358,7.5,7.5,7.5H30v42.5c0,4.142,3.358,7.5,7.5,7.5h395
		c4.142,0,7.5-3.358,7.5-7.5v-42.5h2.5c4.142,0,7.5-3.358,7.5-7.5v-30.073c0-0.033,0-29.927,0-29.927c0-4.142-3.358-7.5-7.5-7.5
		s-7.5,3.358-7.5,7.5v20.917L242.5,59.004V35.196c0-4.142-3.358-7.5-7.5-7.5s-7.5,3.358-7.5,7.5v23.808L35,96.112V75.196
		c0-4.142-3.358-7.5-7.5-7.5s-7.5,3.358-7.5,7.5C20,75.196,20,105.089,20,105.122z M235,72.834l200,38.554v16.308h-2.49
		c-0.019,0-395,0-395,0c-0.019,0-2.51,0-2.51,0v-16.308L235,72.834z M45,177.695v-35h380v35H45z"/>
	<path style="fill:#082947;" d="M462.5,397.304H450v-22.5c0-4.142-3.358-7.5-7.5-7.5H420V222.695h2.5c4.142,0,7.5-3.358,7.5-7.5
		s-3.358-7.5-7.5-7.5h-50c-4.142,0-7.5,3.358-7.5,7.5s3.358,7.5,7.5,7.5h2.5v144.609h-36.25V222.695h2.5c4.142,0,7.5-3.358,7.5-7.5
		s-3.358-7.5-7.5-7.5h-50c-4.142,0-7.5,3.358-7.5,7.5s3.358,7.5,7.5,7.5h2.5v144.609H257.5V222.695h2.5c4.142,0,7.5-3.358,7.5-7.5
		s-3.358-7.5-7.5-7.5h-50c-4.142,0-7.5,3.358-7.5,7.5s3.358,7.5,7.5,7.5h2.5v144.609h-36.25V222.695h2.5c4.142,0,7.5-3.358,7.5-7.5
		s-3.358-7.5-7.5-7.5h-50c-4.142,0-7.5,3.358-7.5,7.5s3.358,7.5,7.5,7.5h2.5v144.609H95V222.695h2.5c4.142,0,7.5-3.358,7.5-7.5
		s-3.358-7.5-7.5-7.5h-50c-4.142,0-7.5,3.358-7.5,7.5s3.358,7.5,7.5,7.5H50v144.609H27.5c-4.142,0-7.5,3.358-7.5,7.5v22.5H7.5
		c-4.142,0-7.5,3.358-7.5,7.5v30c0,4.142,3.358,7.5,7.5,7.5h455c4.142,0,7.5-3.358,7.5-7.5v-30
		C470,400.662,466.642,397.304,462.5,397.304z M455,427.304H15v-15h72.5c4.142,0,7.5-3.358,7.5-7.5s-3.358-7.5-7.5-7.5H35v-15h400
		v15H117.5c-4.142,0-7.5,3.358-7.5,7.5s3.358,7.5,7.5,7.5H455V427.304z M80,222.695v144.609H65V222.695H80z M161.25,222.695v144.609
		h-15V222.695H161.25z M242.5,222.695v144.609h-15V222.695H242.5z M323.75,222.695v144.609h-15V222.695H323.75z M405,222.695
		v144.609h-15V222.695H405z"/>
</g>
<g>
</g>
<g>
</g>
<g>
</g>
<g>
</g>
<g>
</g>
<g>
</g>
<g>
</g>
<g>
</g>
<g>
</g>
<g>
</g>
<g>
</g>
<g>
</g>
<g>
</g>
<g>
</g>
<g>
</g>
</svg>
