<?xml version="1.0" encoding="iso-8859-1"?>
<!-- Generator: Adobe Illustrator 19.0.0, SVG Export Plug-In . SVG Version: 6.00 Build 0)  -->
<svg version="1.1" id="Layer_1" xmlns="http://www.w3.org/2000/svg" xmlns:xlink="http://www.w3.org/1999/xlink" x="0px" y="0px"
	 viewBox="0 0 512 512" style="enable-background:new 0 0 512 512;" xml:space="preserve">
<polygon style="fill:#69A8FF;" points="503.742,52.301 503.742,129.376 448.688,151.398 470.71,52.301 "/>
<polygon style="fill:#9BC5FF;" points="470.71,52.301 470.71,129.376 404.645,151.398 426.667,52.301 "/>
<polygon style="fill:#69A8FF;" points="426.667,52.301 426.667,129.376 327.57,151.398 349.591,52.301 "/>
<polygon style="fill:#9BC5FF;" points="349.591,52.301 349.591,129.376 250.495,151.398 272.516,52.301 "/>
<polygon style="fill:#69A8FF;" points="272.516,52.301 272.516,129.376 233.979,151.398 195.441,129.376 195.441,52.301 "/>
<polygon style="fill:#4482D9;" points="503.742,129.376 503.742,206.452 448.688,228.473 470.71,129.376 "/>
<polygon style="fill:#69A8FF;" points="470.71,129.376 470.71,206.452 404.645,228.473 426.667,129.376 "/>
<polygon style="fill:#9BC5FF;" points="426.667,129.376 426.667,206.452 327.57,228.473 349.591,129.376 "/>
<polygon style="fill:#69A8FF;" points="349.591,129.376 349.591,206.452 250.495,228.473 272.516,129.376 "/>
<polygon style="fill:#9BC5FF;" points="272.516,129.376 272.516,206.452 233.979,228.473 195.441,206.452 195.441,129.376 "/>
<polygon style="fill:#69A8FF;" points="503.742,206.452 503.742,283.527 448.688,305.548 470.71,206.452 "/>
<polygon style="fill:#9BC5FF;" points="470.71,206.452 470.71,283.527 404.645,305.548 426.667,206.452 "/>
<polygon style="fill:#69A8FF;" points="426.667,206.452 426.667,283.527 327.57,305.548 349.591,206.452 "/>
<polygon style="fill:#9BC5FF;" points="349.591,206.452 349.591,283.527 250.495,305.548 272.516,206.452 "/>
<polygon style="fill:#69A8FF;" points="272.516,206.452 272.516,283.527 233.979,305.548 195.441,283.527 195.441,206.452 "/>
<polygon style="fill:#FEE3AC;" points="151.398,8.258 107.355,195.441 151.398,382.624 195.441,382.624 195.441,8.258 "/>
<g>
	<polygon style="fill:#FFFBD2;" points="8.258,8.258 8.258,503.742 52.301,503.742 151.398,360.602 151.398,118.366 
		140.387,101.849 151.398,85.333 151.398,8.258 	"/>
	<polygon style="fill:#FFFBD2;" points="459.699,327.57 459.699,503.742 426.667,503.742 404.645,327.57 	"/>
</g>
<polygon style="fill:#FFFFFF;" points="52.301,360.602 52.301,503.742 195.441,503.742 426.667,393.634 426.667,327.57 
	195.441,360.602 "/>
<polygon style="fill:#F34A28;" points="151.398,85.333 151.398,118.366 118.366,118.366 118.366,151.398 85.333,151.398 
	85.333,118.366 52.301,118.366 52.301,85.333 85.333,85.333 85.333,52.301 118.366,52.301 118.366,85.333 "/>
<polygon style="fill:#4482D9;" points="503.742,283.527 503.742,360.602 470.71,360.602 448.688,322.065 470.71,283.527 "/>
<polygon style="fill:#69A8FF;" points="426.667,283.527 404.645,322.065 426.667,360.602 470.71,360.602 470.71,283.527 "/>
<polygon style="fill:#4482D9;" points="426.667,393.634 426.667,503.742 393.634,503.742 371.613,448.688 393.634,393.634 "/>
<polygon style="fill:#69A8FF;" points="393.634,393.634 393.634,503.742 349.591,503.742 327.57,448.688 349.591,393.634 "/>
<polygon style="fill:#9BC5FF;" points="349.591,393.634 349.591,503.742 272.516,503.742 250.495,448.688 272.516,393.634 "/>
<rect x="195.441" y="393.634" style="fill:#69A8FF;" width="77.075" height="110.108"/>
<polygon style="fill:#9BC5FF;" points="426.667,283.527 426.667,360.602 349.591,360.602 327.57,322.065 349.591,283.527 "/>
<polygon style="fill:#69A8FF;" points="349.591,283.527 349.591,360.602 272.516,360.602 250.495,322.065 272.516,283.527 "/>
<rect x="195.441" y="283.527" style="fill:#9BC5FF;" width="77.075" height="77.075"/>
<path d="M503.742,44.043H203.699V8.258c0-4.561-3.697-8.258-8.258-8.258H8.258C3.697,0,0,3.697,0,8.258v495.484
	C0,508.303,3.697,512,8.258,512h451.441c4.561,0,8.258-3.697,8.258-8.258V368.86h35.785c4.561,0,8.258-3.697,8.258-8.258V52.301
	C512,47.74,508.303,44.043,503.742,44.043z M382.624,291.785h35.785v60.559h-60.559V214.71h60.559v60.559h-35.785
	c-4.561,0-8.258,3.697-8.258,8.258S378.063,291.785,382.624,291.785z M280.774,352.344v-60.559h60.559v60.559H280.774z
	 M203.699,352.344v-60.559h60.559v60.559H203.699z M418.409,198.194h-60.559v-60.559h60.559V198.194z M434.925,137.634h60.559
	v60.559h-60.559V137.634z M357.849,121.118V60.559h60.559v60.559H357.849z M341.333,121.118h-35.785
	c-4.561,0-8.258,3.697-8.258,8.258c0,4.561,3.697,8.258,8.258,8.258h35.785v60.559h-60.559V60.559h60.559V121.118z M341.333,275.269
	h-60.559V214.71h60.559V275.269z M203.699,214.71h60.559v60.559h-60.559V214.71z M264.258,198.194h-60.559v-60.559h60.559V198.194z
	 M434.925,214.71h60.559v60.559h-60.559V214.71z M495.484,121.118h-60.559V60.559h60.559V121.118z M264.258,60.559v60.559h-60.559
	V60.559H264.258z M16.516,16.516h170.667v335.828H52.301c-4.561,0-8.258,3.697-8.258,8.258v134.882H16.516V16.516z M341.333,401.892
	v93.591h-60.559v-93.591H341.333z M418.409,401.892v93.591h-60.559v-93.591H418.409z M264.258,495.484h-60.559v-93.591h60.559
	V495.484z M451.441,495.484h-16.516V393.634c0-4.561-3.697-8.258-8.258-8.258H195.441c-4.561,0-8.258,3.697-8.258,8.258v101.849
	H60.559v-60.559h90.839c4.561,0,8.258-3.697,8.258-8.258c0-4.561-3.697-8.258-8.258-8.258H60.559v-16.516h90.839
	c4.561,0,8.258-3.697,8.258-8.258c0-4.561-3.697-8.258-8.258-8.258H60.559V368.86h390.882V495.484z M434.925,352.344v-60.559h60.559
	v60.559H434.925z"/>
<path d="M52.301,126.624h24.774v24.774c0,4.561,3.697,8.258,8.258,8.258h33.032c4.561,0,8.258-3.697,8.258-8.258v-24.774h24.774
	c4.561,0,8.258-3.697,8.258-8.258V85.333c0-4.561-3.697-8.258-8.258-8.258h-24.774V52.301c0-4.561-3.697-8.258-8.258-8.258H85.333
	c-4.561,0-8.258,3.697-8.258,8.258v24.774H52.301c-4.561,0-8.258,3.697-8.258,8.258v33.032
	C44.043,122.926,47.74,126.624,52.301,126.624z M60.559,93.591h24.774c4.561,0,8.258-3.697,8.258-8.258V60.559h16.516v24.774
	c0,4.561,3.697,8.258,8.258,8.258h24.774v16.516h-24.774c-4.561,0-8.258,3.697-8.258,8.258v24.774H93.591v-24.774
	c0-4.561-3.697-8.258-8.258-8.258H60.559V93.591z"/>
<g>
</g>
<g>
</g>
<g>
</g>
<g>
</g>
<g>
</g>
<g>
</g>
<g>
</g>
<g>
</g>
<g>
</g>
<g>
</g>
<g>
</g>
<g>
</g>
<g>
</g>
<g>
</g>
<g>
</g>
</svg>
