<svg id="Layer_1" enable-background="new 0 0 512 512" height="512" viewBox="0 0 512 512" width="512" xmlns="http://www.w3.org/2000/svg"><path d="m235.745 177.849c-19.633-19.633-182.629 111.532-210.12 139.024-27.491 27.491-33.862 65.693-14.229 85.326s57.834 13.262 85.326-14.229c27.49-27.492 158.655-190.488 139.023-210.121z" fill="#f6e266"/><path d="m235.75 177.854c19.633 19.633-111.537 182.623-139.03 210.116-27.492 27.492-65.69 33.87-85.323 14.237-15.571-15.571-14.78-42.822-.074-67.147 1.599 7.477 5.013 14.163 10.335 19.485 19.633 19.633 57.831 13.255 85.323-14.237 19.596-19.596 91.855-108.018 124.645-164.318 1.729.246 3.118.857 4.124 1.864z" fill="#eab14d"/><path d="m366.314 164.093c-34.253 42.816-72.787 81.351-115.603 115.604-2.522-2.024-5.034-4.068-7.526-6.133-40.192-33.134-76.611-70.021-109.288-110.681 34.253-42.816 72.787-81.35 115.603-115.603 40.65 32.676 77.547 69.106 110.681 109.288 2.065 2.491 4.109 5.003 6.133 7.525z" fill="#f6e266"/><path d="m284.448 251.018c-10.934 9.872-22.183 19.429-33.74 28.678-43.174-34.691-82.113-73.63-116.81-116.81 9.248-11.558 18.806-22.806 28.678-33.74 39.068 42.179 79.698 82.81 121.872 121.872z" fill="#eab14d"/><path d="m249.501 47.282-115.603 115.604c-10.068 10.068-26.39 10.068-36.458 0-10.068-10.068-10.068-26.39 0-36.458l115.603-115.604c10.068-10.068 26.39-10.068 36.458 0 10.068 10.068 10.068 26.391 0 36.458z" fill="#f6e266"/><path d="m366.314 164.093c-34.253 42.816-72.787 81.351-115.603 115.604-2.522-2.024-5.034-4.068-7.526-6.133.214-.244.437-.478.671-.712l115.603-115.604c.234-.234.478-.468.722-.681 2.065 2.492 4.109 5.004 6.133 7.526z" fill="#eab14d"/><path d="m402.769 200.551-115.603 115.603c-10.068 10.068-26.39 10.068-36.458 0-10.068-10.068-10.068-26.39 0-36.458l115.603-115.603c10.068-10.068 26.39-10.068 36.458 0 10.068 10.067 10.068 26.39 0 36.458z" fill="#f6e266"/><path d="m171.306 125.474-37.414 37.414c-10.063 10.063-26.387 10.063-36.451 0-5.032-5.032-7.557-11.632-7.551-18.232-.006-6.6 2.513-13.194 7.545-18.225l37.414-37.414c-5.038 5.038-7.557 11.632-7.551 18.231 0 6.594 2.519 13.2 7.551 18.232 10.063 10.063 26.387 10.063 36.457-.006z" fill="#eab14d"/><path d="m324.578 278.747-37.414 37.414c-10.063 10.063-26.387 10.063-36.457-.006-5.038-5.038-7.557-11.632-7.551-18.232 0-6.594 2.513-13.193 7.545-18.225l37.414-37.414c-5.038 5.038-7.551 11.638-7.551 18.231 0 6.594 2.513 13.194 7.551 18.232 10.07 10.069 26.394 10.069 36.463 0z" fill="#eab14d"/><path d="m478.486 456.953h-262.573c-14.297 0-25.887 11.59-25.887 25.887 0 14.297 11.59 25.887 25.887 25.887h262.572c14.297 0 25.887-11.59 25.887-25.887 0-14.297-11.589-25.887-25.886-25.887z" fill="#736e6e"/><path d="m456.072 405.179h-217.745c-14.297 0-25.887 11.59-25.887 25.887 0 14.297 11.59 25.887 25.887 25.887h217.745c14.297 0 25.887-11.59 25.887-25.887 0-14.297-11.59-25.887-25.887-25.887z" fill="#736e6e"/><path d="m279.727 482.84c0 7.15 2.899 13.618 7.577 18.296 4.688 4.688 11.157 7.587 18.306 7.587h-89.7c-7.15 0-13.618-2.899-18.306-7.587-4.678-4.678-7.577-11.146-7.577-18.296 0-14.299 11.584-25.893 25.883-25.893h89.7c-14.3 0-25.883 11.594-25.883 25.893z" fill="#595454"/><path d="m289.348 431.064c0 7.149 2.898 13.617 7.587 18.306 4.678 4.678 11.157 7.576 18.296 7.576h-76.906c-7.15 0-13.628-2.898-18.306-7.576-4.688-4.689-7.587-11.157-7.587-18.306 0-14.299 11.594-25.893 25.893-25.893h76.906c-14.29 0-25.883 11.594-25.883 25.893z" fill="#595454"/><g fill="#eadfda"><path d="m410.694 265.362c-1.952 0-3.904-.745-5.393-2.234-2.979-2.979-2.979-7.808 0-10.787l38.766-38.766c2.979-2.979 7.808-2.979 10.787 0s2.979 7.808 0 10.787l-38.766 38.766c-1.49 1.489-3.442 2.234-5.394 2.234z"/><path d="m449.459 383.188c-1.952 0-3.904-.744-5.393-2.234l-38.766-38.766c-2.979-2.979-2.979-7.808 0-10.787s7.808-2.98 10.787 0l38.766 38.766c2.979 2.979 2.979 7.808 0 10.787-1.489 1.489-3.442 2.234-5.394 2.234z"/><path d="m504.372 304.892h-93.678c-4.213 0-7.628-3.415-7.628-7.628s3.415-7.628 7.628-7.628h93.678c4.213 0 7.628 3.415 7.628 7.628s-3.415 7.628-7.628 7.628z"/></g></svg>