<svg xmlns="http://www.w3.org/2000/svg" height="512pt" version="1.1" viewBox="0 -4 512.00013 512" width="512pt">
<g id="surface1">
<path d="M 206.097656 468.441406 L 166.402344 460.304688 L 143.433594 484.09375 L 65.136719 422.296875 L 117.355469 386.660156 L 172.878906 325.898438 C 182.183594 315.714844 198.632812 317.183594 205.984375 328.859375 L 271.765625 404.300781 C 281.707031 415.703125 278.894531 433.328125 265.894531 441.070312 L 227.140625 464.148438 C 220.375 468.238281 213.933594 468.585938 206.097656 468.441406 Z M 206.097656 468.441406 " style=" stroke:none;fill-rule:nonzero;fill:rgb(100%,90.588235%,81.176471%);fill-opacity:1;" />
<path d="M 271.765625 404.300781 L 255.714844 385.890625 L 188.777344 425.78125 C 182.011719 429.871094 175.570312 430.21875 167.730469 430.074219 L 132.964844 426.332031 L 102.933594 452.125 L 143.4375 484.09375 L 166.402344 460.300781 L 206.097656 468.441406 C 213.933594 468.582031 220.378906 468.238281 227.140625 464.148438 L 265.894531 441.070312 C 278.894531 433.328125 281.707031 415.703125 271.765625 404.300781 Z M 271.765625 404.300781 " style=" stroke:none;fill-rule:nonzero;fill:rgb(93.72549%,83.529412%,74.117647%);fill-opacity:1;" />
<path d="M 269.832031 405.910156 C 262.082031 393.890625 252.640625 399.972656 244.890625 387.949219 C 237.140625 375.929688 246.582031 369.84375 238.832031 357.824219 C 231.078125 345.800781 221.640625 351.886719 213.890625 339.863281 C 206.136719 327.835938 215.578125 321.75 207.824219 309.726562 C 203.085938 302.378906 194.503906 287.207031 189.277344 285.121094 L 147.445312 305.789062 L 220.242188 420.601562 C 227.34375 431.621094 242.035156 434.796875 253.054688 427.691406 L 266.984375 418.714844 C 271.238281 415.96875 272.621094 410.28125 269.894531 406.011719 C 269.875 405.976562 269.855469 405.945312 269.832031 405.910156 Z M 269.832031 405.910156 " style=" stroke:none;fill-rule:nonzero;fill:rgb(20.392157%,29.019608%,36.470588%);fill-opacity:1;" />
<path d="M 149.5 323.5625 L 116.636719 343.839844 C 110.402344 347.6875 102.226562 345.75 98.378906 339.515625 L 79.800781 309.40625 C 75.953125 303.171875 77.890625 294.996094 84.125 291.148438 L 116.988281 270.871094 C 120.847656 268.492188 125.90625 269.6875 128.289062 273.546875 L 152.175781 312.261719 C 154.558594 316.121094 153.359375 321.179688 149.5 323.5625 Z M 149.5 323.5625 " style=" stroke:none;fill-rule:nonzero;fill:rgb(20.392157%,29.019608%,36.470588%);fill-opacity:1;" />
<path d="M 169.664062 215.996094 L 102.960938 257.15625 C 94.179688 262.570312 91.457031 274.078125 96.871094 282.855469 L 129.765625 336.167969 C 135.183594 344.945312 146.6875 347.671875 155.46875 342.253906 L 222.171875 301.097656 L 433.152344 255.171875 L 305.34375 48.03125 Z M 169.664062 215.996094 " style=" stroke:none;fill-rule:nonzero;fill:rgb(99.607843%,81.568627%,40%);fill-opacity:1;" />
<path d="M 403.039062 206.367188 L 193.144531 254.058594 C 193.144531 254.058594 120.878906 298.644531 110.546875 305.023438 L 129.765625 336.167969 C 135.179688 344.945312 146.6875 347.671875 155.464844 342.253906 L 222.171875 301.097656 L 433.152344 255.171875 Z M 403.039062 206.367188 " style=" stroke:none;fill-rule:nonzero;fill:rgb(96.078431%,70.980392%,33.72549%);fill-opacity:1;" />
<path d="M 222.171875 301.097656 L 155.464844 342.253906 C 146.6875 347.671875 135.179688 344.945312 129.765625 336.167969 L 96.871094 282.855469 C 91.453125 274.078125 94.179688 262.570312 102.957031 257.15625 L 169.664062 215.996094 Z M 222.171875 301.097656 " style=" stroke:none;fill-rule:nonzero;fill:rgb(99.215686%,44.313725%,36.078431%);fill-opacity:1;" />
<path d="M 193.144531 254.058594 C 193.144531 254.058594 120.878906 298.644531 110.546875 305.023438 L 129.765625 336.167969 C 135.179688 344.945312 146.6875 347.671875 155.464844 342.253906 L 188.816406 321.675781 L 222.171875 301.097656 Z M 193.144531 254.058594 " style=" stroke:none;fill-rule:nonzero;fill:rgb(84.705882%,24.313725%,22.745098%);fill-opacity:1;" />
<path d="M 445.808594 269.890625 L 436.703125 275.507812 C 431.984375 278.417969 425.796875 276.953125 422.886719 272.234375 L 285.488281 49.554688 C 282.574219 44.832031 284.039062 38.648438 288.761719 35.734375 L 297.867188 30.117188 C 302.585938 27.203125 308.773438 28.667969 311.683594 33.390625 L 449.082031 256.070312 C 451.996094 260.789062 450.527344 266.976562 445.808594 269.890625 Z M 445.808594 269.890625 " style=" stroke:none;fill-rule:nonzero;fill:rgb(99.215686%,44.313725%,36.078431%);fill-opacity:1;" />
<path d="M 449.082031 256.070312 L 426.480469 219.433594 L 400.28125 235.601562 L 422.886719 272.234375 C 425.796875 276.953125 431.984375 278.417969 436.703125 275.507812 L 445.808594 269.890625 C 450.527344 266.976562 451.996094 260.789062 449.082031 256.070312 Z M 449.082031 256.070312 " style=" stroke:none;fill-rule:nonzero;fill:rgb(84.705882%,24.313725%,22.745098%);fill-opacity:1;" />
<path d="M 249.128906 436.226562 C 254.09375 444.355469 264.710938 446.921875 272.839844 441.953125 L 297.976562 426.585938 C 306.101562 421.621094 308.664062 411.011719 303.699219 402.886719 C 298.734375 394.757812 288.117188 392.195312 279.992188 397.160156 L 254.851562 412.527344 C 246.730469 417.492188 244.167969 428.101562 249.128906 436.226562 Z M 249.128906 436.226562 " style=" stroke:none;fill-rule:nonzero;fill:rgb(100%,90.588235%,81.176471%);fill-opacity:1;" />
<path d="M 303.699219 402.886719 C 301.664062 399.554688 298.671875 397.175781 295.300781 395.851562 C 296.183594 402.417969 293.230469 409.195312 287.210938 412.875 L 262.070312 428.242188 C 257.273438 431.171875 251.621094 431.460938 246.765625 429.554688 C 247.074219 431.851562 247.84375 434.125 249.128906 436.230469 C 254.09375 444.359375 264.710938 446.921875 272.839844 441.953125 L 297.976562 426.585938 C 306.101562 421.621094 308.660156 411.011719 303.699219 402.886719 Z M 303.699219 402.886719 " style=" stroke:none;fill-rule:nonzero;fill:rgb(93.72549%,83.529412%,74.117647%);fill-opacity:1;" />
<path d="M 238.363281 402.292969 C 243.402344 410.546875 254.179688 413.148438 262.429688 408.105469 L 287.121094 393.011719 C 295.367188 387.972656 297.96875 377.203125 292.933594 368.953125 C 287.894531 360.703125 277.117188 358.101562 268.867188 363.144531 L 244.171875 378.238281 C 235.925781 383.277344 233.324219 394.046875 238.363281 402.292969 Z M 238.363281 402.292969 " style=" stroke:none;fill-rule:nonzero;fill:rgb(100%,90.588235%,81.176471%);fill-opacity:1;" />
<path d="M 292.933594 368.953125 C 290.925781 365.667969 288.003906 363.296875 284.695312 361.925781 C 285.535156 368.550781 282.539062 375.359375 276.472656 379.066406 L 251.777344 394.160156 C 246.8125 397.195312 240.941406 397.445312 235.945312 395.378906 C 236.246094 397.757812 237.03125 400.113281 238.363281 402.292969 C 243.402344 410.546875 254.179688 413.148438 262.429688 408.105469 L 287.121094 393.011719 C 295.367188 387.972656 297.96875 377.203125 292.933594 368.953125 Z M 292.933594 368.953125 " style=" stroke:none;fill-rule:nonzero;fill:rgb(93.72549%,83.529412%,74.117647%);fill-opacity:1;" />
<path d="M 219.957031 372.617188 C 224.996094 380.867188 235.773438 383.472656 244.023438 378.429688 L 268.71875 363.332031 C 276.964844 358.292969 279.5625 347.523438 274.527344 339.277344 C 269.488281 331.023438 258.710938 328.421875 250.460938 333.464844 L 225.765625 348.558594 C 217.519531 353.597656 214.917969 364.367188 219.957031 372.617188 Z M 219.957031 372.617188 " style=" stroke:none;fill-rule:nonzero;fill:rgb(100%,90.588235%,81.176471%);fill-opacity:1;" />
<path d="M 274.527344 339.277344 C 272.5625 336.058594 269.71875 333.710938 266.496094 332.328125 C 267.222656 338.871094 264.230469 345.550781 258.242188 349.210938 L 233.550781 364.304688 C 228.515625 367.382812 222.550781 367.597656 217.515625 365.441406 C 217.789062 367.90625 218.574219 370.355469 219.953125 372.613281 C 224.996094 380.867188 235.769531 383.46875 244.023438 378.425781 L 268.71875 363.332031 C 276.964844 358.292969 279.5625 347.523438 274.527344 339.277344 Z M 274.527344 339.277344 " style=" stroke:none;fill-rule:nonzero;fill:rgb(93.72549%,83.529412%,74.117647%);fill-opacity:1;" />
<path d="M 202.605469 342.179688 C 207.644531 350.429688 218.421875 353.03125 226.671875 347.988281 L 251.367188 332.894531 C 259.613281 327.855469 262.214844 317.085938 257.175781 308.835938 C 252.136719 300.585938 241.359375 297.984375 233.109375 303.027344 L 208.414062 318.121094 C 200.167969 323.160156 197.570312 333.929688 202.605469 342.179688 Z M 202.605469 342.179688 " style=" stroke:none;fill-rule:nonzero;fill:rgb(100%,90.588235%,81.176471%);fill-opacity:1;" />
<path d="M 257.175781 308.835938 C 254.859375 305.039062 251.320312 302.457031 247.375 301.246094 C 248.882812 308.308594 245.910156 315.851562 239.402344 319.832031 L 214.707031 334.925781 C 210.253906 337.648438 205.066406 338.125 200.441406 336.703125 C 200.84375 338.589844 201.546875 340.441406 202.605469 342.179688 C 207.644531 350.429688 218.421875 353.03125 226.671875 347.988281 L 251.367188 332.894531 C 259.613281 327.855469 262.214844 317.085938 257.175781 308.835938 Z M 257.175781 308.835938 " style=" stroke:none;fill-rule:nonzero;fill:rgb(93.72549%,83.529412%,74.117647%);fill-opacity:1;" />
<path d="M 239.652344 363.355469 L 235.074219 366.152344 C 227.867188 370.558594 218.554688 368.445312 214.265625 361.4375 L 206.679688 349.03125 C 202.964844 342.960938 194.882812 341.15625 188.667969 345.011719 C 182.429688 390.800781 117.355469 386.660156 117.355469 386.660156 L 157.679688 325.925781 C 160.339844 321.324219 164.117188 317.433594 168.664062 314.613281 L 191.421875 300.5 C 202.484375 293.640625 216.867188 296.84375 223.488281 307.648438 L 244.9375 342.652344 C 249.234375 349.671875 246.867188 358.945312 239.652344 363.355469 Z M 239.652344 363.355469 " style=" stroke:none;fill-rule:nonzero;fill:rgb(100%,90.588235%,81.176471%);fill-opacity:1;" />
<path d="M 244.933594 342.65625 L 244.757812 342.367188 C 243.515625 344.363281 241.804688 346.117188 239.652344 347.433594 L 235.070312 350.234375 C 227.867188 354.636719 218.554688 352.527344 214.265625 345.515625 L 206.679688 333.113281 C 202.964844 327.039062 194.882812 325.238281 188.667969 329.089844 C 186.050781 348.292969 174.308594 366.695312 161.203125 379.300781 C 174.460938 373.476562 186.191406 363.171875 188.667969 345.011719 C 194.882812 341.15625 202.964844 342.960938 206.679688 349.03125 L 214.265625 361.4375 C 218.554688 368.445312 227.867188 370.558594 235.070312 366.15625 L 239.652344 363.355469 C 246.867188 358.945312 249.234375 349.671875 244.933594 342.65625 Z M 244.933594 342.65625 " style=" stroke:none;fill-rule:nonzero;fill:rgb(93.72549%,83.529412%,74.117647%);fill-opacity:1;" />
<path d="M 144.695312 485.589844 L 80.554688 409.371094 L 101.675781 391.597656 C 102.339844 391.039062 103.335938 391.125 103.898438 391.789062 L 166.007812 465.597656 C 166.566406 466.261719 166.480469 467.257812 165.816406 467.820312 Z M 144.695312 485.589844 " style=" stroke:none;fill-rule:nonzero;fill:rgb(80.392157%,83.921569%,87.45098%);fill-opacity:1;" />
<path d="M 166.003906 465.597656 L 132.964844 426.332031 L 110.636719 445.121094 L 144.695312 485.59375 L 165.8125 467.820312 C 166.480469 467.257812 166.566406 466.261719 166.003906 465.597656 Z M 166.003906 465.597656 " style=" stroke:none;fill-rule:nonzero;fill:rgb(58.823529%,64.313725%,66.666667%);fill-opacity:1;" />
<path d="M 409.300781 128.125 C 406.742188 128.125 404.246094 126.835938 402.808594 124.5 C 400.605469 120.917969 401.722656 116.230469 405.304688 114.027344 L 446.5625 88.648438 C 450.144531 86.445312 454.832031 87.5625 457.03125 91.144531 C 459.234375 94.722656 458.117188 99.410156 454.539062 101.613281 L 413.28125 126.992188 C 412.035156 127.761719 410.660156 128.125 409.300781 128.125 Z M 409.300781 128.125 " style=" stroke:none;fill-rule:nonzero;fill:rgb(85.882353%,85.098039%,81.960784%);fill-opacity:1;" />
<path d="M 504.398438 190.261719 C 504.152344 190.261719 503.902344 190.25 503.652344 190.226562 L 443.164062 184.347656 C 438.980469 183.941406 435.917969 180.222656 436.324219 176.035156 C 436.730469 171.855469 440.453125 168.785156 444.636719 169.199219 L 505.125 175.074219 C 509.308594 175.480469 512.371094 179.203125 511.964844 183.386719 C 511.582031 187.320312 508.269531 190.261719 504.398438 190.261719 Z M 504.398438 190.261719 " style=" stroke:none;fill-rule:nonzero;fill:rgb(85.882353%,85.098039%,81.960784%);fill-opacity:1;" />
<path d="M 374.679688 71.863281 C 373.761719 71.863281 372.828125 71.695312 371.921875 71.34375 C 368.003906 69.820312 366.066406 65.40625 367.589844 61.492188 L 389.621094 4.851562 C 391.144531 0.933594 395.558594 -1 399.472656 0.519531 C 403.390625 2.042969 405.332031 6.453125 403.808594 10.371094 L 381.777344 67.007812 C 380.605469 70.019531 377.726562 71.863281 374.679688 71.863281 Z M 374.679688 71.863281 " style=" stroke:none;fill-rule:nonzero;fill:rgb(85.882353%,85.098039%,81.960784%);fill-opacity:1;" />
<path d="M 149.273438 484.878906 L 79.949219 403.558594 C 79.398438 402.910156 78.445312 402.78125 77.738281 403.261719 L 3.90625 461.542969 C 1.441406 463.488281 0 466.460938 0 469.605469 L 0 493.316406 C 0 498.988281 4.597656 503.585938 10.273438 503.585938 L 131.050781 503.585938 C 134.160156 503.585938 137.105469 502.175781 139.058594 499.75 L 149.203125 487.121094 C 149.800781 486.503906 149.828125 485.53125 149.273438 484.878906 Z M 149.273438 484.878906 " style=" stroke:none;fill-rule:nonzero;fill:rgb(23.529412%,33.72549%,40%);fill-opacity:1;" />
<path d="M 149.273438 484.878906 L 116.402344 446.316406 L 68.007812 503.585938 L 131.050781 503.585938 C 134.160156 503.585938 137.105469 502.175781 139.058594 499.75 L 149.203125 487.121094 C 149.800781 486.503906 149.828125 485.53125 149.273438 484.878906 Z M 149.273438 484.878906 " style=" stroke:none;fill-rule:nonzero;fill:rgb(9.803922%,26.666667%,31.764706%);fill-opacity:1;" />
</g>
</svg>