<svg height="512pt" viewBox="-14 0 511 512" width="512pt" xmlns="http://www.w3.org/2000/svg"><path d="m424.992188 512h-365.402344c-5.605469 0-10.152344-4.542969-10.152344-10.148438v-294.210937h385.703125v294.210937c0 5.605469-4.542969 10.148438-10.148437 10.148438zm0 0" fill="#f2f2f2"/><path d="m49.441406 207.640625h385.699219v35.519531h-385.699219zm0 0" fill="#c9c9c9"/><path d="m270.671875 302.265625h100.210937c17.539063 0 31.753907 14.214844 31.753907 31.753906v59.386719c0 17.539062-14.214844 31.753906-31.753907 31.753906h-100.210937c-17.539063 0-31.757813-14.214844-31.757813-31.753906v-59.386719c0-17.539062 14.21875-31.753906 31.757813-31.753906zm0 0" fill="#c8ebff"/><path d="m89.941406 304.796875h111.847656c2.800782 0 5.074219 2.273437 5.074219 5.074219v202.128906h-121.996093v-202.128906c0-2.800782 2.273437-5.074219 5.074218-5.074219zm0 0" fill="#7393d8"/><path d="m167.527344 354.539062c0 11.964844-9.699219 21.664063-21.664063 21.664063-11.960937 0-21.660156-9.699219-21.660156-21.664063 0-11.964843 9.699219-21.660156 21.660156-21.660156 11.964844 0 21.664063 9.695313 21.664063 21.660156zm0 0" fill="#c8ebff"/><path d="m370.882812 294.652344h-100.210937c-21.707031 0-39.367187 17.660156-39.367187 39.367187v59.386719c0 21.707031 17.660156 39.367188 39.367187 39.367188h100.210937c21.707032 0 39.367188-17.660157 39.367188-39.367188v-59.386719c0-21.707031-17.660156-39.367187-39.367188-39.367187zm24.144532 39.367187v22.082031h-66.640625v-46.222656h42.496093c13.3125-.003906 24.144532 10.828125 24.144532 24.140625zm-124.355469-24.144531h42.492187v46.226562h-66.636718v-22.082031c0-13.3125 10.828125-24.144531 24.144531-24.144531zm-24.144531 83.53125v-22.082031h66.636718v46.226562h-42.492187c-13.316406 0-24.144531-10.832031-24.144531-24.144531zm124.355468 24.144531h-42.492187v-46.226562h66.636719v22.082031c0 13.3125-10.832032 24.144531-24.144532 24.144531zm0 0" fill="#40c6c2"/><path d="m468.855469 214.746094h-453.132813c-8.40625 0-15.222656-6.816406-15.222656-15.222656v-93.058594c0-8.40625 6.816406-15.222656 15.222656-15.222656h453.132813c8.410156 0 15.222656 6.816406 15.222656 15.222656v93.058594c0 8.40625-6.8125 15.222656-15.222656 15.222656zm0 0" fill="#7393d8"/><path d="m173.996094 112.117188c0 49.324218 39.988281 89.308593 89.308594 89.308593 49.324218 0 89.308593-39.984375 89.308593-89.308593 0-7.1875-.855469-14.179688-2.457031-20.875h-173.699219c-1.605469 6.695312-2.460937 13.6875-2.460937 20.875zm0 0" fill="#3d6fb7"/><path d="m468.855469 91.242188h-27.804688c8.410157 0 15.222657 6.816406 15.222657 15.222656v93.058594c0 8.40625-6.8125 15.222656-15.222657 15.222656h27.804688c8.410156 0 15.222656-6.816406 15.222656-15.222656v-93.058594c0-8.40625-6.8125-15.222656-15.222656-15.222656zm0 0" fill="#3d6fb7"/><path d="m331.757812 96.921875c0 49.320313-39.988281 89.304687-89.308593 89.304687-49.324219 0-89.308594-39.984374-89.308594-89.304687 0-49.324219 39.984375-89.308594 89.308594-89.308594 49.320312 0 89.308593 39.984375 89.308593 89.308594zm0 0" fill="#f2f2f2"/><path d="m242.449219 193.839844c-53.441407 0-96.921875-43.480469-96.921875-96.921875 0-53.441407 43.480468-96.917969 96.921875-96.917969 53.441406 0 96.917969 43.476562 96.917969 96.921875 0 53.441406-43.476563 96.917969-96.917969 96.917969zm0-178.617188c-45.046875 0-81.695313 36.648438-81.695313 81.699219 0 45.046875 36.648438 81.695313 81.695313 81.695313s81.695312-36.648438 81.695312-81.695313c0-45.050781-36.648437-81.699219-81.695312-81.699219zm0 0" fill="#40c6c2"/><g fill="#c47f6a"><path d="m243.042969 91.390625c-10.460938-.152344-20.636719 4.136719-28.664063 12.050781-8.929687 8.808594-14.050781 20.855469-14.050781 33.054688v.15625c.015625 4.679687 2.199219 8.949218 5.992187 11.71875 3.816407 2.789062 8.789063 3.601562 13.304688 2.179687 15.144531-4.773437 30.503906-4.773437 45.648438 0 1.464843.460938 2.980468.6875 4.488281.6875 3.136719 0 6.246093-.980469 8.824219-2.863281 3.777343-2.757812 5.960937-7.007812 5.984374-11.660156 0-.484375-.003906-.96875-.019531-1.445313-.667969-23.480469-19.675781-43.574219-41.507812-43.878906zm0 0"/><path d="m242.449219 82.617188c9.632812 0 17.472656-8.980469 17.472656-20.011719 0-11.035157-7.839844-20.015625-17.472656-20.015625-9.636719 0-17.472657 8.980468-17.472657 20.015625 0 11.035156 7.835938 20.011719 17.472657 20.011719zm0 0"/><path d="m214.28125 95.097656c7.160156-6.449218 6.976562-18.363281-.40625-26.566406-3.460938-3.839844-8.007812-6.34375-12.804688-7.042969-5.070312-.742187-10.019531.667969-13.570312 3.863281-7.160156 6.449219-6.976562 18.363282.40625 26.5625 4.269531 4.742188 10.023438 7.21875 15.503906 7.21875 4 .003907 7.851563-1.316406 10.871094-4.035156zm0 0"/><path d="m297.398438 65.351562c-7.164063-6.445312-18.996094-5.019531-26.378907 3.179688-7.382812 8.203125-7.566406 20.117188-.40625 26.566406 3.023438 2.71875 6.871094 4.039063 10.871094 4.039063 5.480469 0 11.238281-2.480469 15.503906-7.21875 7.386719-8.203125 7.570313-20.117188.410157-26.566407zm0 0"/></g></svg>