<svg height="512pt" viewBox="0 0 512 512.001" width="512pt" xmlns="http://www.w3.org/2000/svg"><path d="m479.445312 265.566406h-447.308593c-4.140625 0-7.496094 3.355469-7.496094 7.5v231.4375c0 4.140625 3.355469 7.496094 7.496094 7.496094h447.308593c4.140626 0 7.496094-3.355469 7.496094-7.496094v-231.4375c0-4.144531-3.355468-7.5-7.496094-7.5zm0 0" fill="#e0e0e0"/><path d="m479.445312 265.566406h-447.308593c-4.140625 0-7.496094 3.355469-7.496094 7.5v26.988282h462.300781v-26.988282c0-4.144531-3.355468-7.5-7.496094-7.5zm0 0" fill="#ccc"/><path d="m425.457031 312.390625h-179.746093c-4.140626 0-7.496094 3.355469-7.496094 7.496094v132.699219c0 4.140624 3.355468 7.496093 7.496094 7.496093h179.746093c4.140625 0 7.496094-3.355469 7.496094-7.496093v-132.699219c0-4.140625-3.355469-7.496094-7.496094-7.496094zm0 0" fill="#6bdafc"/><path d="m425.457031 312.390625h-26.988281v147.691406h26.988281c4.140625 0 7.496094-3.355469 7.496094-7.496093v-132.699219c0-4.140625-3.355469-7.496094-7.496094-7.496094zm0 0" fill="#1cc8e5"/><path d="m510.015625 222.648438-71.972656-93.144532c-1.421875-1.835937-3.613281-2.910156-5.933594-2.910156h-352.636719c-2.320312 0-4.515625 1.074219-5.933594 2.910156l-71.972656 93.144532c-1.75 2.261718-2.058594 5.320312-.796875 7.886718 1.257813 2.566406 3.867188 4.195313 6.726563 4.195313h496.585937c2.859375 0 5.46875-1.628907 6.730469-4.195313s.949219-5.625-.796875-7.886718zm0 0" fill="#e93234"/><path d="m255.789062 0c-57.328124 0-103.96875 46.640625-103.96875 103.96875s46.640626 103.96875 103.96875 103.96875c57.328126 0 103.96875-46.640625 103.96875-103.96875s-46.640624-103.96875-103.96875-103.96875zm0 0" fill="#ffd039"/><path d="m504.082031 219.734375h-496.582031c-4.140625 0-7.5 3.355469-7.5 7.496094v45.835937c0 4.140625 3.359375 7.496094 7.5 7.496094h496.582031c4.140625 0 7.496094-3.355469 7.496094-7.496094v-45.835937c0-4.140625-3.355469-7.496094-7.496094-7.496094zm0 0" fill="#bf161c"/><path d="m140.523438 312.390625c-34.132813 0-61.898438 27.765625-61.898438 61.894531v130.21875c0 4.140625 3.359375 7.496094 7.5 7.496094h108.796875c4.140625 0 7.496094-3.355469 7.496094-7.496094v-130.21875c0-34.128906-27.765625-61.894531-61.894531-61.894531zm0 0" fill="#494949"/><path d="m140.523438 312.390625c-5.914063 0-11.632813.851563-17.050782 2.40625 25.859375 7.425781 44.839844 31.273437 44.839844 59.488281v130.21875c0 4.140625-3.355469 7.496094-7.496094 7.496094h34.105469c4.140625 0 7.496094-3.355469 7.496094-7.496094v-130.21875c0-34.128906-27.765625-61.894531-61.894531-61.894531zm0 0" fill="#353535"/><path d="m232.851562 81.601562-27.136718 27.109376c-12.652344 12.628906-12.664063 33.199218-.03125 45.851562.003906.003906.007812.007812.011718.011719 12.636719 12.632812 33.195313 12.644531 45.839844.015625l27.164063-27.128906c.003906-.003907.003906-.003907.003906-.003907zm0 0" fill="#f9f1ef"/><path d="m315.378906 77.410156c.007813-8.660156-3.359375-16.804687-9.480468-22.933594-.003907-.007812-.007813-.011718-.015626-.015624-12.632812-12.632813-33.191406-12.640626-45.835937-.015626l-27.164063 27.132813c-.011718.007813-.019531.019531-.027343.027344l45.851562 45.851562c-.003906 0-.003906 0-.003906.003907l27.164063-27.132813c6.128906-6.121094 9.507812-14.261719 9.511718-22.917969zm0 0" fill="#e93234"/><path d="m278.703125 127.457031-24.367187-24.371093c0 .003906 0 .003906-.003907.003906l-27.164062 27.132812c-8.167969 8.15625-19.632813 11.03125-30.136719 8.648438 1.308594 5.753906 4.183594 11.21875 8.652344 15.691406.003906.003906.007812.007812.011718.011719 12.636719 12.632812 33.195313 12.644531 45.839844.015625l27.164063-27.128906c.003906-.003907.003906-.003907.003906-.003907zm0 0" fill="#ccc"/><path d="m315.378906 77.410156c.007813-8.660156-3.359375-16.804687-9.480468-22.933594-.003907-.007812-.007813-.011718-.015626-.015624-4.46875-4.46875-9.929687-7.351563-15.683593-8.660157.53125 2.351563.8125 4.773438.8125 7.238281-.003907 8.660157-3.382813 16.800782-9.511719 22.921876l-27.164062 27.125 24.367187 24.371093s0 0-.003906.003907l27.167969-27.132813c6.128906-6.121094 9.507812-14.261719 9.511718-22.917969zm0 0" fill="#bf161c"/><path d="m109.75 436.113281c-4.140625 0-7.496094-3.359375-7.496094-7.5v-16.417969c0-4.144531 3.355469-7.5 7.496094-7.5s7.496094 3.355469 7.496094 7.5v16.417969c0 4.140625-3.355469 7.5-7.496094 7.5zm0 0" fill="#353535"/></svg>