<svg id="Capa_1" enable-background="new 0 0 512 512" height="512" viewBox="0 0 512 512" width="512" xmlns="http://www.w3.org/2000/svg"><path d="m380.472 358.352h-248.944c-44.883 0-85.313 27.131-102.324 68.665l-28.395 69.327c-2.882 7.036 2.293 14.747 9.896 14.747h490.591c7.603 0 12.778-7.711 9.896-14.747l-28.395-69.328c-17.012-41.534-57.443-68.664-102.325-68.664z" fill="#62b4fd"/><path d="m511.191 496.344-28.395-69.328c-17.011-41.534-57.442-68.665-102.324-68.665h-68.114c44.883 0 85.313 27.131 102.324 68.665l28.395 69.328c2.882 7.036-2.293 14.747-9.896 14.747h68.114c7.603 0 12.778-7.711 9.896-14.747z" fill="#27a2fb"/><path d="m263.673 446.853 51.096-88.501h-117.538l51.096 88.501c3.41 5.907 11.936 5.907 15.346 0z" fill="#dfdfdf"/><path d="m288.101 358.352-45.435 78.697 5.661 9.805c3.41 5.907 11.936 5.907 15.347 0l51.096-88.501h-26.669z" fill="#c8c1c9"/><path d="m15.531 460.399 5.842 12.546c1.913 4.108 6.652 6.068 10.908 4.511l25.256-9.241c6.658-2.436 11.989-7.551 14.698-14.103l15.057-36.41c2.951-7.137-.442-15.315-7.578-18.266l-24.779-10.247c-10.909 10.474-19.765 23.26-25.731 37.827z" fill="#e7b467"/><path d="m79.714 399.436-7.884-3.26c-.039 1.677-.367 3.374-1.047 5.017l-15.057 36.41c-2.709 6.551-8.041 11.667-14.698 14.103l-25.244 9.236 5.589 12.003c1.913 4.108 6.652 6.068 10.908 4.511l25.256-9.241c6.658-2.436 11.989-7.551 14.698-14.103l15.057-36.41c2.952-7.136-.441-15.314-7.578-18.266z" fill="#c89b58"/><path d="m180.222 466.473h-57.712c-4.285 0-7.759-3.474-7.759-7.759s3.474-7.759 7.759-7.759h57.712c4.285 0 7.759 3.474 7.759 7.759s-3.473 7.759-7.759 7.759z" fill="#e0dde2"/><path d="m482.796 427.016c-5.966-14.567-14.822-27.352-25.731-37.827l-24.779 10.247c-7.137 2.951-10.53 11.129-7.578 18.266l15.057 36.41c2.709 6.551 8.041 11.667 14.698 14.103l25.256 9.241c4.256 1.557 8.995-.403 10.908-4.511l5.842-12.546z" fill="#e7b467"/><path d="m482.796 427.016c-5.966-14.567-14.822-27.352-25.731-37.827l-16.692 6.903c7.909 9.024 14.432 19.415 19.146 30.924l11.863 28.963c1.154 2.818 1.079 5.989-.206 8.749l-3.82 8.204 12.364 4.524c4.256 1.557 8.995-.403 10.908-4.511l5.842-12.546z" fill="#c89b58"/><path d="m286.527 396.159h-61.054c-17.673 0-32-14.327-32-32v-98.082h125.054v98.082c0 17.673-14.327 32-32 32z" fill="#873e2f"/><path d="m284.253 266.077v96.717c0 18.427-14.938 33.365-33.365 33.365h35.638c17.673 0 32-14.327 32-32v-98.082z" fill="#6d3326"/><path d="m218.443 395.092-49.808 23.082c-5.275 2.444-11.305-1.408-11.305-7.221v-46.986c0-3.583 1.483-7.005 4.098-9.455l32.046-30.029z" fill="#b3d8fb"/><path d="m193.473 324.483-12.115 11.352 15.877 44.896c1.246 3.522-.393 7.414-3.783 8.985l-36.123 16.74v4.497c0 5.814 6.03 9.665 11.305 7.221l49.808-23.082z" fill="#89c6fc"/><path d="m346.225 204.758c-5.067-.799-10.127 1.438-14.255 5.711v-68.787h-151.939v68.787c-4.128-4.272-9.189-6.51-14.255-5.711-10.338 1.631-16.777 15.267-14.38 30.456 2.305 14.609 18.224 24.337 28.636 23.609v14.089c0 13.314 6.526 25.783 17.466 33.372l28.954 20.083c17.771 12.327 41.327 12.327 59.098 0l28.954-20.083c10.94-7.589 17.466-20.057 17.466-33.372v-14.089c10.412.728 26.331-9 28.636-23.609 2.395-15.189-4.043-28.825-14.381-30.456z" fill="#b95e4b"/><path d="m293.556 395.092 49.808 23.082c5.275 2.444 11.305-1.408 11.305-7.221v-46.986c0-3.583-1.483-7.005-4.098-9.455l-32.046-30.029z" fill="#b3d8fb"/><path d="m350.572 354.512-10.741-10.065v43.186c0 5.29-5.487 8.795-10.287 6.571l-30.651-14.204-5.337 15.092 49.808 23.082c5.275 2.444 11.305-1.408 11.305-7.221v-46.986c.001-3.583-1.482-7.005-4.097-9.455z" fill="#89c6fc"/><path d="m346.225 204.758c-5.067-.799-10.127 1.438-14.255 5.711v-68.787h-25.124v116.258c0 13.314-6.526 25.783-17.466 33.372l-28.954 20.084c-13.726 9.52-30.9 11.68-46.197 6.494l12.223 8.478c17.771 12.327 41.327 12.327 59.098 0l28.954-20.084c10.94-7.588 17.466-20.057 17.466-33.372v-14.089c10.412.728 26.331-9 28.636-23.609 2.395-15.189-4.043-28.825-14.381-30.456z" fill="#a24e3d"/><path d="m244.258 2.821-96.528 38.881c-6.625 2.668-11.86 7.945-14.477 14.59l-20.486 52.019c-2.505 6.361-.392 13.611 5.138 17.63l71.416 51.902h129.608l71.416-51.902c5.53-4.019 7.643-11.269 5.138-17.63l-20.486-52.019c-2.617-6.645-7.853-11.922-14.477-14.59l-96.528-38.881c-6.331-2.55-13.403-2.55-19.734 0z" fill="#b3d8fb"/><path d="m395.483 108.311-20.344-51.659c-2.708-6.875-8.124-12.333-14.978-15.094l-21.736-8.755 25.734 65.345c2.57 6.526.402 13.964-5.272 18.088l-84.771 61.607h44.811l71.416-51.902c5.532-4.019 7.645-11.269 5.14-17.63z" fill="#89c6fc"/><path d="m374.679 55.485-113.977 122.358h58.227l71.416-51.902c5.53-4.019 7.643-11.269 5.138-17.63z" fill="#89c6fc"/><path d="m133.571 55.485-20.804 52.826c-2.505 6.361-.392 13.611 5.138 17.63l71.416 51.902h58.227z" fill="#89c6fc"/><path d="m395.483 108.311-20.804-52.826-19.203 20.615 8.683 22.049c2.57 6.526.402 13.965-5.272 18.088l-84.771 61.607h44.811l71.416-51.902c5.532-4.02 7.645-11.27 5.14-17.631z" fill="#62b4fd"/><path d="m342.204 165.367h-176.158v-54.319c0-2.636 1.326-5.092 3.531-6.537 9.396-6.159 37.551-21.53 84.548-21.53s75.152 15.371 84.548 21.53c2.205 1.445 3.531 3.901 3.531 6.537z" fill="#62b4fd"/><path d="m338.673 104.511c-9.396-6.159-37.55-21.53-84.548-21.53-6.176 0-12.017.271-17.542.746 36.522 3.14 58.844 15.434 67.006 20.784 2.205 1.445 3.531 3.901 3.531 6.537v54.319h35.085v-54.319c-.001-2.636-1.327-5.092-3.532-6.537z" fill="#27a2fb"/><path d="m342.204 169.181c0 7.636-4.379 14.583-11.257 17.9-13.223 6.376-38.363 15.114-76.821 15.114s-63.598-8.739-76.821-15.114c-6.878-3.316-11.257-10.264-11.257-17.9v-15.69h176.157v15.69z" fill="#695e66"/><path d="m307.119 153.491v15.69c0 7.636-4.379 14.583-11.257 17.9-11.094 5.349-30.581 12.359-59.279 14.478 5.508.407 11.35.636 17.542.636 38.459 0 63.598-8.739 76.821-15.114 6.878-3.316 11.257-10.264 11.257-17.9v-15.69z" fill="#554e57"/><path d="m166.046 138.32h176.157v24.282h-176.157z" fill="#8f818f"/><path d="m307.119 138.32h35.085v24.282h-35.085z" fill="#695e66"/><circle cx="342.204" cy="151.16" fill="#f9c36e" r="14.386"/><circle cx="166.046" cy="151.16" fill="#f9c36e" r="14.386"/><path d="m346.549 137.444c.434 1.371.669 2.83.669 4.345 0 7.945-6.441 14.386-14.386 14.386-1.515 0-2.974-.236-4.345-.67 1.842 5.821 7.286 10.041 13.716 10.041 7.945 0 14.386-6.441 14.386-14.386 0-6.43-4.219-11.874-10.04-13.716z" fill="#d7a85f"/><path d="m170.391 137.444c.434 1.371.67 2.83.67 4.345 0 7.945-6.441 14.386-14.386 14.386-1.515 0-2.974-.236-4.345-.67 1.842 5.821 7.286 10.041 13.716 10.041 7.945 0 14.386-6.441 14.386-14.386 0-6.43-4.22-11.874-10.041-13.716z" fill="#d7a85f"/><path d="m286.523 67.021c0-6.236-1.764-12.059-4.819-17-2.749-4.447-2.336-10.149 1.189-14.01l2.817-3.086c.722-.792.695-2.011-.063-2.769l-6.483-6.483c-.84-.84-2.243-.796-2.979.136-2.623 3.324-6.686 5.458-11.249 5.458-3.614 0-6.914-1.34-9.434-3.549-.792-.694-1.963-.694-2.755 0-2.52 2.209-5.819 3.549-9.434 3.549-4.58 0-8.656-2.15-11.278-5.495-.734-.937-2.142-.983-2.983-.141l-6.449 6.448c-.758.758-.786 1.978-.063 2.769l2.84 3.112c3.53 3.868 3.941 9.58 1.183 14.031-3.066 4.947-4.837 10.78-4.837 17.029 0 12.096 6.629 22.642 16.452 28.207 6.034 3.418 11.013 8.428 14.638 14.34.599.977 2.019.977 2.618 0 3.625-5.912 8.604-10.922 14.638-14.34 9.822-5.564 16.451-16.11 16.451-28.206z" fill="#f9c36e"/><path d="m281.704 50.022c-2.749-4.447-2.336-10.149 1.189-14.01l2.817-3.086c.722-.792.695-2.011-.063-2.769l-6.483-6.483c-.84-.84-2.243-.796-2.979.136-2.623 3.324-6.686 5.458-11.249 5.458-1.101 0-2.167-.138-3.196-.373l-.787.863c-3.821 4.187-4.269 10.369-1.289 15.19 3.312 5.357 5.225 11.669 5.225 18.431 0 13.114-7.187 24.548-17.837 30.581-1.862 1.055-3.628 2.254-5.298 3.572 4.442 3.213 8.181 7.338 11.062 12.037.599.977 2.019.977 2.618 0 3.625-5.912 8.604-10.922 14.638-14.34 9.823-5.565 16.452-16.111 16.452-28.207-.001-6.237-1.765-12.059-4.82-17z" fill="#d7a85f"/><g fill="#6d3326"><path d="m278.566 280.838h-41.984c-4.285 0-7.759-3.474-7.759-7.759s3.474-7.759 7.759-7.759h41.984c4.285 0 7.759 3.474 7.759 7.759s-3.474 7.759-7.759 7.759z"/><circle cx="217.39" cy="217.054" r="12.456"/><circle cx="292.551" cy="217.054" r="12.456"/></g></svg>