<svg height="512pt" viewBox="-52 0 512 512.00022" width="512pt" xmlns="http://www.w3.org/2000/svg"><path d="m387.683594 113.105469c-11.589844-.414063-21.113282 8.859375-21.113282 20.351562v-82.632812c0-11.042969-8.585937-20.449219-19.625-20.84375-11.585937-.410157-21.109374 8.859375-21.109374 20.355469v-29.480469c0-11.042969-8.585938-20.449219-19.625-20.8437502-11.585938-.4101568-21.109376 8.8593752-21.109376 20.3554692v29.96875c0-11.496094-9.523437-20.765626-21.109374-20.355469-11.035157.394531-19.625 9.800781-19.625 20.84375v41.023437c0-11.492187-9.523438-20.765625-21.109376-20.351562-11.035156.390625-19.625 9.796875-19.625 20.839844v131.054687c0 29.984375 12.960938 56.9375 33.582032 75.570313 3.652344 3.300781 5.8125 7.945312 5.8125 12.867187v38.265625h124.886718v-38.265625c0-4.921875 2.15625-9.5625 5.808594-12.867187 20.621094-18.632813 33.582032-45.585938 33.582032-75.570313v-89.445313c0-11.042968-8.585938-20.449218-19.621094-20.839843zm0 0" fill="#ffcebf"/><path d="m263.3125 298.964844c-20.621094-18.636719-33.582031-45.589844-33.582031-75.574219v-131.054687c0-6.363282 2.863281-12.171876 7.390625-16.035157-3.71875-3.144531-8.570313-4.992187-13.863282-4.804687-11.039062.390625-19.625 9.796875-19.625 20.839844v131.054687c0 29.984375 12.960938 56.9375 33.582032 75.570313 3.652344 3.300781 5.808594 7.945312 5.808594 12.867187v38.265625h26.097656v-38.261719c.003906-4.925781-2.152344-9.566406-5.808594-12.867187zm0 0" fill="#ffb19f"/><path d="m184.046875 71.496094c-11.585937-.414063-21.109375 8.859375-21.109375 20.351562v-41.023437c0-11.042969-8.585938-20.449219-19.625-20.84375-11.585938-.410157-21.109375 8.859375-21.109375 20.355469v-29.480469c0-11.042969-8.589844-20.449219-19.625-20.8437502-11.585937-.4101568-21.109375 8.8593752-21.109375 20.3554692v29.96875c0-11.496094-9.523438-20.765626-21.109375-20.355469-11.039063.394531-19.625 9.800781-19.625 20.84375v82.632812c0-11.496093-9.523437-20.765625-21.109375-20.355469-11.039062.394532-19.625 9.800782-19.625 20.84375v89.445313c0 29.980469 12.960938 56.933594 33.582031 75.570313 3.652344 3.300781 5.8125 7.941406 5.8125 12.867187v33.109375h124.886719v-33.105469c0-4.925781 2.15625-9.566406 5.808594-12.867187 20.625-18.636719 33.585937-45.589844 33.585937-75.574219v-131.054687c-.003906-11.042969-8.589843-20.449219-19.628906-20.839844zm0 0" fill="#ffcebf"/><g fill="#ffb19f"><path d="m59.679688 298.960938c-20.621094-18.632813-33.582032-45.585938-33.582032-75.570313v-89.445313c0-6.363281 2.863282-12.171874 7.390625-16.035156-3.71875-3.144531-8.570312-4.992187-13.863281-4.804687-11.039062.394531-19.625 9.796875-19.625 20.839843v89.445313c0 29.984375 12.960938 56.9375 33.582031 75.570313 3.652344 3.300781 5.8125 7.945312 5.8125 12.867187v33.113281h26.097657v-33.113281c-.003907-4.921875-2.15625-9.566406-5.8125-12.867187zm0 0"/><path d="m392.320312 181.078125v-67.230469c-1.484374-.417968-3.03125-.6875-4.640624-.742187-11.585938-.414063-21.109376 8.859375-21.109376 20.351562v-82.632812c0-.023438-.003906-.042969-.003906-.066407v130.320313c0 1.640625-1.105468 3.054687-2.753906 3.515625-12.847656 3.601562-35.789062 14.1875-45.085938 44.582031-2.082031 6.800781 1.746094 14 8.546876 16.082031 1.253906.382813 2.523437.566407 3.769531.566407 5.515625 0 10.613281-3.566407 12.308593-9.113281 4.359376-14.25 13.582032-23.4375 27.414063-27.316407 12.691406-3.558593 21.554687-15.203125 21.554687-28.316406zm0 0"/><path d="m387.683594 113.105469c-11.589844-.414063-21.113282 8.859375-21.113282 20.351562v47.625c0 1.640625-1.109374 3.050781-2.757812 3.515625-12.847656 3.601563-35.789062 14.183594-45.085938 44.582032-2.078124 6.800781 1.746094 14 8.546876 16.078124 1.253906.382813 2.523437.566407 3.773437.566407 5.511719 0 10.609375-3.566407 12.308594-9.113281 4.359375-14.246094 13.578125-23.4375 27.410156-27.316407 12.695313-3.558593 21.558594-15.203125 21.558594-28.3125v-67.234375c-1.488281-.417968-3.035157-.6875-4.640625-.742187zm0 0"/><path d="m346.945312 29.980469c-11.585937-.410157-21.109374 8.859375-21.109374 20.355469v118.367187c0 7.109375 5.765624 12.875 12.875 12.875 7.109374 0 12.878906-5.765625 12.878906-12.875v-137.976563c-1.488282-.417968-3.035156-.6875-4.644532-.746093zm0 0"/><path d="m297.976562 181.578125c7.113282 0 12.875-5.765625 12.875-12.875v-167.945313c-1.484374-.417968-3.03125-.6874995-4.640624-.742187-11.585938-.414063-21.109376 8.859375-21.109376 20.351563v29.96875c0-.019532-.003906-.042969-.003906-.0625v118.429687c0 7.109375 5.765625 12.875 12.878906 12.875zm0 0"/><path d="m244.363281 168.703125c0 7.109375 5.765625 12.875 12.878907 12.875 7.109374 0 12.875-5.765625 12.875-12.875v-138.007813c-1.941407-.53125-3.996094-.789062-6.125-.710937-11.039063.390625-19.625 9.796875-19.625 20.84375v41.023437c0-.023437-.003907-.046874-.003907-.066406zm0 0"/></g><path d="m15.910156 405.734375v96.976563c0 5.128906 4.15625 9.289062 9.289063 9.289062h153.273437c5.132813 0 9.289063-4.160156 9.289063-9.289062v-96.976563zm0 0" fill="#00d1fc"/><path d="m187.765625 377.535156v-23.304687c0-5.128907-4.160156-9.289063-9.289063-9.289063h-153.277343c-5.132813 0-9.289063 4.160156-9.289063 9.289063v23.304687zm0 0" fill="#00d1fc"/><path d="m46.8125 377.535156v-23.304687c0-5.128907 4.160156-9.289063 9.289062-9.289063h-30.902343c-5.132813 0-9.289063 4.160156-9.289063 9.289063v23.304687zm0 0" fill="#00c1fb"/><path d="m46.8125 502.710938v-96.976563h-30.902344v96.976563c0 5.128906 4.15625 9.289062 9.289063 9.289062h30.902343c-5.128906 0-9.289062-4.160156-9.289062-9.289062zm0 0" fill="#00c1fb"/><path d="m15.910156 376.070312h171.855469v31.128907h-171.855469zm0 0" fill="#00aaf2"/><path d="m15.910156 376.070312h30.902344v31.128907h-30.902344zm0 0" fill="#3c88d1"/><path d="m94.347656 181.578125c7.109375 0 12.875-5.765625 12.875-12.875v-167.945313c-1.484375-.417968-3.035156-.6874995-4.644531-.742187-11.585937-.414063-21.109375 8.855469-21.109375 20.351563v148.335937c0 7.109375 5.765625 12.875 12.878906 12.875zm0 0" fill="#ffb19f"/><path d="m135.082031 181.578125c7.109375 0 12.875-5.765625 12.875-12.875v-137.976563c-1.484375-.417968-3.035156-.6875-4.644531-.742187-11.585938-.414063-21.105469 8.855469-21.109375 20.351563v118.367187c0 7.109375 5.765625 12.875 12.878906 12.875zm0 0" fill="#ffb19f"/><path d="m175.816406 181.578125c7.113282 0 12.875-5.765625 12.875-12.875v-96.464844c-1.484375-.417969-3.035156-.683593-4.644531-.742187-11.585937-.410156-21.109375 8.859375-21.109375 20.351562v76.855469c0 7.109375 5.765625 12.875 12.878906 12.875zm0 0" fill="#ffb19f"/><path d="m60.359375 29.980469c-11.035156.394531-19.625 9.796875-19.625 20.84375v130.253906c0 13.113281 8.863281 24.757813 21.558594 28.316406 13.832031 3.878907 23.054687 13.066407 27.410156 27.316407 2.082031 6.800781 9.28125 10.625 16.082031 8.546874 6.800782-2.078124 10.628906-9.28125 8.546875-16.082031-9.296875-30.394531-32.238281-40.976562-45.089843-44.582031-1.644532-.460938-2.753907-1.875-2.753907-3.515625v-150.382813c-1.941406-.53125-4-.789062-6.128906-.714843zm0 0" fill="#ffb19f"/><path d="m391.398438 377.535156v-23.304687c0-5.128907-4.160157-9.289063-9.289063-9.289063h-153.277344c-5.132812 0-9.289062 4.160156-9.289062 9.289063v23.304687zm0 0" fill="#00d1fc"/><path d="m219.542969 405.734375v96.976563c0 5.128906 4.15625 9.289062 9.289062 9.289062h153.273438c5.132812 0 9.289062-4.160156 9.289062-9.289062v-96.976563zm0 0" fill="#00d1fc"/><path d="m250.445312 502.710938v-96.976563h-30.902343v96.976563c0 5.128906 4.15625 9.289062 9.289062 9.289062h30.902344c-5.128906 0-9.289063-4.160156-9.289063-9.289062zm0 0" fill="#00c1fb"/><path d="m250.445312 377.535156v-23.304687c0-5.128907 4.160157-9.289063 9.289063-9.289063h-30.902344c-5.132812 0-9.289062 4.160156-9.289062 9.289063v23.304687zm0 0" fill="#00c1fb"/><path d="m219.542969 376.070312h171.855469v31.128907h-171.855469zm0 0" fill="#00aaf2"/><path d="m219.542969 376.070312h30.902343v31.128907h-30.902343zm0 0" fill="#3c88d1"/></svg>