<svg id="Capa_1" enable-background="new 0 0 497 497" height="512" viewBox="0 0 497 497" width="512" xmlns="http://www.w3.org/2000/svg"><path d="m131.75 15v75c20.711 0 37.5-16.789 37.5-37.5s-16.789-37.5-37.5-37.5z" fill="#db3916"/><path d="m139.25 52.5c0-20.711-3.358-37.5-7.5-37.5-20.711 0-37.5 16.789-37.5 37.5s16.789 37.5 37.5 37.5c4.142 0 7.5-16.789 7.5-37.5z" fill="#fc5a37"/><path d="m365.25 407v75c20.711 0 37.5-16.789 37.5-37.5s-16.789-37.5-37.5-37.5z" fill="#db3916"/><path d="m372.75 444.5c0-20.711-3.358-37.5-7.5-37.5-20.711 0-37.5 16.789-37.5 37.5s16.789 37.5 37.5 37.5c4.142 0 7.5-16.789 7.5-37.5z" fill="#fc5a37"/><path d="m365.25 0 90.783 126.75-81.78 152.536 21.062 19.344c.454-7.274 3.538-14.16 8.721-19.344l54.375-54.375c24.884-24.884 38.589-57.97 38.589-93.161 0-72.647-59.103-131.75-131.75-131.75z" fill="#db3916"/><path d="m439.789 224.911c17.547-24.884 27.211-57.97 27.211-93.161 0-72.647-45.645-131.75-101.75-131.75-72.647 0-131.75 59.103-131.75 131.75 0 16.569 13.431 30 30 30s30-13.431 30-30c0-39.563 32.187-71.75 71.75-71.75s71.75 32.187 71.75 71.75c0 19.165-7.463 37.184-21.015 50.735l-54.374 54.374c-16.878 16.878-26.361 39.77-26.361 63.64v46.501c0 16.569 13.431 30 30 30s30-13.431 30-30v-46.5c0-.626.026-1.248.065-1.869.321-7.273 2.476-14.161 6.131-19.344z" fill="#fc5a37"/><path d="m233.5 335.25c-4.687 0-9.121 1.076-13.073 2.992v57.008l-88.677 101.75c72.647 0 131.75-59.103 131.75-131.75 0-16.569-13.431-30-30-30z" fill="#db3916"/><path d="m233.5 365.25c0-11.882-5.335-22.149-13.073-27.008-10.019 4.858-16.927 15.125-16.927 27.008 0 39.563-32.187 71.75-71.75 71.75s-71.75-32.187-71.75-71.75c0-19.165 7.463-37.184 21.015-50.735l54.374-54.374c16.878-16.878 26.361-39.77 26.361-63.64v-46.501c0-16.569-13.431-30-30-30s-30 13.431-30 30v46.5c0 7.956-3.161 15.587-8.787 21.213l-54.375 54.375c-24.883 24.885-38.588 57.971-38.588 93.162 0 72.647 59.103 131.75 131.75 131.75 56.105 0 101.75-59.103 101.75-131.75z" fill="#fc5a37"/></svg>