<svg id="Capa_1" enable-background="new 0 0 512 512" height="512" viewBox="0 0 512 512" width="512" xmlns="http://www.w3.org/2000/svg"><g><path d="m415.254 132.293-10.542-119.604c-.325-3.752-3.35-6.626-6.975-6.626h-144.827v126.23z" fill="#ffd301"/><path d="m385.902 132.293-7.676-126.23h-94.234l2.117 126.23z" fill="#665e68"/><path d="m283.992 6.063 2.117 126.23h31.56l-2.117-126.23z" fill="#554e56"/><g><path d="m331.534 54.948c-4.158 0-7.613-3.282-7.785-7.476l-.258-6.234c-.179-4.303 3.166-7.936 7.469-8.114 4.272-.173 7.935 3.166 8.113 7.469l.258 6.234c.179 4.303-3.166 7.936-7.469 8.114-.109.005-.22.007-.328.007z" fill="#dfebfa"/></g><path d="m333.766 108.731c-4.157 0-7.612-3.282-7.785-7.475l-.515-12.411c-.179-4.303 3.165-7.936 7.468-8.115 4.266-.175 7.936 3.165 8.114 7.468l.515 12.411c.179 4.303-3.165 7.936-7.468 8.115-.11.004-.22.007-.329.007z" fill="#dfebfa"/><path d="m422.703 220.073h-169.793v285.865h185.785c4.895 0 8.735-4.339 8.296-9.374z" fill="#ffd301"/><path d="m134.49 6.063h-20.226c-3.624 0-6.65 2.874-6.975 6.626l-10.543 119.604h30.289z" fill="#ffa90f"/><path d="m224.46 6.063-1.739 126.23h33.279v-126.23z" fill="#ffc20c"/><path d="m121.851 220.073h-32.553l-24.289 276.491c-.439 5.035 3.401 9.374 8.296 9.374h31.664z" fill="#ffa90f"/><path d="m221.511 220.073-3.939 285.864h38.428v-285.864z" fill="#ffc20c"/><path d="m287.528 220.073 4.782 285.864h116.069l-17.334-285.864z" fill="#665e68"/><path d="m287.528 220.073 4.782 285.864h31.56l-4.782-285.864z" fill="#554e56"/><path d="m225.891 132.293 2.118-126.23h-94.234l-7.676 126.23z" fill="#665e68"/><path d="m133.774 6.063-7.675 126.23h31.56l7.676-126.23z" fill="#554e56"/><path d="m120.956 220.073-17.335 285.864h116.07l4.782-285.864z" fill="#665e68"/><path d="m120.956 220.073-17.335 285.864h31.56l17.335-285.864z" fill="#554e56"/><g><path d="m23.361 273.865c-4.267 0-7.726-3.459-7.726-7.726v-69.721c0-15.553 12.653-28.206 28.206-28.206h14.847c4.267 0 7.726 3.459 7.726 7.726s-3.459 7.726-7.726 7.726h-14.847c-7.032 0-12.754 5.721-12.754 12.754v69.721c.001 4.267-3.458 7.726-7.726 7.726z" fill="#665e68"/></g><g><path d="m488.639 273.865c-4.267 0-7.726-3.459-7.726-7.726v-69.721c0-7.032-5.721-12.754-12.754-12.754h-14.848c-4.267 0-7.726-3.459-7.726-7.726s3.459-7.726 7.726-7.726h14.848c15.553 0 28.207 12.653 28.207 28.206v69.721c0 4.267-3.46 7.726-7.727 7.726z" fill="#665e68"/></g><path d="m444.946 220.648h-377.891c-6.863 0-12.477-5.615-12.477-12.477v-64.466c0-6.863 5.615-12.477 12.477-12.477h377.891c6.863 0 12.477 5.615 12.477 12.477v64.466c0 6.862-5.615 12.477-12.477 12.477z" fill="#43cb8e"/><path d="m103.886 208.171v-64.466c0-6.862 5.615-12.477 12.477-12.477h-49.308c-6.863 0-12.477 5.615-12.477 12.477v64.466c0 6.862 5.615 12.477 12.477 12.477h49.308c-6.863 0-12.477-5.615-12.477-12.477z" fill="#00ba66"/><path d="m347.157 431.428c-4.157 0-7.611-3.281-7.785-7.474l-.516-12.412c-.179-4.303 3.164-7.936 7.467-8.116 4.27-.179 7.936 3.164 8.115 7.468l.516 12.412c.18 4.303-3.164 7.937-7.467 8.116-.11.004-.221.006-.33.006z" fill="#dfebfa"/><path d="m344.925 377.645c-4.158 0-7.612-3.282-7.785-7.475l-.515-12.411c-.179-4.303 3.165-7.936 7.468-8.115 4.267-.165 7.935 3.165 8.114 7.468l.515 12.411c.179 4.303-3.165 7.936-7.468 8.115-.11.005-.219.007-.329.007z" fill="#dfebfa"/><path d="m342.693 323.862c-4.157 0-7.612-3.282-7.785-7.475l-.515-12.411c-.179-4.303 3.165-7.936 7.468-8.115 4.267-.171 7.935 3.165 8.114 7.468l.515 12.411c.179 4.303-3.165 7.936-7.468 8.115-.11.005-.219.007-.329.007z" fill="#dfebfa"/><path d="m340.461 270.079c-4.157 0-7.612-3.282-7.785-7.475l-.515-12.411c-.179-4.303 3.165-7.936 7.468-8.115 4.267-.177 7.935 3.165 8.114 7.468l.515 12.411c.179 4.303-3.165 7.936-7.468 8.115-.11.005-.219.007-.329.007z" fill="#dfebfa"/><g><path d="m349.132 479.033c-4.157 0-7.611-3.282-7.785-7.475l-.259-6.234c-.179-4.303 3.164-7.936 7.467-8.115 4.309-.173 7.936 3.165 8.115 7.468l.259 6.234c.179 4.303-3.164 7.936-7.467 8.115-.111.005-.221.007-.33.007z" fill="#dfebfa"/></g><g><path d="m180.466 54.948c-.109 0-.219-.002-.329-.007-4.303-.179-7.647-3.812-7.468-8.115l.259-6.234c.179-4.303 3.808-7.637 8.115-7.468 4.303.179 7.647 3.812 7.468 8.115l-.259 6.234c-.174 4.194-3.629 7.475-7.786 7.475z" fill="#dfebfa"/></g><g fill="#dfebfa"><path d="m164.844 431.428c-.109 0-.218-.002-.329-.007-4.303-.179-7.647-3.812-7.468-8.115l.515-12.412c.179-4.303 3.79-7.649 8.115-7.468 4.303.179 7.647 3.812 7.468 8.115l-.515 12.412c-.174 4.192-3.629 7.475-7.786 7.475z"/><path d="m167.076 377.645c-.109 0-.218-.002-.329-.007-4.303-.179-7.647-3.812-7.468-8.115l.515-12.411c.179-4.303 3.785-7.642 8.115-7.468 4.303.179 7.647 3.812 7.468 8.115l-.515 12.411c-.174 4.192-3.629 7.475-7.786 7.475z"/><path d="m169.307 323.862c-.109 0-.219-.002-.329-.007-4.303-.179-7.647-3.812-7.468-8.115l.515-12.411c.179-4.303 3.815-7.641 8.115-7.468 4.303.179 7.647 3.812 7.468 8.115l-.515 12.411c-.174 4.193-3.628 7.475-7.786 7.475z"/><path d="m171.539 270.079c-.109 0-.219-.002-.329-.007-4.303-.179-7.647-3.812-7.468-8.115l.515-12.411c.179-4.303 3.806-7.638 8.115-7.468 4.303.179 7.647 3.812 7.468 8.115l-.515 12.411c-.174 4.193-3.629 7.475-7.786 7.475z"/><path d="m178.234 108.731c-.109 0-.218-.002-.329-.007-4.303-.179-7.647-3.812-7.468-8.115l.515-12.411c.179-4.303 3.799-7.652 8.115-7.468 4.303.179 7.647 3.812 7.468 8.115l-.515 12.411c-.174 4.192-3.628 7.475-7.786 7.475z"/></g><g><path d="m162.868 479.033c-.109 0-.218-.002-.328-.007-4.303-.179-7.647-3.811-7.469-8.115l.258-6.234c.178-4.303 3.799-7.645 8.115-7.469 4.303.179 7.647 3.811 7.469 8.115l-.258 6.234c-.175 4.193-3.629 7.476-7.787 7.476z" fill="#dfebfa"/></g><g><path d="m123.321 169.107h-11.709c-4.267 0-7.726-3.459-7.726-7.726s3.459-7.726 7.726-7.726h11.709c4.267 0 7.726 3.459 7.726 7.726s-3.459 7.726-7.726 7.726z" fill="#dfebfa"/></g><g><path d="m221.06 169.107h-66.892c-4.267 0-7.726-3.459-7.726-7.726s3.459-7.726 7.726-7.726h66.892c4.267 0 7.726 3.459 7.726 7.726s-3.459 7.726-7.726 7.726z" fill="#dfebfa"/></g><g><path d="m123.321 198.221h-11.709c-4.267 0-7.726-3.459-7.726-7.726s3.459-7.726 7.726-7.726h11.709c4.267 0 7.726 3.459 7.726 7.726.001 4.266-3.459 7.726-7.726 7.726z" fill="#dfebfa"/></g><g><path d="m221.06 198.221h-66.892c-4.267 0-7.726-3.459-7.726-7.726s3.459-7.726 7.726-7.726h66.892c4.267 0 7.726 3.459 7.726 7.726.001 4.266-3.459 7.726-7.726 7.726z" fill="#dfebfa"/></g><g><path d="m302.649 169.107h-11.709c-4.267 0-7.726-3.459-7.726-7.726s3.459-7.726 7.726-7.726h11.709c4.267 0 7.726 3.459 7.726 7.726s-3.459 7.726-7.726 7.726z" fill="#dfebfa"/></g><g><path d="m400.389 169.107h-66.893c-4.267 0-7.726-3.459-7.726-7.726s3.459-7.726 7.726-7.726h66.893c4.267 0 7.726 3.459 7.726 7.726s-3.459 7.726-7.726 7.726z" fill="#dfebfa"/></g><g><path d="m302.649 198.221h-11.709c-4.267 0-7.726-3.459-7.726-7.726s3.459-7.726 7.726-7.726h11.709c4.267 0 7.726 3.459 7.726 7.726.001 4.266-3.459 7.726-7.726 7.726z" fill="#dfebfa"/></g><g><path d="m400.389 198.221h-66.893c-4.267 0-7.726-3.459-7.726-7.726s3.459-7.726 7.726-7.726h66.893c4.267 0 7.726 3.459 7.726 7.726 0 4.266-3.459 7.726-7.726 7.726z" fill="#dfebfa"/></g><path d="m504.323 315.938v-47.496c0-4.099-3.354-7.454-7.454-7.454h-16.461c-4.1 0-7.454 3.354-7.454 7.454v47.496z" fill="#b7aeb8"/><path d="m39.046 315.938v-47.496c0-4.099-3.354-7.454-7.454-7.454h-16.461c-4.1 0-7.454 3.354-7.454 7.454v47.496z" fill="#b7aeb8"/><path d="m505.175 312.847h-33.071c-3.754 0-6.826 3.072-6.826 6.826v16.632c0 3.754 3.072 6.826 6.826 6.826h33.071c3.754 0 6.826-3.072 6.826-6.826v-16.632c-.001-3.754-3.072-6.826-6.826-6.826z" fill="#a89ca8"/><path d="m39.897 312.847h-33.071c-3.754 0-6.826 3.072-6.826 6.826v16.632c0 3.754 3.072 6.826 6.826 6.826h33.071c3.754 0 6.826-3.072 6.826-6.826v-16.632c0-3.754-3.072-6.826-6.826-6.826z" fill="#a89ca8"/><path d="m491.375 336.305v-16.632c0-3.754 3.072-6.826 6.826-6.826h-26.098c-3.755 0-6.826 3.072-6.826 6.826v16.632c0 3.755 3.071 6.826 6.826 6.826h26.098c-3.754 0-6.826-3.072-6.826-6.826z" fill="#7b6c79"/><path d="m26.098 336.305v-16.632c0-3.754 3.072-6.826 6.826-6.826h-26.098c-3.754 0-6.826 3.072-6.826 6.826v16.632c0 3.755 3.072 6.826 6.826 6.826h26.098c-3.754 0-6.826-3.072-6.826-6.826z" fill="#7b6c79"/></g></svg>