<svg id="Capa_1" enable-background="new 0 0 512 512" height="512" viewBox="0 0 512 512" width="512" xmlns="http://www.w3.org/2000/svg"><path d="m422.058 454.424h-36.115c-8.188 0-14.825-6.638-14.825-14.825v-33.387l32.883-10 32.883 10v33.387c0 8.187-6.638 14.825-14.826 14.825z" fill="#7a8c98"/><path d="m254.18 454.424h-36.115c-8.188 0-14.825-6.638-14.825-14.825v-33.387l32.883-10 32.883 10v33.387c0 8.187-6.638 14.825-14.826 14.825z" fill="#7a8c98"/><path d="m173.088 289.777h-15.928c-12.231 0-22.145-9.915-22.145-22.145v-66.419c0-12.231 9.915-22.145 22.145-22.145h15.928l10 55.355z" fill="#fec165"/><path d="m464.117 289.777h15.928c12.231 0 22.146-9.915 22.146-22.145v-66.419c0-12.231-9.915-22.145-22.146-22.145h-15.928l-10 50.94z" fill="#fea613"/><path d="m404.716 105.958-84.529 10-87.698-10v-18.453c0-10.621 8.61-19.23 19.23-19.23h133.766c10.621 0 19.231 8.61 19.231 19.23z" fill="#fedba6"/><path d="m385.485 68.274h-27.665c10.621 0 19.231 8.61 19.231 19.23v18.454l14.299 10 13.366-10v-18.453c0-10.621-8.61-19.231-19.231-19.231z" fill="#fec165"/><path d="m84.556 285.981h-55.194v-165.535h55.194c7.216 0 13.066 5.85 13.066 13.066v139.404c0 7.215-5.85 13.065-13.066 13.065z" fill="#26a6fe"/><path d="m70.864 191.671h2.42c4.143 0 7.5-3.358 7.5-7.5s-3.357-7.5-7.5-7.5h-2.42v-22.546h2.42c4.143 0 7.5-3.358 7.5-7.5s-3.357-7.5-7.5-7.5h-9.92c-4.143 0-7.5 3.358-7.5 7.5 0 .063.008.124.01.187-.002.063-.01.124-.01.187v11.168h-2.401c-4.143 0-7.5 3.358-7.5 7.5s3.357 7.5 7.5 7.5h2.401v22.546h-2.401c-4.143 0-7.5 3.358-7.5 7.5s3.357 7.5 7.5 7.5h2.401v22.547h-2.401c-4.143 0-7.5 3.358-7.5 7.5s3.357 7.5 7.5 7.5h2.401v5.323c0 4.142 3.357 7.5 7.5 7.5s7.5-3.358 7.5-7.5v-24.366h2.42c4.143 0 7.5-3.358 7.5-7.5s-3.357-7.5-7.5-7.5h-2.42z" fill="#8ac9fe"/><path d="m71.635 317.943h-42.273v64.977h42.273c4.721 0 8.549-3.827 8.549-8.549v-47.88c0-4.72-3.827-8.548-8.549-8.548z" fill="#d8ecfe"/><path d="m29.362 462.439c-4.143 0-7.5-3.358-7.5-7.5v-357.241c0-4.142 3.357-7.5 7.5-7.5s7.5 3.358 7.5 7.5v357.242c0 4.141-3.357 7.499-7.5 7.499z" fill="#8d9ca8"/><path d="m447.105 406.212h-257.005c-9.395 0-17.012-7.616-17.012-17.012v-266.23c0-9.396 7.617-17.012 17.012-17.012h257.005c9.395 0 17.012 7.617 17.012 17.012v266.23c0 9.395-7.617 17.012-17.012 17.012z" fill="#fdb441"/><path d="m447.105 105.958h-30c9.396 0 17.012 7.617 17.012 17.012v266.23c0 9.395-7.616 17.012-17.012 17.012h30c9.396 0 17.012-7.617 17.012-17.012v-266.23c0-9.395-7.617-17.012-17.012-17.012z" fill="#fea613"/><path d="m173.088 144.573h291.029v145.795h-291.029z" fill="#b3dafe"/><path d="m434.117 144.573h30v145.795h-30z" fill="#8ac9fe"/><path d="m353.928 326.503h-70.651c-5.479 0-9.921 4.442-9.921 9.921v24.856c0 5.479 4.442 9.921 9.921 9.921h70.651c5.479 0 9.921-4.442 9.921-9.921v-24.856c0-5.479-4.442-9.921-9.921-9.921z" fill="#c5d3dd"/><path d="m224.94 322.499c-13.84 0-25.059 11.219-25.059 25.059v6.249c0 13.84 11.219 25.059 25.059 25.059 13.839 0 25.059-11.219 25.059-25.059v-6.249c0-13.84-11.219-25.059-25.059-25.059z" fill="#fff4f1"/><path d="m412.265 322.499c-13.84 0-25.059 11.219-25.059 25.059v6.249c0 13.84 11.219 25.059 25.059 25.059 13.84 0 25.059-11.219 25.059-25.059v-6.249c-.001-13.84-11.22-25.059-25.059-25.059z" fill="#fff4f1"/><circle cx="29.362" cy="77.379" fill="#8ac9fe" r="27.818"/><path d="m504.5 462.439h-497c-4.143 0-7.5-3.358-7.5-7.5s3.357-7.5 7.5-7.5h497c4.143 0 7.5 3.358 7.5 7.5s-3.357 7.5-7.5 7.5z" fill="#c5d3dd"/></svg>