<svg id="Layer_1" enable-background="new 0 0 497 497" height="512" viewBox="0 0 497 497" width="512" xmlns="http://www.w3.org/2000/svg"><g><g><g><g fill="#c2e7fc"><path d="m86.454 37.11h117.074c4.142 0 7.5-3.358 7.5-7.5s-3.358-7.5-7.5-7.5h-117.074c-4.142 0-7.5 3.358-7.5 7.5s3.358 7.5 7.5 7.5z"/><path d="m203.528 79.89h-117.074c-4.142 0-7.5 3.358-7.5 7.5s3.358 7.5 7.5 7.5h117.074c4.142 0 7.5-3.358 7.5-7.5s-3.358-7.5-7.5-7.5z"/><path d="m86.454 66h117.185c4.142 0 7.5-3.358 7.5-7.5s-3.358-7.5-7.5-7.5h-117.185c-4.142 0-7.5 3.358-7.5 7.5s3.358 7.5 7.5 7.5z"/></g><path d="m457.041 43.5h-220.36c-5.716-12.612-18.405-21.39-33.153-21.39h-6.753v72.78h6.753c14.748 0 27.437-8.778 33.153-21.39h220.361c8.284 0 15-6.716 15-15s-6.716-15-15.001-15z" fill="#c2e7fc"/><g><path d="m457.041 43.5h-40c8.284 0 15 6.716 15 15s-6.716 15-15 15h40c8.284 0 15-6.716 15-15s-6.715-15-15-15z" fill="#aee0fc"/></g></g><path d="m169.163 315.147v-299.159c0-8.83-7.158-15.988-15.988-15.988-8.83 0-15.988 7.158-15.988 15.988v299.158h31.976z" fill="#ffe191"/><path d="m137.186 315.147v-299.159c0-8.83-7.158-15.988-15.988-15.988-8.83 0-15.988 7.158-15.988 15.988v299.158h31.976z" fill="#ffc326"/></g><g><g><path d="m137.16 332.929c.05-61.393 50.038-111.299 111.431-111.249s111.299 50.038 111.249 111.431z" fill="#ffc326"/><circle cx="279.248" cy="248.5" fill="#fc4378" r="39.33"/><path d="m279.248 209.17c-7.304 0-14.139 1.998-20 5.467 11.568 6.847 19.33 19.446 19.33 33.863s-7.762 27.015-19.33 33.863c5.861 3.469 12.696 5.467 20 5.467 21.721 0 39.33-17.609 39.33-39.33s-17.608-39.33-39.33-39.33z" fill="#ed2860"/><path d="m167.16 332.648c.128-44.851 36.721-81.236 81.571-81.108s81.236 36.72 81.108 81.571z" fill="#ffe191"/><path d="m197.16 333.111c0-28.354 22.986-51.34 51.34-51.34s51.34 22.986 51.34 51.34l-51.34 53.186z" fill="#ffc326"/></g><path d="m40.959 411.785c.05-61.393 50.038-111.299 111.431-111.249s111.299 50.038 111.249 111.431z" fill="#ffe191"/><path d="m223.638 411.934 40 .033c.05-61.393-49.857-111.381-111.249-111.431-6.856-.006-13.568.616-20.086 1.803 51.905 9.455 91.364 55.013 91.335 109.595z" fill="#ffd463"/><circle cx="91.856" cy="343.78" fill="#fc4378" r="39.33"/><path d="m91.856 304.45c-7.304 0-14.139 1.998-20 5.467 11.568 6.847 19.33 19.446 19.33 33.863s-7.762 27.016-19.33 33.863c5.861 3.469 12.696 5.467 20 5.467 21.721 0 39.33-17.609 39.33-39.33 0-21.722-17.609-39.33-39.33-39.33z" fill="#ed2860"/><path d="m70.959 411.503c.128-44.851 36.721-81.236 81.571-81.108s81.236 36.72 81.108 81.571z" fill="#ffc326"/><path d="m100.959 411.966c0-28.354 22.986-51.34 51.34-51.34s51.34 22.986 51.34 51.34z" fill="#ffe191"/><path d="m233.362 411.785c.05-61.393 50.038-111.299 111.431-111.249s111.299 50.038 111.249 111.431z" fill="#ffc326"/><path d="m416.041 411.934 40 .033c.05-61.393-49.856-111.381-111.249-111.431-6.856-.006-13.568.616-20.086 1.803 51.905 9.455 91.364 55.013 91.335 109.595z" fill="#fab500"/><path d="m263.362 411.503c.128-44.851 36.721-81.236 81.571-81.108s81.236 36.72 81.108 81.571z" fill="#ffe191"/><path d="m293.362 411.966c0-28.354 22.986-51.34 51.34-51.34s51.34 22.986 51.34 51.34z" fill="#ffc326"/><circle cx="416.711" cy="404.491" fill="#fc4378" r="39.33"/><path d="m416.711 365.161c-7.304 0-14.139 1.998-20 5.467 11.568 6.847 19.33 19.446 19.33 33.863s-7.762 27.015-19.33 33.863c5.861 3.469 12.696 5.467 20 5.467 21.721 0 39.33-17.609 39.33-39.33s-17.608-39.33-39.33-39.33z" fill="#ed2860"/></g><g><path d="m391.726 497h-286.452c-20.109 0-39-9.638-50.803-25.919l-21.211-29.259h430.478l-21.211 29.259c-11.801 16.281-30.692 25.919-50.801 25.919z" fill="#ebd5d8"/><path d="m423.739 441.821-21.211 29.26c-11.802 16.281-30.693 25.919-50.802 25.919h40c20.109 0 39-9.638 50.803-25.919l21.211-29.26z" fill="#dec1c5"/><path d="m482 441.821h-467c-8.284 0-15-6.716-15-15s6.716-15 15-15h467c8.284 0 15 6.716 15 15s-6.716 15-15 15z" fill="#fff5f6"/><path d="m482 411.821h-40c8.284 0 15 6.716 15 15s-6.716 15-15 15h40c8.284 0 15-6.716 15-15s-6.716-15-15-15z" fill="#f7e9eb"/></g></g></svg>