<svg id="Capa_1" enable-background="new 0 0 512 512" height="512" viewBox="0 0 512 512" width="512" xmlns="http://www.w3.org/2000/svg"><g><g><g><path d="m378.642 511.999h-245.285c-13.629 0-24.677-11.048-24.677-24.677v-462.643c0-13.629 11.048-24.677 24.677-24.677h245.284c13.629 0 24.677 11.048 24.677 24.677v462.643c.001 13.628-11.048 24.677-24.676 24.677z" fill="#efe2dd"/><path d="m403.319 24.679v462.643c0 13.633-11.046 24.679-24.679 24.679h-22.33c13.633 0 24.679-11.046 24.679-24.679v-462.643c0-13.633-11.046-24.679-24.679-24.679h22.329c13.633 0 24.68 11.046 24.68 24.679z" fill="#e1d3ce"/><path d="m378.642 511.999h-245.285c-13.629 0-24.677-11.048-24.677-24.677v-42.753h294.639v42.753c0 13.628-11.049 24.677-24.677 24.677z" fill="#596c76"/><path d="m378.642.001h-245.285c-13.629 0-24.677 11.048-24.677 24.677v42.753h294.639v-42.752c0-13.629-11.049-24.678-24.677-24.678z" fill="#596c76"/><path d="m403.32 444.569v42.753c0 13.633-11.046 24.679-24.679 24.679h-22.331c13.633 0 24.679-11.046 24.679-24.679v-42.753z" fill="#465a61"/><path d="m403.32 24.679v42.753h-22.331v-42.753c0-13.633-11.046-24.679-24.679-24.679h22.331c13.633 0 24.679 11.046 24.679 24.679z" fill="#465a61"/><g><path d="m268.456 485.783h-24.914c-4.142 0-7.5-3.357-7.5-7.5s3.358-7.5 7.5-7.5h24.914c4.143 0 7.5 3.357 7.5 7.5s-3.357 7.5-7.5 7.5z" fill="#33474c"/></g><g><g><circle cx="223.423" cy="33.716" fill="#33474c" r="10.248"/></g><g><path d="m298.823 41.217h-42.823c-4.142 0-7.5-3.357-7.5-7.5s3.358-7.5 7.5-7.5h42.824c4.143 0 7.5 3.357 7.5 7.5s-3.358 7.5-7.501 7.5z" fill="#33474c"/></g></g></g><g><g><path d="m329.374 115.394c-4.143 0-7.5-3.357-7.5-7.5v-4.723c0-4.143 3.357-7.5 7.5-7.5s7.5 3.357 7.5 7.5v4.723c0 4.142-3.357 7.5-7.5 7.5z" fill="#7a8c98"/></g><g><path d="m353.093 115.394c-4.143 0-7.5-3.357-7.5-7.5v-9.445c0-4.143 3.357-7.5 7.5-7.5s7.5 3.357 7.5 7.5v9.445c0 4.142-3.358 7.5-7.5 7.5z" fill="#7a8c98"/></g><g><path d="m376.812 115.394c-4.143 0-7.5-3.357-7.5-7.5v-14.168c0-4.143 3.357-7.5 7.5-7.5s7.5 3.357 7.5 7.5v14.168c0 4.142-3.358 7.5-7.5 7.5z" fill="#7a8c98"/></g></g></g><g><g><g fill="#7a8c98"><path d="m204.891 341.182h-32.113c-5.422 0-9.817-4.395-9.817-9.817v-27.212h51.747v27.212c0 5.422-4.395 9.817-9.817 9.817z"/><path d="m339.222 341.182h-32.113c-5.422 0-9.817-4.395-9.817-9.817v-27.212h51.747v27.212c0 5.422-4.395 9.817-9.817 9.817z"/></g><g fill="#596c76"><path d="m214.711 304.152v27.214c0 5.42-4.4 9.82-9.82 9.82h-17.61c5.42 0 9.82-4.4 9.82-9.82v-27.214z"/><path d="m349.038 304.152v27.214c0 5.42-4.39 9.82-9.82 9.82h-17.6c5.42 0 9.81-4.4 9.81-9.82v-27.214z"/></g><path d="m366.277 243.697v47.905c0 6.935-5.616 12.551-12.551 12.551h-14.302c6.935 0 12.551-5.616 12.551-12.551v-47.905c0-6.935-5.616-12.561-12.551-12.561h14.302c6.935 0 12.551 5.626 12.551 12.561z" fill="#fac600"/><g><g><path d="m160.017 240.907c-1.49 0-2.994-.443-4.306-1.364l-19.546-13.736c-3.389-2.382-4.206-7.06-1.824-10.449s7.06-4.203 10.449-1.824l19.546 13.736c3.389 2.382 4.206 7.06 1.824 10.449-1.46 2.077-3.784 3.188-6.143 3.188z" fill="#e2ae07"/></g><g><path d="m351.983 240.907c-2.36 0-4.683-1.111-6.143-3.188-2.382-3.389-1.565-8.067 1.823-10.448l19.546-13.737c3.39-2.381 8.067-1.563 10.448 1.824 2.382 3.389 1.565 8.067-1.823 10.448l-19.546 13.737c-1.31.921-2.815 1.364-4.305 1.364z" fill="#e2ae07"/></g></g><path d="m324.298 170.818h-136.596c-6.789 0-12.704 4.589-14.334 11.122l-12.279 49.199h189.824l-12.279-49.199c-1.632-6.533-7.546-11.122-14.336-11.122z" fill="#dff6fd"/><path d="m350.913 231.136h-17.919l-12.283-49.193c-1.628-6.533-7.543-11.129-14.333-11.129h17.919c6.79 0 12.705 4.596 14.333 11.129z" fill="#c8effe"/><path d="m145.719 243.696v47.9c0 6.935 5.622 12.557 12.557 12.557h195.448c6.935 0 12.557-5.622 12.557-12.557v-47.9c0-6.935-5.622-12.557-12.557-12.557h-195.448c-6.935 0-12.557 5.622-12.557 12.557z" fill="#fed402"/><g><path d="m277.296 272.365h-42.591c-4.142 0-7.5-3.357-7.5-7.5s3.358-7.5 7.5-7.5h42.591c4.143 0 7.5 3.357 7.5 7.5s-3.358 7.5-7.5 7.5z" fill="#e2ae07"/></g><g><circle cx="190.516" cy="267.646" fill="#7a8c98" r="14.308"/><circle cx="321.484" cy="267.646" fill="#7a8c98" r="14.308"/><g><path d="m204.824 267.641c0 7.903-6.409 14.313-14.313 14.313-6.234 0-11.551-3.998-13.509-9.562 1.484.515 3.081.804 4.75.804 7.903 0 14.313-6.409 14.313-14.313 0-1.659-.289-3.256-.804-4.74 5.576 1.958 9.563 7.264 9.563 13.498z" fill="#596c76"/></g></g><g><path d="m335.796 267.644c0 7.903-6.409 14.313-14.313 14.313-6.234 0-11.551-3.998-13.509-9.562 1.484.515 3.081.804 4.75.804 7.903 0 14.313-6.409 14.313-14.313 0-1.659-.289-3.256-.804-4.74 5.576 1.957 9.563 7.264 9.563 13.498z" fill="#596c76"/></g></g></g></g></svg>