<?xml version="1.0" encoding="iso-8859-1"?>
<!-- Generator: Adobe Illustrator 19.0.0, SVG Export Plug-In . SVG Version: 6.00 Build 0)  -->
<svg version="1.1" id="Capa_1" xmlns="http://www.w3.org/2000/svg" xmlns:xlink="http://www.w3.org/1999/xlink" x="0px" y="0px"
	 viewBox="0 0 512 512" style="enable-background:new 0 0 512 512;" xml:space="preserve">
<path style="fill:#3A8FE6;" d="M270.962,5.334c-8.162-7.535-20.887-7.025-28.421,1.137L8.55,259.989l133.699,123.399
	l247.636-268.288L270.962,5.334z"/>
<circle style="fill:#FFA001;" cx="275.46" cy="102.317" r="38.498"/>
<circle style="fill:#EF5350;" cx="233.635" cy="144.132" r="38.498"/>
<polygon style="fill:#337FCC;" points="209.856,242.077 199.898,167.242 94.154,167.242 25.083,242.077 "/>
<g>
	<path style="fill:#409FFF;" d="M390.411,81.872c-5.497-9.653-17.779-13.02-27.431-7.522L63.202,245.103l19.247,33.785
		l169.175-71.827l148.079-108.87L390.411,81.872z"/>
	<polygon style="fill:#409FFF;" points="420.801,135.221 251.626,207.06 103.546,315.929 153.255,403.197 470.509,222.5 	"/>
</g>
<g>
	<polygon style="fill:#3A8FE6;" points="305.784,167.242 199.898,167.242 63.202,245.103 82.45,278.888 251.626,207.06 	"/>
	<polygon style="fill:#3A8FE6;" points="439.037,167.242 345.395,167.242 251.626,207.06 103.546,315.929 153.255,403.197 
		470.509,222.5 	"/>
</g>
<polygon style="fill:#36474F;" points="420.801,135.221 103.546,315.929 82.45,278.888 399.705,98.191 "/>
<polygon style="fill:#2C3940;" points="278.47,167.242 82.45,278.888 103.546,315.929 364.585,167.242 "/>
<path style="fill:#D69060;" d="M492.375,477.547l-11.59-7.726l11.59-7.726l0,0V248.053l0,0l-11.59-7.726l11.59-7.726l0,0v-9.714
	c0-13.663-11.076-24.739-24.739-24.739H28.22c-13.663,0-24.739,11.075-24.739,24.739v9.714l7.479,8.775l-7.479,6.678v214.042
	l11.59,7.726l-11.59,7.726v9.714C3.481,500.923,14.557,512,28.22,512h439.417c13.663,0,24.739-11.076,24.739-24.739V477.547
	L492.375,477.547z"/>
<path style="fill:#BA7241;" d="M493.931,308.365h-91.168c-14.485,0-26.227,11.742-26.227,26.227v40.963
	c0,14.485,11.742,26.227,26.227,26.227h91.168c8.056,0,14.587-6.53,14.587-14.587v-64.244
	C508.519,314.895,501.987,308.365,493.931,308.365z"/>
<circle style="fill:#D69060;" cx="430.42" cy="355.072" r="18.373"/>
<path style="fill:#BA7241;" d="M492.375,248.053V232.6l0,0h-15.453c-4.268,0-7.726,3.459-7.726,7.726
	c0,4.268,3.458,7.726,7.726,7.726H492.375L492.375,248.053z"/>
<path style="fill:#C7865A;" d="M57.804,198.148H28.22c-13.663,0-24.739,11.075-24.739,24.739v9.714l7.479,8.775l-7.479,6.678
	v214.042l11.59,7.726l-11.59,7.726v9.714C3.481,500.923,14.557,512,28.22,512h29.585V198.148z"/>
<g>
	<path style="fill:#BA7241;" d="M18.933,232.6H3.481v15.453h15.453c4.267,0,7.726-3.458,7.726-7.726
		C26.66,236.059,23.201,232.6,18.933,232.6z"/>
	<path style="fill:#BA7241;" d="M492.375,477.547v-15.453l0,0h-15.453c-4.268,0-7.726,3.459-7.726,7.726
		c0,4.267,3.458,7.726,7.726,7.726H492.375L492.375,477.547z"/>
	<path style="fill:#BA7241;" d="M18.933,462.095H3.481v15.453h15.453c4.267,0,7.726-3.459,7.726-7.726
		C26.66,465.554,23.201,462.095,18.933,462.095z"/>
	<path style="fill:#BA7241;" d="M446.39,248.053h-30.533c-4.268,0-7.726-3.459-7.726-7.726s3.458-7.726,7.726-7.726h30.533
		c4.268,0,7.726,3.459,7.726,7.726S450.658,248.053,446.39,248.053z M385.325,248.053h-30.533c-4.267,0-7.726-3.459-7.726-7.726
		s3.459-7.726,7.726-7.726h30.533c4.267,0,7.726,3.459,7.726,7.726S389.592,248.053,385.325,248.053z M324.26,248.053h-30.533
		c-4.267,0-7.726-3.459-7.726-7.726s3.459-7.726,7.726-7.726h30.533c4.267,0,7.726,3.459,7.726,7.726
		S328.527,248.053,324.26,248.053z M263.195,248.053h-30.533c-4.267,0-7.726-3.459-7.726-7.726s3.459-7.726,7.726-7.726h30.533
		c4.267,0,7.726,3.459,7.726,7.726S267.462,248.053,263.195,248.053z M202.13,248.053h-30.533c-4.267,0-7.726-3.459-7.726-7.726
		s3.459-7.726,7.726-7.726h30.533c4.267,0,7.726,3.459,7.726,7.726S206.397,248.053,202.13,248.053z M141.064,248.053h-30.533
		c-4.267,0-7.726-3.459-7.726-7.726s3.459-7.726,7.726-7.726h30.533c4.267,0,7.726,3.459,7.726,7.726
		S145.331,248.053,141.064,248.053z M79.999,248.053H49.466c-4.267,0-7.726-3.459-7.726-7.726s3.459-7.726,7.726-7.726h30.533
		c4.267,0,7.726,3.459,7.726,7.726S84.266,248.053,79.999,248.053z"/>
	<path style="fill:#BA7241;" d="M446.39,477.547h-30.533c-4.268,0-7.726-3.459-7.726-7.726c0-4.267,3.458-7.726,7.726-7.726h30.533
		c4.268,0,7.726,3.459,7.726,7.726C454.116,474.088,450.658,477.547,446.39,477.547z M385.325,477.547h-30.533
		c-4.267,0-7.726-3.459-7.726-7.726c0-4.267,3.459-7.726,7.726-7.726h30.533c4.267,0,7.726,3.459,7.726,7.726
		C393.051,474.088,389.592,477.547,385.325,477.547z M324.26,477.547h-30.533c-4.267,0-7.726-3.459-7.726-7.726
		c0-4.267,3.459-7.726,7.726-7.726h30.533c4.267,0,7.726,3.459,7.726,7.726C331.986,474.088,328.527,477.547,324.26,477.547z
		 M263.195,477.547h-30.533c-4.267,0-7.726-3.459-7.726-7.726c0-4.267,3.459-7.726,7.726-7.726h30.533
		c4.267,0,7.726,3.459,7.726,7.726C270.921,474.088,267.462,477.547,263.195,477.547z M202.13,477.547h-30.533
		c-4.267,0-7.726-3.459-7.726-7.726c0-4.267,3.459-7.726,7.726-7.726h30.533c4.267,0,7.726,3.459,7.726,7.726
		C209.856,474.088,206.397,477.547,202.13,477.547z M141.064,477.547h-30.533c-4.267,0-7.726-3.459-7.726-7.726
		c0-4.267,3.459-7.726,7.726-7.726h30.533c4.267,0,7.726,3.459,7.726,7.726C148.79,474.088,145.331,477.547,141.064,477.547z
		 M79.999,477.547H49.466c-4.267,0-7.726-3.459-7.726-7.726c0-4.267,3.459-7.726,7.726-7.726h30.533
		c4.267,0,7.726,3.459,7.726,7.726C87.725,474.088,84.266,477.547,79.999,477.547z"/>
</g>
<g>
</g>
<g>
</g>
<g>
</g>
<g>
</g>
<g>
</g>
<g>
</g>
<g>
</g>
<g>
</g>
<g>
</g>
<g>
</g>
<g>
</g>
<g>
</g>
<g>
</g>
<g>
</g>
<g>
</g>
</svg>
