<?xml version="1.0" encoding="iso-8859-1"?>
<!-- Generator: Adobe Illustrator 19.0.0, SVG Export Plug-In . SVG Version: 6.00 Build 0)  -->
<svg version="1.1" id="Layer_1" xmlns="http://www.w3.org/2000/svg" xmlns:xlink="http://www.w3.org/1999/xlink" x="0px" y="0px"
	 viewBox="0 0 512 512" style="enable-background:new 0 0 512 512;" xml:space="preserve">
<path style="fill:#8CDEFF;" d="M265.016,468.888c130.298,0,173.774-147.254,0-310.009
	C91.242,321.634,134.718,468.888,265.016,468.888z"/>
<path style="opacity:0.2;enable-background:new    ;" d="M309.947,450.916c-114.54,0-161.98-128.133-53.736-283.616
	C92.776,326.677,136.97,468.889,265.016,468.889c29.276,0,54.165-7.438,73.196-20.811
	C329.334,449.944,319.895,450.916,309.947,450.916z"/>
<g>
	<path style="fill:#FFFFFF;" d="M294.01,257.885c-2.578,0-5.122-1.179-6.776-3.409c-8.45-11.403-18.009-22.901-28.41-34.171
		c-3.155-3.419-2.942-8.749,0.477-11.904c3.419-3.155,8.749-2.942,11.904,0.477c10.809,11.713,20.757,23.68,29.566,35.567
		c2.77,3.738,1.985,9.014-1.753,11.784C297.512,257.346,295.754,257.885,294.01,257.885z"/>
	<path style="fill:#FFFFFF;" d="M339.476,358.263c-4.213,0-7.853-3.155-8.356-7.443c-1.36-11.592-4.61-23.946-9.655-36.719
		c-4.642-11.751-10.897-24.054-18.588-36.565c-2.436-3.963-1.199-9.151,2.764-11.589c3.964-2.436,9.151-1.199,11.589,2.764
		c8.206,13.347,14.902,26.535,19.904,39.198c5.582,14.13,9.188,27.905,10.718,40.945c0.543,4.621-2.764,8.806-7.384,9.349
		C340.134,358.245,339.803,358.263,339.476,358.263z"/>
</g>
<g>
	<path style="fill:#76CC5B;" d="M342.058,108.356c-0.02-0.946-0.19-1.879-0.526-2.776l-21.366-57
		c-1.633-4.357-6.488-6.563-10.845-4.932c-4.356,1.633-6.564,6.489-4.932,10.845l12.12,32.334
		c-15.811-8.122-33.433-12.472-51.488-12.472c-27.308,0-53.653,9.893-74.183,27.855c-3.501,3.064-3.857,8.386-0.793,11.888
		c1.666,1.904,3.999,2.878,6.343,2.878c1.969,0,3.947-0.686,5.544-2.084c17.458-15.275,39.863-23.686,63.088-23.686
		c18.122,0,35.733,5.142,50.895,14.649l-42.491,14.963c-4.389,1.546-6.692,6.355-5.148,10.744c1.22,3.463,4.472,5.629,7.946,5.629
		c0.929,0,1.873-0.155,2.798-0.481l57.423-20.221c0.017-0.006,0.033-0.015,0.049-0.02c1.598-0.593,2.963-1.601,3.97-2.983
		C341.545,112,342.099,110.19,342.058,108.356z"/>
	<path style="fill:#76CC5B;" d="M511.976,432.209c-0.346-4.64-4.387-8.11-9.027-7.776l-34.435,2.563
		c12.231-12.897,21.348-28.593,26.413-45.924c7.66-26.211,5.553-54.274-5.93-79.018c-1.959-4.221-6.968-6.056-11.188-4.095
		c-4.22,1.959-6.053,6.968-4.095,11.188c9.765,21.041,11.555,44.906,5.04,67.2c-5.083,17.394-14.959,32.856-28.337,44.743
		l-2.444-44.981c-0.253-4.646-4.224-8.216-8.869-7.955c-4.646,0.253-8.208,4.224-7.955,8.869l3.302,60.789
		c0,0.017,0.003,0.034,0.004,0.051c0.062,0.95,0.273,1.914,0.66,2.785c0.968,2.175,2.757,3.916,5.029,4.68
		c1.073,0.361,2.213,0.512,3.343,0.429l60.711-4.52C508.84,440.89,512.321,436.849,511.976,432.209z"/>
	<path style="fill:#76CC5B;" d="M100.383,425.802c-19.586-12.428-33.987-31.543-40.551-53.822
		c-5.122-17.383-5.166-35.729-0.331-52.96l26.362,36.53c1.647,2.283,4.223,3.496,6.838,3.496c1.709,0,3.433-0.518,4.923-1.594
		c3.772-2.723,4.623-7.989,1.901-11.761l-35.626-49.367c-0.01-0.013-0.021-0.026-0.031-0.04c-0.523-0.702-1.148-1.358-1.87-1.858
		c-1.179-0.817-2.535-1.389-3.97-1.538c-2.148-0.22-4.305,0.338-6.035,1.642L3.36,331.129c-3.718,2.798-4.464,8.08-1.666,11.797
		c2.798,3.718,8.081,4.464,11.797,1.666l27.591-20.764c-3.323,17.462-2.514,35.595,2.588,52.914
		c7.718,26.196,24.654,48.671,47.686,63.286c1.401,0.888,2.962,1.312,4.507,1.312c2.788,0,5.516-1.383,7.122-3.911
		C105.475,433.499,104.311,428.294,100.383,425.802z"/>
</g>
<g>
</g>
<g>
</g>
<g>
</g>
<g>
</g>
<g>
</g>
<g>
</g>
<g>
</g>
<g>
</g>
<g>
</g>
<g>
</g>
<g>
</g>
<g>
</g>
<g>
</g>
<g>
</g>
<g>
</g>
</svg>
